BlackCompressedLatin_decomp.ufo
<glyph name="exclam" format="1">
  <advance width="254.0"/>
  <unicode hex="0021"/>
  <outline>
    <contour>
      <point x="199.0" y="229" type="line"/>
      <point x="209.0" y="722" type="line"/>
      <point x="46.0" y="722" type="line"/>
      <point x="56.0" y="229" type="line"/>
    </contour>
    <contour>
      <point x="201.0" y="62"/>
      <point x="53.0" y="62"/>
      <point x="201.0" y="62" type="curve"/>
      <point x="201.0" y="110"/>
      <point x="169.0" y="134"/>
      <point x="126.0" y="134" type="curve"/>
      <point x="82.0" y="134"/>
      <point x="53.0" y="108"/>
      <point x="53.0" y="62" type="curve"/>
      <point x="201.0" y="62"/>
      <point x="53.0" y="62"/>
      <point x="201.0" y="62" type="curve"/>
      <point x="201.0" y="13"/>
      <point x="170.0" y="-9"/>
      <point x="126.0" y="-9" type="curve"/>
      <point x="81.0" y="-9"/>
      <point x="53.0" y="15"/>
      <point x="53.0" y="62" type="curve"/>
    </contour>
  </outline>
</glyph>
<glyph name="quotedbl" format="1">
  <advance width="406.0"/>
  <unicode hex="0022"/>
  <outline>
    <contour>
      <point x="171.0" y="628" type="line"/>
      <point x="181.0" y="846" type="line"/>
      <point x="38.0" y="846" type="line"/>
      <point x="48.0" y="628" type="line"/>
    </contour>
    <contour>
      <point x="358.0" y="628" type="line"/>
      <point x="368.0" y="846" type="line"/>
      <point x="225.0" y="846" type="line"/>
      <point x="235.0" y="628" type="line"/>
    </contour>
  </outline>
</glyph>
<glyph name="numbersign" format="1">
  <advance width="564.0"/>
  <unicode hex="0023"/>
  <outline>
    <contour>
      <point x="33.0" y="217" type="curve"/>
      <point x="457.0" y="217" type="curve"/>
      <point x="485.0" y="328" type="curve"/>
      <point x="61.0" y="328" type="curve"/>
    </contour>
    <contour>
      <point x="81.0" y="429" type="curve"/>
      <point x="507.0" y="429" type="curve"/>
      <point x="535.0" y="540" type="curve"/>
      <point x="107.0" y="540" type="curve"/>
    </contour>
    <contour>
      <point x="378.0" y="39" type="curve"/>
      <point x="540.0" y="722" type="curve"/>
      <point x="397.0" y="722" type="curve"/>
      <point x="235.0" y="39" type="curve"/>
    </contour>
    <contour>
      <point x="165.0" y="46" type="curve"/>
      <point x="327.0" y="722" type="curve"/>
      <point x="184.0" y="722" type="curve"/>
      <point x="28.0" y="46" type="curve"/>
    </contour>
  </outline>
</glyph>
<glyph name="dollar" format="1">
  <advance width="480.0"/>
  <unicode hex="0024"/>
  <outline>
    <contour>
      <point x="294.0" y="-42"/>
      <point x="151.0" y="-42"/>
      <point x="294.0" y="-42" type="curve"/>
      <point x="294.0" y="-12"/>
      <point x="294.0" y="67"/>
      <point x="294.0" y="97" type="curve"/>
      <point x="151.0" y="97"/>
      <point x="294.0" y="97"/>
      <point x="151.0" y="97" type="curve"/>
      <point x="151.0" y="67"/>
      <point x="151.0" y="-12"/>
      <point x="151.0" y="-42" type="curve"/>
    </contour>
    <contour>
      <point x="303.0" y="632"/>
      <point x="160.0" y="632"/>
      <point x="303.0" y="632" type="curve"/>
      <point x="303.0" y="662"/>
      <point x="303.0" y="743"/>
      <point x="303.0" y="773" type="curve"/>
      <point x="160.0" y="773"/>
      <point x="303.0" y="773"/>
      <point x="160.0" y="773" type="curve"/>
      <point x="160.0" y="743"/>
      <point x="160.0" y="662"/>
      <point x="160.0" y="632" type="curve"/>
    </contour>
    <contour>
      <point x="41.0" y="91"/>
      <point x="119.0" y="190"/>
      <point x="41.0" y="91" type="curve"/>
      <point x="89.0" y="63"/>
      <point x="148.0" y="42"/>
      <point x="216.0" y="42" type="curve"/>
      <point x="352.0" y="42"/>
      <point x="455.0" y="109"/>
      <point x="455.0" y="221" type="curve"/>
      <point x="455.0" y="317"/>
      <point x="373.0" y="374"/>
      <point x="275.0" y="423" type="curve"/>
      <point x="221.0" y="450"/>
      <point x="174.0" y="469"/>
      <point x="174.0" y="520" type="curve"/>
      <point x="174.0" y="552"/>
      <point x="196.0" y="578"/>
      <point x="232.0" y="578" type="curve"/>
      <point x="275.0" y="578"/>
      <point x="304.0" y="564"/>
      <point x="340.0" y="542" type="curve"/>
      <point x="411.0" y="636"/>
      <point x="340.0" y="542"/>
      <point x="411.0" y="636" type="curve"/>
      <point x="355.0" y="670"/>
      <point x="307.0" y="688"/>
      <point x="238.0" y="688" type="curve"/>
      <point x="117.0" y="688"/>
      <point x="31.0" y="623"/>
      <point x="31.0" y="520" type="curve"/>
      <point x="31.0" y="425"/>
      <point x="96.0" y="370"/>
      <point x="191.0" y="323" type="curve"/>
      <point x="250.0" y="295"/>
      <point x="312.0" y="273"/>
      <point x="312.0" y="216" type="curve"/>
      <point x="312.0" y="176"/>
      <point x="276.0" y="152"/>
      <point x="229.0" y="152" type="curve"/>
      <point x="185.0" y="152"/>
      <point x="149.0" y="173"/>
      <point x="119.0" y="190" type="curve"/>
    </contour>
  </outline>
</glyph>
<glyph name="ampersand" format="1">
  <advance width="608.0"/>
  <unicode hex="0026"/>
  <outline>
    <contour>
      <point x="575.0" y="45" type="line"/>
      <point x="499.0" y="142"/>
      <point x="408.0" y="276"/>
      <point x="326.0" y="378" type="curve"/>
      <point x="284.0" y="432"/>
      <point x="225.0" y="479"/>
      <point x="225.0" y="549" type="curve"/>
      <point x="225.0" y="582"/>
      <point x="229.0" y="617"/>
      <point x="258.0" y="617" type="curve"/>
      <point x="288.0" y="617"/>
      <point x="294.0" y="586"/>
      <point x="294.0" y="551" type="curve"/>
      <point x="294.0" y="492"/>
      <point x="262.0" y="453"/>
      <point x="212.0" y="420" type="curve"/>
      <point x="122.0" y="359"/>
      <point x="41.0" y="307"/>
      <point x="41.0" y="201" type="curve"/>
      <point x="41.0" y="77"/>
      <point x="127.0" y="-5"/>
      <point x="252.0" y="-5" type="curve"/>
      <point x="426.0" y="-5"/>
      <point x="511.0" y="135"/>
      <point x="557.0" y="312" type="curve"/>
      <point x="434.0" y="340"/>
      <point x="557.0" y="312"/>
      <point x="434.0" y="340" type="curve"/>
      <point x="402.0" y="220"/>
      <point x="374.0" y="106"/>
      <point x="259.0" y="106" type="curve"/>
      <point x="209.0" y="106"/>
      <point x="184.0" y="147"/>
      <point x="184.0" y="201" type="curve"/>
      <point x="184.0" y="261"/>
      <point x="220.0" y="297"/>
      <point x="271.0" y="332" type="curve"/>
      <point x="359.0" y="392"/>
      <point x="436.0" y="446"/>
      <point x="437.0" y="551" type="curve"/>
      <point x="437.0" y="657"/>
      <point x="367.0" y="727"/>
      <point x="263.0" y="727" type="curve"/>
      <point x="159.0" y="727"/>
      <point x="92.0" y="655"/>
      <point x="92.0" y="549" type="curve"/>
      <point x="92.0" y="450"/>
      <point x="162.0" y="387"/>
      <point x="224.0" y="311" type="curve"/>
      <point x="300.0" y="214"/>
      <point x="401.0" y="70"/>
      <point x="471.0" y="-21" type="curve"/>
    </contour>
  </outline>
</glyph>
<glyph name="quotesingle" format="1">
  <advance width="219.0"/>
  <unicode hex="0027"/>
  <outline>
    <contour>
      <point x="171.0" y="628" type="line"/>
      <point x="181.0" y="846" type="line"/>
      <point x="38.0" y="846" type="line"/>
      <point x="48.0" y="628" type="line"/>
    </contour>
  </outline>
</glyph>
<glyph name="parenleft" format="1">
  <advance width="329.0"/>
  <unicode hex="0028"/>
  <outline>
    <contour>
      <point x="327.625" y="-204"/>
      <point x="242.625" y="-282"/>
      <point x="327.625" y="-204" type="curve"/>
      <point x="200.625" y="-37"/>
      <point x="169.625" y="116"/>
      <point x="169.625" y="326" type="curve"/>
      <point x="169.625" y="537"/>
      <point x="201.625" y="690"/>
      <point x="326.625" y="860" type="curve"/>
      <point x="241.625" y="931"/>
      <point x="326.625" y="860"/>
      <point x="241.625" y="931" type="curve"/>
      <point x="93.625" y="737"/>
      <point x="30.625" y="571"/>
      <point x="30.625" y="326" type="curve"/>
      <point x="30.625" y="80"/>
      <point x="94.625" y="-86"/>
      <point x="242.625" y="-282" type="curve"/>
    </contour>
  </outline>
</glyph>
<glyph name="parenright" format="1">
  <advance width="337.25"/>
  <unicode hex="0029"/>
  <outline>
    <contour>
      <point x="82.875" y="-295"/>
      <point x="-1.125" y="-224"/>
      <point x="82.875" y="-295" type="curve"/>
      <point x="232.875" y="-92"/>
      <point x="305.875" y="76"/>
      <point x="305.875" y="329" type="curve"/>
      <point x="305.875" y="576"/>
      <point x="239.875" y="741"/>
      <point x="85.875" y="934" type="curve"/>
      <point x="1.875" y="856"/>
      <point x="85.875" y="934"/>
      <point x="1.875" y="856" type="curve"/>
      <point x="130.875" y="688"/>
      <point x="165.875" y="536"/>
      <point x="165.875" y="324" type="curve"/>
      <point x="165.875" y="108"/>
      <point x="122.875" y="-46"/>
      <point x="-1.125" y="-224" type="curve"/>
    </contour>
  </outline>
</glyph>
<glyph name="asterisk" format="1">
  <advance width="511.0"/>
  <unicode hex="002A"/>
  <outline>
    <contour>
      <point x="298.0" y="541" type="line"/>
      <point x="305.0" y="759" type="line"/>
      <point x="205.0" y="759" type="line"/>
      <point x="212.0" y="541" type="line"/>
    </contour>
    <contour>
      <point x="269.0" y="500" type="line"/>
      <point x="476.0" y="568" type="line"/>
      <point x="442.0" y="662" type="line"/>
      <point x="240.0" y="581" type="line"/>
    </contour>
    <contour>
      <point x="222.0" y="513" type="line"/>
      <point x="357.0" y="341" type="line"/>
      <point x="433.0" y="406" type="line"/>
      <point x="288.0" y="568" type="line"/>
    </contour>
    <contour>
      <point x="222.0" y="569" type="line"/>
      <point x="76.0" y="406" type="line"/>
      <point x="153.0" y="342" type="line"/>
      <point x="288.0" y="514" type="line"/>
    </contour>
    <contour>
      <point x="270.0" y="581" type="line"/>
      <point x="67.0" y="662" type="line"/>
      <point x="33.0" y="568" type="line"/>
      <point x="240.0" y="500" type="line"/>
    </contour>
  </outline>
</glyph>
<glyph name="plus" format="1">
  <advance width="585.0"/>
  <unicode hex="002B"/>
  <outline>
    <contour>
      <point x="32.0" y="255"/>
      <point x="32.0" y="376"/>
      <point x="32.0" y="255" type="curve"/>
      <point x="32.0" y="255"/>
      <point x="553.0" y="255"/>
      <point x="553.0" y="255" type="curve"/>
      <point x="553.0" y="376"/>
      <point x="553.0" y="255"/>
      <point x="553.0" y="376" type="curve"/>
      <point x="553.0" y="376"/>
      <point x="32.0" y="376"/>
      <point x="32.0" y="376" type="curve"/>
    </contour>
    <contour>
      <point x="369.0" y="58"/>
      <point x="216.0" y="58"/>
      <point x="359.0" y="58" type="curve"/>
      <point x="359.0" y="58"/>
      <point x="359.0" y="578"/>
      <point x="359.0" y="578" type="curve"/>
      <point x="216.0" y="578"/>
      <point x="369.0" y="578"/>
      <point x="226.0" y="578" type="curve"/>
      <point x="226.0" y="578"/>
      <point x="226.0" y="58"/>
      <point x="226.0" y="58" type="curve"/>
    </contour>
  </outline>
</glyph>
<glyph name="comma" format="1">
  <advance width="218.0"/>
  <unicode hex="002C"/>
  <outline>
    <contour>
      <point x="11.0" y="-119" type="line"/>
      <point x="108.0" y="-119"/>
      <point x="172.0" y="-49"/>
      <point x="172.0" y="58" type="curve"/>
      <point x="172.0" y="147"/>
      <point x="138.0" y="193"/>
      <point x="91.0" y="193" type="curve"/>
      <point x="47.0" y="193"/>
      <point x="18.0" y="168"/>
      <point x="18.0" y="121" type="curve"/>
      <point x="18.0" y="83"/>
      <point x="39.0" y="53"/>
      <point x="78.0" y="53" type="curve"/>
      <point x="78.0" y="26"/>
      <point x="76.0" y="-29"/>
      <point x="11.0" y="-41" type="curve"/>
    </contour>
  </outline>
</glyph>
<glyph name="hyphen" format="1">
  <advance width="319.0"/>
  <unicode hex="002D"/>
  <outline>
    <contour>
      <point x="50.0" y="223"/>
      <point x="50.0" y="344"/>
      <point x="50.0" y="223" type="curve"/>
      <point x="123.0" y="223"/>
      <point x="196.0" y="223"/>
      <point x="269.0" y="223" type="curve"/>
      <point x="269.0" y="344"/>
      <point x="269.0" y="223"/>
      <point x="269.0" y="344" type="curve"/>
      <point x="196.0" y="344"/>
      <point x="123.0" y="344"/>
      <point x="50.0" y="344" type="curve"/>
    </contour>
  </outline>
</glyph>
<glyph name="period" format="1">
  <advance width="235.65"/>
  <unicode hex="002E"/>
  <outline>
    <contour>
      <point x="191.7" y="62"/>
      <point x="43.7" y="62"/>
      <point x="191.7" y="62" type="curve"/>
      <point x="191.7" y="110"/>
      <point x="159.7" y="134"/>
      <point x="116.7" y="134" type="curve"/>
      <point x="72.7" y="134"/>
      <point x="43.7" y="108"/>
      <point x="43.7" y="62" type="curve"/>
      <point x="191.7" y="62"/>
      <point x="43.7" y="62"/>
      <point x="191.7" y="62" type="curve"/>
      <point x="191.7" y="13"/>
      <point x="160.7" y="-9"/>
      <point x="116.7" y="-9" type="curve"/>
      <point x="71.7" y="-9"/>
      <point x="43.7" y="15"/>
      <point x="43.7" y="62" type="curve"/>
    </contour>
  </outline>
</glyph>
<glyph name="zero" format="1">
  <advance width="596.75"/>
  <unicode hex="0030"/>
  <outline>
    <contour>
      <point x="179.125" y="360"/>
      <point x="39.125" y="360"/>
      <point x="179.125" y="360" type="curve"/>
      <point x="179.125" y="497"/>
      <point x="196.125" y="612"/>
      <point x="294.125" y="612" type="curve"/>
      <point x="397.125" y="612"/>
      <point x="419.125" y="500"/>
      <point x="419.125" y="363" type="curve"/>
      <point x="419.125" y="226"/>
      <point x="403.125" y="111"/>
      <point x="305.125" y="111" type="curve"/>
      <point x="199.125" y="111"/>
      <point x="179.125" y="223"/>
      <point x="179.125" y="360" type="curve"/>
      <point x="39.125" y="360"/>
      <point x="179.125" y="360"/>
      <point x="39.125" y="360" type="curve"/>
      <point x="39.125" y="150"/>
      <point x="114.125" y="-5"/>
      <point x="298.125" y="-5" type="curve"/>
      <point x="484.125" y="-5"/>
      <point x="558.125" y="150"/>
      <point x="558.125" y="363" type="curve"/>
      <point x="558.125" y="572"/>
      <point x="488.125" y="727"/>
      <point x="307.125" y="727" type="curve"/>
      <point x="119.125" y="727"/>
      <point x="39.125" y="573"/>
      <point x="39.125" y="360" type="curve"/>
    </contour>
  </outline>
</glyph>
<glyph name="one" format="1">
  <advance width="356.0"/>
  <unicode hex="0031"/>
  <outline>
    <contour>
      <point x="90.0" y="476"/>
      <point x="5.0" y="565"/>
      <point x="90.0" y="476" type="curve"/>
      <point x="265.0" y="648"/>
      <point x="90.0" y="476"/>
      <point x="265.0" y="648" type="curve"/>
      <point x="161.0" y="722"/>
      <point x="265.0" y="648"/>
      <point x="161.0" y="722" type="curve"/>
      <point x="5.0" y="565"/>
      <point x="161.0" y="722"/>
      <point x="5.0" y="565" type="curve"/>
    </contour>
    <contour>
      <point x="300.0" y="0"/>
      <point x="161.0" y="0"/>
      <point x="300.0" y="0" type="curve"/>
      <point x="300.0" y="241"/>
      <point x="300.0" y="481"/>
      <point x="300.0" y="722" type="curve"/>
      <point x="161.0" y="722"/>
      <point x="300.0" y="722"/>
      <point x="161.0" y="722" type="curve"/>
      <point x="161.0" y="481"/>
      <point x="161.0" y="241"/>
      <point x="161.0" y="0" type="curve"/>
    </contour>
  </outline>
</glyph>
<glyph name="two" format="1">
  <advance width="490.625"/>
  <unicode hex="0032"/>
  <outline>
    <contour>
      <point x="35.625" y="0"/>
      <point x="36.625" y="110"/>
      <point x="35.625" y="0" type="curve"/>
      <point x="203.625" y="0"/>
      <point x="355.625" y="0"/>
      <point x="456.625" y="0" type="curve"/>
      <point x="456.625" y="110"/>
      <point x="456.625" y="0"/>
      <point x="456.625" y="110" type="curve"/>
      <point x="333.625" y="110"/>
      <point x="160.625" y="111"/>
      <point x="36.625" y="111" type="curve"/>
    </contour>
    <contour>
      <point x="131.625" y="518"/>
      <point x="33.625" y="576"/>
      <point x="131.625" y="518" type="curve"/>
      <point x="162.625" y="570"/>
      <point x="180.625" y="612"/>
      <point x="234.625" y="612" type="curve"/>
      <point x="287.625" y="612"/>
      <point x="304.625" y="565"/>
      <point x="304.625" y="502" type="curve"/>
      <point x="304.625" y="410"/>
      <point x="262.625" y="349"/>
      <point x="198.625" y="282" type="curve"/>
      <point x="144.625" y="223"/>
      <point x="94.625" y="171"/>
      <point x="36.625" y="111" type="curve"/>
      <point x="35.625" y="0"/>
      <point x="36.625" y="110"/>
      <point x="35.625" y="0" type="curve"/>
      <point x="167.625" y="55"/>
      <point x="229.625" y="133"/>
      <point x="291.625" y="201" type="curve"/>
      <point x="384.625" y="296"/>
      <point x="440.625" y="375"/>
      <point x="440.625" y="508" type="curve"/>
      <point x="440.625" y="643"/>
      <point x="371.625" y="727"/>
      <point x="240.625" y="727" type="curve"/>
      <point x="138.625" y="727"/>
      <point x="70.625" y="668"/>
      <point x="33.625" y="576" type="curve"/>
    </contour>
  </outline>
</glyph>
<glyph name="three" format="1">
  <advance width="464.375"/>
  <unicode hex="0033"/>
  <outline>
    <contour>
      <point x="28.25" y="60"/>
      <point x="106.25" y="143"/>
      <point x="28.25" y="60" type="curve"/>
      <point x="82.25" y="20"/>
      <point x="127.25" y="-5"/>
      <point x="195.25" y="-5" type="curve"/>
      <point x="338.25" y="-5"/>
      <point x="427.25" y="69"/>
      <point x="427.25" y="209" type="curve"/>
      <point x="427.25" y="332"/>
      <point x="313.25" y="407"/>
      <point x="129.25" y="407" type="curve"/>
      <point x="129.25" y="314"/>
      <point x="129.25" y="407"/>
      <point x="129.25" y="314" type="curve"/>
      <point x="224.25" y="314"/>
      <point x="290.25" y="268"/>
      <point x="290.25" y="204" type="curve"/>
      <point x="290.25" y="147"/>
      <point x="254.25" y="111"/>
      <point x="201.25" y="111" type="curve"/>
      <point x="164.25" y="111"/>
      <point x="137.25" y="122"/>
      <point x="106.25" y="143" type="curve"/>
    </contour>
    <contour>
      <point x="119.25" y="562"/>
      <point x="28.25" y="633"/>
      <point x="119.25" y="562" type="curve"/>
      <point x="133.25" y="583"/>
      <point x="158.25" y="612"/>
      <point x="192.25" y="612" type="curve"/>
      <point x="241.25" y="612"/>
      <point x="266.25" y="578"/>
      <point x="266.25" y="525" type="curve"/>
      <point x="266.25" y="470"/>
      <point x="212.25" y="428"/>
      <point x="129.25" y="428" type="curve"/>
      <point x="129.25" y="335"/>
      <point x="129.25" y="428"/>
      <point x="129.25" y="335" type="curve"/>
      <point x="288.25" y="335"/>
      <point x="401.25" y="407"/>
      <point x="401.25" y="529" type="curve"/>
      <point x="401.25" y="654"/>
      <point x="326.25" y="727"/>
      <point x="205.25" y="727" type="curve"/>
      <point x="127.25" y="727"/>
      <point x="60.25" y="684"/>
      <point x="28.25" y="633" type="curve"/>
    </contour>
  </outline>
</glyph>
<glyph name="four" format="1">
  <advance width="490.0"/>
  <unicode hex="0034"/>
  <outline>
    <contour>
      <point x="65.0" y="248" type="line"/>
      <point x="359.0" y="693" type="line"/>
      <point x="241.0" y="696" type="line"/>
      <point x="8.0" y="348" type="line"/>
    </contour>
    <contour>
      <point x="460.0" y="348" type="line"/>
      <point x="8.0" y="348" type="line"/>
      <point x="9.0" y="226" type="line"/>
      <point x="460.0" y="226" type="line"/>
    </contour>
    <contour>
      <point x="384.0" y="0" type="line"/>
      <point x="384.0" y="696" type="line"/>
      <point x="244.0" y="696" type="line"/>
      <point x="244.0" y="0" type="line"/>
    </contour>
  </outline>
</glyph>
<glyph name="five" format="1">
  <advance width="460.75"/>
  <unicode hex="0035"/>
  <outline>
    <contour>
      <point x="48.0" y="722"/>
      <point x="184.0" y="612"/>
      <point x="48.0" y="722" type="curve"/>
      <point x="48.0" y="625"/>
      <point x="48.0" y="517"/>
      <point x="48.0" y="378" type="curve"/>
      <point x="185.0" y="335"/>
      <point x="48.0" y="378"/>
      <point x="184.0" y="335" type="curve"/>
      <point x="184.0" y="424"/>
      <point x="184.0" y="523"/>
      <point x="184.0" y="612" type="curve"/>
    </contour>
    <contour>
      <point x="188.0" y="345"/>
      <point x="81.0" y="368"/>
      <point x="184.0" y="335" type="curve"/>
      <point x="191.0" y="343"/>
      <point x="204.0" y="352"/>
      <point x="226.0" y="352" type="curve"/>
      <point x="279.0" y="352"/>
      <point x="291.0" y="301"/>
      <point x="291.0" y="240" type="curve"/>
      <point x="291.0" y="173"/>
      <point x="265.0" y="110"/>
      <point x="207.0" y="110" type="curve"/>
      <point x="167.0" y="110"/>
      <point x="140.0" y="120"/>
      <point x="108.0" y="142" type="curve"/>
      <point x="37.0" y="43"/>
      <point x="108.0" y="142"/>
      <point x="37.0" y="43" type="curve"/>
      <point x="80.0" y="13"/>
      <point x="147.0" y="-5"/>
      <point x="216.0" y="-5" type="curve"/>
      <point x="341.0" y="-5"/>
      <point x="429.0" y="100"/>
      <point x="429.0" y="242" type="curve"/>
      <point x="429.0" y="372"/>
      <point x="366.0" y="470"/>
      <point x="247.0" y="470" type="curve"/>
      <point x="192.0" y="470"/>
      <point x="145.0" y="452"/>
      <point x="85.0" y="378" type="curve"/>
    </contour>
    <contour>
      <point x="402.0" y="722"/>
      <point x="402.0" y="612"/>
      <point x="402.0" y="722" type="curve"/>
      <point x="297.0" y="722"/>
      <point x="153.0" y="722"/>
      <point x="48.0" y="722" type="curve"/>
      <point x="184.0" y="612"/>
      <point x="48.0" y="722"/>
      <point x="184.0" y="612" type="curve"/>
      <point x="244.0" y="612"/>
      <point x="342.0" y="612"/>
      <point x="402.0" y="612" type="curve"/>
    </contour>
  </outline>
</glyph>
<glyph name="six" format="1">
  <advance width="510.0"/>
  <unicode hex="0036"/>
  <outline>
    <contour>
      <point x="151.0" y="209"/>
      <point x="84.0" y="237"/>
      <point x="151.0" y="209" type="curve"/>
      <point x="168.0" y="280"/>
      <point x="200.0" y="335"/>
      <point x="263.0" y="335" type="curve"/>
      <point x="321.0" y="335"/>
      <point x="338.0" y="288"/>
      <point x="338.0" y="226" type="curve"/>
      <point x="338.0" y="167"/>
      <point x="319.0" y="120"/>
      <point x="266.0" y="120" type="curve"/>
      <point x="197.0" y="120"/>
      <point x="171.0" y="180"/>
      <point x="171.0" y="260" type="curve"/>
      <point x="171.0" y="446"/>
      <point x="263.0" y="560"/>
      <point x="449.0" y="625" type="curve"/>
      <point x="410.0" y="728"/>
      <point x="449.0" y="625"/>
      <point x="410.0" y="728" type="curve"/>
      <point x="172.0" y="648"/>
      <point x="34.0" y="502"/>
      <point x="34.0" y="254" type="curve"/>
      <point x="34.0" y="96"/>
      <point x="114.0" y="-12"/>
      <point x="264.0" y="-12" type="curve"/>
      <point x="403.0" y="-12"/>
      <point x="481.0" y="83"/>
      <point x="481.0" y="226" type="curve"/>
      <point x="481.0" y="363"/>
      <point x="411.0" y="451"/>
      <point x="289.0" y="451" type="curve"/>
      <point x="159.0" y="451"/>
      <point x="89.0" y="323"/>
      <point x="84.0" y="237" type="curve"/>
    </contour>
  </outline>
</glyph>
<glyph name="eight" format="1">
  <advance width="509.0"/>
  <unicode hex="0038"/>
  <outline>
    <contour>
      <point x="53.0" y="536"/>
      <point x="192.0" y="536"/>
      <point x="53.0" y="536" type="curve"/>
      <point x="53.0" y="432"/>
      <point x="121.0" y="390"/>
      <point x="213.0" y="338" type="curve"/>
      <point x="281.0" y="298"/>
      <point x="331.0" y="265"/>
      <point x="331.0" y="195" type="curve"/>
      <point x="331.0" y="144"/>
      <point x="307.0" y="111"/>
      <point x="256.0" y="111" type="curve"/>
      <point x="203.0" y="111"/>
      <point x="178.0" y="143"/>
      <point x="178.0" y="195" type="curve"/>
      <point x="178.0" y="267"/>
      <point x="229.0" y="296"/>
      <point x="298.0" y="337" type="curve"/>
      <point x="387.0" y="390"/>
      <point x="456.0" y="432"/>
      <point x="456.0" y="534" type="curve"/>
      <point x="456.0" y="659"/>
      <point x="383.0" y="727"/>
      <point x="256.0" y="727" type="curve"/>
      <point x="131.0" y="727"/>
      <point x="53.0" y="658"/>
      <point x="53.0" y="536" type="curve"/>
      <point x="192.0" y="536"/>
      <point x="53.0" y="536"/>
      <point x="192.0" y="536" type="curve"/>
      <point x="192.0" y="579"/>
      <point x="208.0" y="612"/>
      <point x="252.0" y="612" type="curve"/>
      <point x="297.0" y="612"/>
      <point x="317.0" y="581"/>
      <point x="317.0" y="534" type="curve"/>
      <point x="317.0" y="474"/>
      <point x="270.0" y="449"/>
      <point x="212.0" y="416" type="curve"/>
      <point x="111.0" y="357"/>
      <point x="39.0" y="309"/>
      <point x="39.0" y="195" type="curve"/>
      <point x="39.0" y="66"/>
      <point x="118.0" y="-5"/>
      <point x="249.0" y="-5" type="curve"/>
      <point x="384.0" y="-5"/>
      <point x="470.0" y="64"/>
      <point x="470.0" y="195" type="curve"/>
      <point x="470.0" y="308"/>
      <point x="398.0" y="359"/>
      <point x="299.0" y="417" type="curve"/>
      <point x="240.0" y="452"/>
      <point x="192.0" y="474"/>
      <point x="192.0" y="536" type="curve"/>
    </contour>
  </outline>
</glyph>
<glyph name="nine" format="1">
  <advance width="508.875"/>
  <unicode hex="0039"/>
  <outline>
    <contour>
      <point x="368.0" y="475"/>
      <point x="436.0" y="448"/>
      <point x="368.0" y="475" type="curve"/>
      <point x="344.0" y="409"/>
      <point x="312.0" y="387"/>
      <point x="250.0" y="387" type="curve"/>
      <point x="191.0" y="387"/>
      <point x="164.0" y="437"/>
      <point x="164.0" y="502" type="curve"/>
      <point x="164.0" y="558"/>
      <point x="189.0" y="602"/>
      <point x="239.0" y="602" type="curve"/>
      <point x="311.0" y="602"/>
      <point x="337.0" y="542"/>
      <point x="337.0" y="462" type="curve"/>
      <point x="337.0" y="276"/>
      <point x="247.0" y="158"/>
      <point x="71.0" y="94" type="curve"/>
      <point x="126.0" y="-15"/>
      <point x="71.0" y="94"/>
      <point x="126.0" y="-15" type="curve"/>
      <point x="330.0" y="58"/>
      <point x="473.0" y="220"/>
      <point x="473.0" y="468" type="curve"/>
      <point x="473.0" y="626"/>
      <point x="394.0" y="734"/>
      <point x="244.0" y="734" type="curve"/>
      <point x="105.0" y="734"/>
      <point x="27.0" y="639"/>
      <point x="27.0" y="496" type="curve"/>
      <point x="27.0" y="359"/>
      <point x="104.0" y="271"/>
      <point x="237.0" y="271" type="curve"/>
      <point x="350.0" y="271"/>
      <point x="409.0" y="376"/>
      <point x="436.0" y="448" type="curve"/>
    </contour>
  </outline>
</glyph>
<glyph name="colon" format="1">
  <advance width="247.65"/>
  <unicode hex="003A"/>
  <outline>
    <contour>
      <point x="197.7" y="361"/>
      <point x="49.7" y="361"/>
      <point x="197.7" y="361" type="curve"/>
      <point x="197.7" y="409"/>
      <point x="165.7" y="433"/>
      <point x="122.7" y="433" type="curve"/>
      <point x="78.7" y="433"/>
      <point x="49.7" y="407"/>
      <point x="49.7" y="361" type="curve"/>
      <point x="197.7" y="361"/>
      <point x="49.7" y="361"/>
      <point x="197.7" y="361" type="curve"/>
      <point x="197.7" y="312"/>
      <point x="166.7" y="290"/>
      <point x="122.7" y="290" type="curve"/>
      <point x="77.7" y="290"/>
      <point x="49.7" y="314"/>
      <point x="49.7" y="361" type="curve"/>
    </contour>
    <contour>
      <point x="197.7" y="66"/>
      <point x="49.7" y="66"/>
      <point x="197.7" y="66" type="curve"/>
      <point x="197.7" y="114"/>
      <point x="165.7" y="138"/>
      <point x="122.7" y="138" type="curve"/>
      <point x="78.7" y="138"/>
      <point x="49.7" y="112"/>
      <point x="49.7" y="66" type="curve"/>
      <point x="197.7" y="66"/>
      <point x="49.7" y="66"/>
      <point x="197.7" y="66" type="curve"/>
      <point x="197.7" y="17"/>
      <point x="166.7" y="-5"/>
      <point x="122.7" y="-5" type="curve"/>
      <point x="77.7" y="-5"/>
      <point x="49.7" y="19"/>
      <point x="49.7" y="66" type="curve"/>
    </contour>
  </outline>
</glyph>
<glyph name="semicolon" format="1">
  <advance width="234.0"/>
  <unicode hex="003B"/>
  <outline>
    <contour>
      <point x="9.0" y="-216" type="line"/>
      <point x="115.0" y="-216"/>
      <point x="184.0" y="-146"/>
      <point x="184.0" y="-39" type="curve"/>
      <point x="184.0" y="50"/>
      <point x="147.0" y="96"/>
      <point x="96.0" y="96" type="curve"/>
      <point x="48.0" y="96"/>
      <point x="16.0" y="71"/>
      <point x="16.0" y="24" type="curve"/>
      <point x="16.0" y="-14"/>
      <point x="39.0" y="-44"/>
      <point x="82.0" y="-44" type="curve"/>
      <point x="82.0" y="-71"/>
      <point x="80.0" y="-126"/>
      <point x="9.0" y="-138" type="curve"/>
    </contour>
    <contour>
      <point x="169.0" y="376"/>
      <point x="21.0" y="376"/>
      <point x="169.0" y="376" type="curve"/>
      <point x="169.0" y="424"/>
      <point x="137.0" y="448"/>
      <point x="94.0" y="448" type="curve"/>
      <point x="50.0" y="448"/>
      <point x="21.0" y="422"/>
      <point x="21.0" y="376" type="curve"/>
      <point x="169.0" y="376"/>
      <point x="21.0" y="376"/>
      <point x="169.0" y="376" type="curve"/>
      <point x="169.0" y="327"/>
      <point x="138.0" y="305"/>
      <point x="94.0" y="305" type="curve"/>
      <point x="49.0" y="305"/>
      <point x="21.0" y="329"/>
      <point x="21.0" y="376" type="curve"/>
    </contour>
  </outline>
</glyph>
<glyph name="less" format="1">
  <advance width="531.75"/>
  <unicode hex="003C"/>
  <outline>
    <contour>
      <point x="480.5" y="631"/>
      <point x="480.5" y="509"/>
      <point x="480.5" y="631" type="curve"/>
      <point x="328.5" y="541"/>
      <point x="176.5" y="451"/>
      <point x="24.5" y="361" type="curve"/>
      <point x="24.5" y="239"/>
      <point x="24.5" y="361"/>
      <point x="24.5" y="239" type="curve"/>
      <point x="176.5" y="329"/>
      <point x="328.5" y="419"/>
      <point x="480.5" y="509" type="curve"/>
    </contour>
    <contour>
      <point x="488.5" y="97"/>
      <point x="488.5" y="-25"/>
      <point x="488.5" y="97" type="curve"/>
      <point x="333.5" y="185"/>
      <point x="178.5" y="273"/>
      <point x="24.5" y="361" type="curve"/>
      <point x="24.5" y="239"/>
      <point x="24.5" y="361"/>
      <point x="24.5" y="239" type="curve"/>
      <point x="178.5" y="151"/>
      <point x="333.5" y="63"/>
      <point x="488.5" y="-25" type="curve"/>
    </contour>
  </outline>
</glyph>
<glyph name="equal" format="1">
  <advance width="574.25"/>
  <unicode hex="003D"/>
  <outline>
    <contour>
      <point x="51.5" y="159"/>
      <point x="51.5" y="276"/>
      <point x="51.5" y="159" type="curve"/>
      <point x="208.5" y="159"/>
      <point x="365.5" y="159"/>
      <point x="522.5" y="159" type="curve"/>
      <point x="522.5" y="276"/>
      <point x="522.5" y="159"/>
      <point x="522.5" y="276" type="curve"/>
      <point x="365.5" y="276"/>
      <point x="208.5" y="276"/>
      <point x="51.5" y="276" type="curve"/>
    </contour>
    <contour>
      <point x="51.5" y="381"/>
      <point x="51.5" y="498"/>
      <point x="51.5" y="381" type="curve"/>
      <point x="208.5" y="381"/>
      <point x="365.5" y="381"/>
      <point x="522.5" y="381" type="curve"/>
      <point x="522.5" y="498"/>
      <point x="522.5" y="381"/>
      <point x="522.5" y="498" type="curve"/>
      <point x="365.5" y="498"/>
      <point x="208.5" y="498"/>
      <point x="51.5" y="498" type="curve"/>
    </contour>
  </outline>
</glyph>
<glyph name="greater" format="1">
  <advance width="533.75"/>
  <unicode hex="003E"/>
  <outline>
    <contour>
      <point x="50.75" y="-25"/>
      <point x="50.75" y="97"/>
      <point x="50.75" y="-25" type="curve"/>
      <point x="202.75" y="65"/>
      <point x="355.75" y="155"/>
      <point x="507.75" y="245" type="curve"/>
      <point x="507.75" y="367"/>
      <point x="507.75" y="245"/>
      <point x="507.75" y="367" type="curve"/>
      <point x="355.75" y="277"/>
      <point x="202.75" y="187"/>
      <point x="50.75" y="97" type="curve"/>
    </contour>
    <contour>
      <point x="43.75" y="509"/>
      <point x="43.75" y="631"/>
      <point x="43.75" y="509" type="curve"/>
      <point x="197.75" y="421"/>
      <point x="352.75" y="333"/>
      <point x="507.75" y="245" type="curve"/>
      <point x="507.75" y="367"/>
      <point x="507.75" y="245"/>
      <point x="507.75" y="367" type="curve"/>
      <point x="352.75" y="455"/>
      <point x="197.75" y="543"/>
      <point x="43.75" y="631" type="curve"/>
    </contour>
  </outline>
</glyph>
<glyph name="question" format="1">
  <advance width="474.0"/>
  <unicode hex="003F"/>
  <outline>
    <contour>
      <point x="171.0" y="380"/>
      <point x="301.0" y="380"/>
      <point x="171.0" y="380" type="curve"/>
      <point x="171.0" y="343"/>
      <point x="171.0" y="258"/>
      <point x="171.0" y="221" type="curve"/>
      <point x="301.0" y="221"/>
      <point x="171.0" y="221"/>
      <point x="301.0" y="221" type="curve"/>
      <point x="301.0" y="258"/>
      <point x="301.0" y="343"/>
      <point x="301.0" y="380" type="curve"/>
    </contour>
    <contour>
      <point x="111.0" y="581" type="line"/>
      <point x="143.0" y="615"/>
      <point x="171.0" y="634"/>
      <point x="215.0" y="634" type="curve"/>
      <point x="279.0" y="634"/>
      <point x="312.0" y="585"/>
      <point x="312.0" y="518" type="curve"/>
      <point x="312.0" y="436"/>
      <point x="265.0" y="380"/>
      <point x="185.0" y="380" type="curve"/>
      <point x="185.0" y="341"/>
      <point x="184.0" y="313"/>
      <point x="184.0" y="274" type="curve"/>
      <point x="344.0" y="274"/>
      <point x="448.0" y="367"/>
      <point x="448.0" y="518" type="curve"/>
      <point x="448.0" y="664"/>
      <point x="357.0" y="752"/>
      <point x="221.0" y="752" type="curve"/>
      <point x="142.0" y="752"/>
      <point x="81.0" y="727"/>
      <point x="36.0" y="672" type="curve"/>
    </contour>
    <contour>
      <point x="311.0" y="62"/>
      <point x="163.0" y="62"/>
      <point x="311.0" y="62" type="curve"/>
      <point x="311.0" y="110"/>
      <point x="279.0" y="134"/>
      <point x="236.0" y="134" type="curve"/>
      <point x="192.0" y="134"/>
      <point x="163.0" y="108"/>
      <point x="163.0" y="62" type="curve"/>
      <point x="311.0" y="62"/>
      <point x="163.0" y="62"/>
      <point x="311.0" y="62" type="curve"/>
      <point x="311.0" y="13"/>
      <point x="280.0" y="-9"/>
      <point x="236.0" y="-9" type="curve"/>
      <point x="191.0" y="-9"/>
      <point x="163.0" y="15"/>
      <point x="163.0" y="62" type="curve"/>
    </contour>
  </outline>
</glyph>
<glyph name="at" format="1">
  <advance width="709.0"/>
  <unicode hex="0040"/>
  <outline>
    <contour>
      <point x="460.0" y="-4"/>
      <point x="515.0" y="-98"/>
      <point x="460.0" y="-4" type="curve"/>
      <point x="430.0" y="-23"/>
      <point x="407.0" y="-31"/>
      <point x="371.0" y="-31" type="curve"/>
      <point x="239.0" y="-31"/>
      <point x="159.0" y="71"/>
      <point x="159.0" y="214" type="curve"/>
      <point x="159.0" y="350"/>
      <point x="233.0" y="447"/>
      <point x="359.0" y="447" type="curve"/>
      <point x="481.0" y="447"/>
      <point x="553.0" y="348"/>
      <point x="553.0" y="213" type="curve"/>
      <point x="553.0" y="167"/>
      <point x="554.0" y="127"/>
      <point x="537.0" y="127" type="curve"/>
      <point x="523.0" y="127"/>
      <point x="524.0" y="167"/>
      <point x="524.0" y="218" type="curve"/>
      <point x="524.0" y="332"/>
      <point x="465.0" y="412"/>
      <point x="357.0" y="412" type="curve"/>
      <point x="238.0" y="412"/>
      <point x="189.0" y="335"/>
      <point x="189.0" y="214" type="curve"/>
      <point x="189.0" y="92"/>
      <point x="233.0" y="10"/>
      <point x="346.0" y="10" type="curve"/>
      <point x="448.0" y="10"/>
      <point x="491.0" y="88"/>
      <point x="504.0" y="198" type="curve"/>
      <point x="413.0" y="220"/>
      <point x="504.0" y="198"/>
      <point x="413.0" y="220" type="curve"/>
      <point x="403.0" y="170"/>
      <point x="409.0" y="120"/>
      <point x="361.0" y="120" type="curve"/>
      <point x="325.0" y="120"/>
      <point x="315.0" y="165"/>
      <point x="315.0" y="220" type="curve"/>
      <point x="315.0" y="263"/>
      <point x="317.0" y="301"/>
      <point x="351.0" y="301" type="curve"/>
      <point x="395.0" y="301"/>
      <point x="394.0" y="261"/>
      <point x="394.0" y="212" type="curve"/>
      <point x="394.0" y="104"/>
      <point x="428.0" y="22"/>
      <point x="526.0" y="22" type="curve"/>
      <point x="630.0" y="22"/>
      <point x="672.0" y="104"/>
      <point x="672.0" y="219" type="curve"/>
      <point x="672.0" y="425"/>
      <point x="559.0" y="562"/>
      <point x="362.0" y="562" type="curve"/>
      <point x="152.0" y="562"/>
      <point x="34.0" y="424"/>
      <point x="34.0" y="208" type="curve"/>
      <point x="34.0" y="-5"/>
      <point x="158.0" y="-142"/>
      <point x="365.0" y="-142" type="curve"/>
      <point x="428.0" y="-142"/>
      <point x="462.0" y="-132"/>
      <point x="515.0" y="-98" type="curve"/>
    </contour>
  </outline>
</glyph>
<glyph name="B" format="1">
  <advance width="540.0"/>
  <unicode hex="0042"/>
  <outline>
    <contour>
      <point x="130.0" y="680"/>
      <point x="130.0" y="654"/>
      <point x="130.0" y="612" type="curve"/>
      <point x="180.0" y="612"/>
      <point x="213.0" y="612"/>
      <point x="263.0" y="612" type="curve"/>
      <point x="312.0" y="612"/>
      <point x="331.0" y="580"/>
      <point x="331.0" y="536" type="curve"/>
      <point x="331.0" y="492"/>
      <point x="312.0" y="459"/>
      <point x="267.0" y="459" type="curve"/>
      <point x="216.0" y="459"/>
      <point x="181.0" y="459"/>
      <point x="130.0" y="459" type="curve"/>
      <point x="130.0" y="417"/>
      <point x="130.0" y="390"/>
      <point x="130.0" y="348" type="curve"/>
      <point x="164.0" y="348"/>
      <point x="186.0" y="348"/>
      <point x="220.0" y="348" type="curve"/>
      <point x="338.0" y="348"/>
      <point x="472.0" y="398"/>
      <point x="472.0" y="530" type="curve"/>
      <point x="472.0" y="652"/>
      <point x="397.0" y="722"/>
      <point x="273.0" y="722" type="curve"/>
      <point x="219.0" y="722"/>
      <point x="184.0" y="722"/>
      <point x="130.0" y="722" type="curve"/>
    </contour>
    <contour>
      <point x="213.0" y="0"/>
      <point x="64.0" y="0"/>
      <point x="213.0" y="0" type="curve"/>
      <point x="213.0" y="241"/>
      <point x="213.0" y="481"/>
      <point x="213.0" y="722" type="curve"/>
      <point x="64.0" y="722"/>
      <point x="213.0" y="722"/>
      <point x="64.0" y="722" type="curve"/>
      <point x="64.0" y="481"/>
      <point x="64.0" y="241"/>
      <point x="64.0" y="0" type="curve"/>
    </contour>
    <contour>
      <point x="130.0" y="417"/>
      <point x="130.0" y="390"/>
      <point x="130.0" y="348" type="curve"/>
      <point x="181.0" y="348"/>
      <point x="216.0" y="348"/>
      <point x="267.0" y="348" type="curve"/>
      <point x="338.0" y="348"/>
      <point x="366.0" y="297"/>
      <point x="366.0" y="228" type="curve"/>
      <point x="366.0" y="159"/>
      <point x="336.0" y="110"/>
      <point x="268.0" y="110" type="curve"/>
      <point x="216.0" y="110"/>
      <point x="182.0" y="110"/>
      <point x="130.0" y="110" type="curve"/>
      <point x="130.0" y="68"/>
      <point x="130.0" y="42"/>
      <point x="130.0" y="0" type="curve"/>
      <point x="186.0" y="0"/>
      <point x="222.0" y="0"/>
      <point x="278.0" y="0" type="curve"/>
      <point x="421.0" y="0"/>
      <point x="509.0" y="82"/>
      <point x="509.0" y="224" type="curve"/>
      <point x="509.0" y="383"/>
      <point x="376.0" y="459"/>
      <point x="220.0" y="459" type="curve"/>
      <point x="186.0" y="459"/>
      <point x="164.0" y="459"/>
      <point x="130.0" y="459" type="curve"/>
    </contour>
  </outline>
</glyph>
<glyph name="C" format="1">
  <advance width="561.0"/>
  <unicode hex="0043"/>
  <outline>
    <contour>
      <point x="543.0" y="654"/>
      <point x="465.0" y="566"/>
      <point x="543.0" y="654" type="curve"/>
      <point x="485.0" y="697"/>
      <point x="415.0" y="727"/>
      <point x="335.0" y="727" type="curve"/>
      <point x="132.0" y="727"/>
      <point x="36.0" y="571"/>
      <point x="36.0" y="345" type="curve"/>
      <point x="36.0" y="138"/>
      <point x="129.0" y="-5"/>
      <point x="321.0" y="-5" type="curve"/>
      <point x="424.0" y="-5"/>
      <point x="494.0" y="29"/>
      <point x="555.0" y="99" type="curve"/>
      <point x="472.0" y="181"/>
      <point x="555.0" y="99"/>
      <point x="472.0" y="181" type="curve"/>
      <point x="428.0" y="138"/>
      <point x="390.0" y="110"/>
      <point x="328.0" y="110" type="curve"/>
      <point x="211.0" y="110"/>
      <point x="179.0" y="216"/>
      <point x="179.0" y="350" type="curve"/>
      <point x="179.0" y="496"/>
      <point x="208.0" y="612"/>
      <point x="330.0" y="612" type="curve"/>
      <point x="382.0" y="612"/>
      <point x="428.0" y="594"/>
      <point x="465.0" y="566" type="curve"/>
    </contour>
    <contour>
      <point x="327.0" y="780" type="move" name="top"/>
    </contour>
    <contour>
      <point x="364.0" y="5" type="move" name="bottom"/>
    </contour>
  </outline>
</glyph>
<glyph name="D" format="1">
  <advance width="622.0"/>
  <unicode hex="0044"/>
  <outline>
    <contour>
      <point x="64.0" y="722"/>
      <point x="207.0" y="722"/>
      <point x="64.0" y="722" type="curve"/>
      <point x="64.0" y="481"/>
      <point x="64.0" y="241"/>
      <point x="64.0" y="0" type="curve"/>
      <point x="207.0" y="0"/>
      <point x="64.0" y="0"/>
      <point x="207.0" y="0" type="curve"/>
      <point x="207.0" y="241"/>
      <point x="207.0" y="481"/>
      <point x="207.0" y="722" type="curve"/>
    </contour>
    <contour>
      <point x="137.0" y="0"/>
      <point x="137.0" y="110"/>
      <point x="137.0" y="0" type="curve"/>
      <point x="185.0" y="0"/>
      <point x="233.0" y="0"/>
      <point x="282.0" y="0" type="curve"/>
      <point x="491.0" y="0"/>
      <point x="586.0" y="134"/>
      <point x="586.0" y="354" type="curve"/>
      <point x="586.0" y="581"/>
      <point x="494.0" y="722"/>
      <point x="280.0" y="722" type="curve"/>
      <point x="233.0" y="722"/>
      <point x="185.0" y="722"/>
      <point x="137.0" y="722" type="curve"/>
      <point x="137.0" y="612"/>
      <point x="137.0" y="722"/>
      <point x="137.0" y="612" type="curve"/>
      <point x="183.0" y="612"/>
      <point x="228.0" y="612"/>
      <point x="274.0" y="612" type="curve"/>
      <point x="410.0" y="612"/>
      <point x="443.0" y="504"/>
      <point x="443.0" y="352" type="curve"/>
      <point x="443.0" y="212"/>
      <point x="416.0" y="110"/>
      <point x="295.0" y="110" type="curve"/>
      <point x="242.0" y="110"/>
      <point x="190.0" y="110"/>
      <point x="137.0" y="110" type="curve"/>
    </contour>
    <contour>
      <point x="254.0" y="780" type="move" name="top"/>
    </contour>
  </outline>
</glyph>
<glyph name="F" format="1">
  <advance width="457.0"/>
  <unicode hex="0046"/>
  <outline>
    <contour>
      <point x="138.0" y="317"/>
      <point x="138.0" y="428"/>
      <point x="138.0" y="317" type="curve"/>
      <point x="219.0" y="317"/>
      <point x="299.0" y="317"/>
      <point x="380.0" y="317" type="curve"/>
      <point x="380.0" y="428"/>
      <point x="380.0" y="317"/>
      <point x="380.0" y="428" type="curve"/>
      <point x="299.0" y="428"/>
      <point x="219.0" y="428"/>
      <point x="138.0" y="428" type="curve"/>
    </contour>
    <contour>
      <point x="207.0" y="0"/>
      <point x="64.0" y="0"/>
      <point x="207.0" y="0" type="curve"/>
      <point x="207.0" y="0"/>
      <point x="207.0" y="722"/>
      <point x="207.0" y="722" type="curve"/>
      <point x="64.0" y="722"/>
      <point x="207.0" y="722"/>
      <point x="64.0" y="722" type="curve"/>
      <point x="64.0" y="481"/>
      <point x="64.0" y="241"/>
      <point x="64.0" y="0" type="curve"/>
    </contour>
    <contour>
      <point x="127.0" y="612"/>
      <point x="127.0" y="722"/>
      <point x="127.0" y="612" type="curve"/>
      <point x="229.0" y="612"/>
      <point x="332.0" y="612"/>
      <point x="435.0" y="612" type="curve"/>
      <point x="435.0" y="722"/>
      <point x="435.0" y="612"/>
      <point x="435.0" y="722" type="curve"/>
      <point x="332.0" y="722"/>
      <point x="229.0" y="722"/>
      <point x="127.0" y="722" type="curve"/>
    </contour>
  </outline>
</glyph>
<glyph name="G" format="1">
  <advance width="636.375"/>
  <unicode hex="0047"/>
  <outline>
    <contour>
      <point x="557.75" y="370"/>
      <point x="557.75" y="260"/>
      <point x="557.75" y="370" type="curve"/>
      <point x="502.75" y="370"/>
      <point x="447.75" y="370"/>
      <point x="392.75" y="370" type="curve"/>
      <point x="392.75" y="260"/>
      <point x="392.75" y="370"/>
      <point x="392.75" y="260" type="curve"/>
      <point x="447.75" y="260"/>
      <point x="502.75" y="260"/>
      <point x="557.75" y="260" type="curve"/>
    </contour>
    <contour>
      <point x="594.75" y="79"/>
      <point x="464.75" y="79"/>
      <point x="594.75" y="79" type="curve"/>
      <point x="594.75" y="176"/>
      <point x="594.75" y="273"/>
      <point x="594.75" y="370" type="curve"/>
      <point x="464.75" y="370"/>
      <point x="594.75" y="370"/>
      <point x="464.75" y="370" type="curve"/>
      <point x="464.75" y="273"/>
      <point x="464.75" y="176"/>
      <point x="464.75" y="79" type="curve"/>
    </contour>
    <contour>
      <point x="582.75" y="645"/>
      <point x="510.75" y="551"/>
      <point x="582.75" y="645" type="curve"/>
      <point x="508.75" y="702"/>
      <point x="436.75" y="727"/>
      <point x="343.75" y="727" type="curve"/>
      <point x="137.75" y="727"/>
      <point x="34.75" y="580"/>
      <point x="34.75" y="360" type="curve"/>
      <point x="34.75" y="139"/>
      <point x="143.75" y="-5"/>
      <point x="351.75" y="-5" type="curve"/>
      <point x="450.75" y="-5"/>
      <point x="512.75" y="24"/>
      <point x="594.75" y="79" type="curve"/>
      <point x="523.75" y="162"/>
      <point x="594.75" y="79"/>
      <point x="523.75" y="162" type="curve"/>
      <point x="466.75" y="124"/>
      <point x="419.75" y="111"/>
      <point x="351.75" y="111" type="curve"/>
      <point x="220.75" y="111"/>
      <point x="177.75" y="222"/>
      <point x="177.75" y="371" type="curve"/>
      <point x="177.75" y="508"/>
      <point x="221.75" y="612"/>
      <point x="343.75" y="612" type="curve"/>
      <point x="408.75" y="612"/>
      <point x="458.75" y="591"/>
      <point x="510.75" y="551" type="curve"/>
    </contour>
    <contour>
      <point x="339.75" y="780" type="move" name="top"/>
    </contour>
    <contour>
      <point x="389.75" y="0" type="move" name="bottom"/>
    </contour>
  </outline>
</glyph>
<glyph name="H" format="1">
  <advance width="640.0"/>
  <unicode hex="0048"/>
  <outline>
    <contour>
      <point x="207.0" y="0"/>
      <point x="64.0" y="0"/>
      <point x="207.0" y="0" type="curve"/>
      <point x="207.0" y="0"/>
      <point x="207.0" y="722"/>
      <point x="207.0" y="722" type="curve"/>
      <point x="64.0" y="722"/>
      <point x="207.0" y="722"/>
      <point x="64.0" y="722" type="curve"/>
      <point x="64.0" y="481"/>
      <point x="64.0" y="241"/>
      <point x="64.0" y="0" type="curve"/>
    </contour>
    <contour>
      <point x="503.0" y="418"/>
      <point x="503.0" y="307"/>
      <point x="503.0" y="418" type="curve"/>
      <point x="380.0" y="418"/>
      <point x="258.0" y="418"/>
      <point x="135.0" y="418" type="curve"/>
      <point x="135.0" y="307"/>
      <point x="135.0" y="418"/>
      <point x="135.0" y="307" type="curve"/>
      <point x="258.0" y="307"/>
      <point x="380.0" y="307"/>
      <point x="503.0" y="307" type="curve"/>
    </contour>
    <contour>
      <point x="576.0" y="0"/>
      <point x="433.0" y="0"/>
      <point x="576.0" y="0" type="curve"/>
      <point x="576.0" y="209"/>
      <point x="576.0" y="513"/>
      <point x="576.0" y="722" type="curve"/>
      <point x="433.0" y="722"/>
      <point x="576.0" y="722"/>
      <point x="433.0" y="722" type="curve"/>
      <point x="433.0" y="722"/>
      <point x="433.0" y="0"/>
      <point x="433.0" y="0" type="curve"/>
    </contour>
  </outline>
</glyph>
<glyph name="J" format="1">
  <advance width="376.0"/>
  <unicode hex="004A"/>
  <outline>
    <contour>
      <point x="-2.0" y="45"/>
      <point x="63.0" y="133"/>
      <point x="-2.0" y="45" type="curve"/>
      <point x="24.0" y="23"/>
      <point x="64.0" y="-4"/>
      <point x="115.0" y="-4" type="curve"/>
      <point x="253.0" y="-4"/>
      <point x="316.0" y="85"/>
      <point x="316.0" y="246" type="curve"/>
      <point x="316.0" y="403"/>
      <point x="316.0" y="564"/>
      <point x="316.0" y="722" type="curve"/>
      <point x="173.0" y="722"/>
      <point x="316.0" y="722"/>
      <point x="173.0" y="722" type="curve"/>
      <point x="173.0" y="564"/>
      <point x="173.0" y="403"/>
      <point x="173.0" y="246" type="curve"/>
      <point x="173.0" y="172"/>
      <point x="174.0" y="109"/>
      <point x="115.0" y="109" type="curve"/>
      <point x="92.0" y="109"/>
      <point x="80.0" y="121"/>
      <point x="63.0" y="133" type="curve"/>
    </contour>
  </outline>
</glyph>
<glyph name="K" format="1">
  <advance width="615.0"/>
  <unicode hex="004B"/>
  <outline>
    <contour>
      <point x="489.0" y="722"/>
      <point x="524.0" y="722"/>
      <point x="425.0" y="722" type="curve"/>
      <point x="192.0" y="380" type="line"/>
      <point x="344.0" y="380"/>
      <point x="206.0" y="380"/>
      <point x="358.0" y="380" type="curve"/>
      <point x="588.0" y="722" type="line"/>
    </contour>
    <contour>
      <point x="207.0" y="0"/>
      <point x="64.0" y="0"/>
      <point x="207.0" y="0" type="curve"/>
      <point x="207.0" y="0"/>
      <point x="207.0" y="722"/>
      <point x="207.0" y="722" type="curve"/>
      <point x="64.0" y="722"/>
      <point x="207.0" y="722"/>
      <point x="64.0" y="722" type="curve"/>
      <point x="64.0" y="481"/>
      <point x="64.0" y="241"/>
      <point x="64.0" y="0" type="curve"/>
    </contour>
    <contour>
      <point x="556.0" y="0"/>
      <point x="491.0" y="0"/>
      <point x="605.0" y="0" type="curve"/>
      <point x="358.0" y="380" type="line"/>
      <point x="206.0" y="380"/>
      <point x="344.0" y="380"/>
      <point x="192.0" y="380" type="curve"/>
      <point x="442.0" y="0" type="line"/>
    </contour>
    <contour>
      <point x="319.0" y="0" type="move" name="bottom"/>
    </contour>
  </outline>
</glyph>
<glyph name="L" format="1">
  <advance width="463.0"/>
  <unicode hex="004C"/>
  <outline>
    <contour>
      <point x="207.0" y="0"/>
      <point x="64.0" y="0"/>
      <point x="207.0" y="0" type="curve"/>
      <point x="207.0" y="241"/>
      <point x="207.0" y="481"/>
      <point x="207.0" y="722" type="curve"/>
      <point x="64.0" y="722"/>
      <point x="207.0" y="722"/>
      <point x="64.0" y="722" type="curve"/>
      <point x="64.0" y="481"/>
      <point x="64.0" y="241"/>
      <point x="64.0" y="0" type="curve"/>
    </contour>
    <contour>
      <point x="135.0" y="0"/>
      <point x="135.0" y="110"/>
      <point x="135.0" y="0" type="curve"/>
      <point x="240.0" y="0"/>
      <point x="346.0" y="0"/>
      <point x="451.0" y="0" type="curve"/>
      <point x="451.0" y="110"/>
      <point x="451.0" y="0"/>
      <point x="451.0" y="110" type="curve"/>
      <point x="346.0" y="110"/>
      <point x="240.0" y="110"/>
      <point x="135.0" y="110" type="curve"/>
    </contour>
    <contour>
      <point x="135.0" y="780" type="move" name="top"/>
    </contour>
    <contour>
      <point x="283.0" y="4" type="move" name="bottom"/>
    </contour>
  </outline>
</glyph>
<glyph name="M" format="1">
  <advance width="743.0"/>
  <unicode hex="004D"/>
  <outline>
    <contour>
      <point x="702.0" y="0"/>
      <point x="559.0" y="0"/>
      <point x="702.0" y="0" type="curve"/>
      <point x="686.0" y="241"/>
      <point x="665.0" y="481"/>
      <point x="650.0" y="722" type="curve"/>
      <point x="520.0" y="722"/>
      <point x="650.0" y="722"/>
      <point x="520.0" y="722" type="curve"/>
      <point x="535.0" y="481"/>
      <point x="544.0" y="241"/>
      <point x="559.0" y="0" type="curve"/>
    </contour>
    <contour>
      <point x="166.0" y="0"/>
      <point x="44.0" y="0"/>
      <point x="166.0" y="0" type="curve"/>
      <point x="180.0" y="241"/>
      <point x="194.0" y="481"/>
      <point x="208.0" y="722" type="curve"/>
      <point x="88.0" y="722"/>
      <point x="208.0" y="722"/>
      <point x="88.0" y="722" type="curve"/>
      <point x="73.0" y="481"/>
      <point x="59.0" y="241"/>
      <point x="44.0" y="0" type="curve"/>
    </contour>
    <contour>
      <point x="421.0" y="0"/>
      <point x="300.0" y="0"/>
      <point x="421.0" y="0" type="curve"/>
      <point x="351.0" y="241"/>
      <point x="280.0" y="481"/>
      <point x="210.0" y="722" type="curve"/>
      <point x="90.0" y="722"/>
      <point x="210.0" y="722"/>
      <point x="90.0" y="722" type="curve"/>
      <point x="160.0" y="481"/>
      <point x="230.0" y="241"/>
      <point x="300.0" y="0" type="curve"/>
    </contour>
    <contour>
      <point x="428.0" y="0"/>
      <point x="306.0" y="0"/>
      <point x="428.0" y="0" type="curve"/>
      <point x="497.0" y="241"/>
      <point x="566.0" y="481"/>
      <point x="634.0" y="722" type="curve"/>
      <point x="514.0" y="722"/>
      <point x="634.0" y="722"/>
      <point x="514.0" y="722" type="curve"/>
      <point x="445.0" y="481"/>
      <point x="375.0" y="241"/>
      <point x="306.0" y="0" type="curve"/>
    </contour>
  </outline>
</glyph>
<glyph name="N" format="1">
  <advance width="676.0"/>
  <unicode hex="004E"/>
  <outline>
    <contour>
      <point x="613.0" y="0"/>
      <point x="465.0" y="0"/>
      <point x="613.0" y="0" type="curve"/>
      <point x="479.0" y="241"/>
      <point x="345.0" y="481"/>
      <point x="212.0" y="722" type="curve"/>
      <point x="64.0" y="722"/>
      <point x="212.0" y="722"/>
      <point x="64.0" y="722" type="curve"/>
      <point x="197.0" y="481"/>
      <point x="331.0" y="241"/>
      <point x="465.0" y="0" type="curve"/>
    </contour>
    <contour>
      <point x="469.0" y="722"/>
      <point x="612.0" y="722"/>
      <point x="469.0" y="722" type="curve"/>
      <point x="469.0" y="481"/>
      <point x="469.0" y="241"/>
      <point x="469.0" y="0" type="curve"/>
      <point x="612.0" y="0"/>
      <point x="469.0" y="0"/>
      <point x="612.0" y="0" type="curve"/>
      <point x="612.0" y="241"/>
      <point x="612.0" y="481"/>
      <point x="612.0" y="722" type="curve"/>
    </contour>
    <contour>
      <point x="207.0" y="0"/>
      <point x="64.0" y="0"/>
      <point x="207.0" y="0" type="curve"/>
      <point x="207.0" y="241"/>
      <point x="207.0" y="481"/>
      <point x="207.0" y="722" type="curve"/>
      <point x="64.0" y="722"/>
      <point x="207.0" y="722"/>
      <point x="64.0" y="722" type="curve"/>
      <point x="64.0" y="481"/>
      <point x="64.0" y="241"/>
      <point x="64.0" y="0" type="curve"/>
    </contour>
    <contour>
      <point x="338.0" y="780" type="move" name="top"/>
    </contour>
    <contour>
      <point x="403.0" y="0" type="move" name="bottom"/>
    </contour>
  </outline>
</glyph>
<glyph name="P" format="1">
  <advance width="501.0"/>
  <unicode hex="0050"/>
  <outline>
    <contour>
      <point x="116.0" y="301"/>
      <point x="160.0" y="389"/>
      <point x="115.0" y="298" type="curve"/>
      <point x="165.0" y="268"/>
      <point x="218.0" y="252"/>
      <point x="280.0" y="252" type="curve"/>
      <point x="401.0" y="254"/>
      <point x="479.0" y="337"/>
      <point x="479.0" y="475" type="curve"/>
      <point x="479.0" y="622"/>
      <point x="387.0" y="722"/>
      <point x="243.0" y="722" type="curve"/>
      <point x="208.0" y="722"/>
      <point x="173.0" y="722"/>
      <point x="139.0" y="722" type="curve"/>
      <point x="139.0" y="612"/>
      <point x="139.0" y="722"/>
      <point x="139.0" y="612" type="curve"/>
      <point x="167.0" y="612"/>
      <point x="195.0" y="612"/>
      <point x="224.0" y="612" type="curve"/>
      <point x="297.0" y="612"/>
      <point x="336.0" y="555"/>
      <point x="336.0" y="480" type="curve"/>
      <point x="336.0" y="412"/>
      <point x="316.0" y="357"/>
      <point x="260.0" y="357" type="curve"/>
      <point x="220.0" y="357"/>
      <point x="194.0" y="369"/>
      <point x="160.0" y="389" type="curve"/>
    </contour>
    <contour>
      <point x="207.0" y="0"/>
      <point x="64.0" y="0"/>
      <point x="207.0" y="0" type="curve"/>
      <point x="207.0" y="241"/>
      <point x="207.0" y="481"/>
      <point x="207.0" y="722" type="curve"/>
      <point x="64.0" y="722"/>
      <point x="207.0" y="722"/>
      <point x="64.0" y="722" type="curve"/>
      <point x="64.0" y="481"/>
      <point x="64.0" y="241"/>
      <point x="64.0" y="0" type="curve"/>
    </contour>
  </outline>
</glyph>
<glyph name="Q" format="1">
  <advance width="649.0"/>
  <unicode hex="0051"/>
  <outline>
    <contour>
      <point x="270.0" y="27"/>
      <point x="393.0" y="82"/>
      <point x="270.0" y="27" type="curve"/>
      <point x="348.0" y="-141"/>
      <point x="455.0" y="-211"/>
      <point x="629.0" y="-211" type="curve"/>
      <point x="629.0" y="-95"/>
      <point x="629.0" y="-211"/>
      <point x="629.0" y="-95" type="curve"/>
      <point x="511.0" y="-95"/>
      <point x="448.0" y="-34"/>
      <point x="393.0" y="82" type="curve"/>
    </contour>
    <contour>
      <point x="179.0" y="360"/>
      <point x="36.0" y="360"/>
      <point x="179.0" y="360" type="curve"/>
      <point x="179.0" y="493"/>
      <point x="206.0" y="605"/>
      <point x="321.0" y="605" type="curve"/>
      <point x="438.0" y="605"/>
      <point x="471.0" y="495"/>
      <point x="471.0" y="360" type="curve"/>
      <point x="471.0" y="226"/>
      <point x="446.0" y="110"/>
      <point x="330.0" y="110" type="curve"/>
      <point x="211.0" y="111"/>
      <point x="179.0" y="224"/>
      <point x="179.0" y="360" type="curve"/>
      <point x="36.0" y="360"/>
      <point x="179.0" y="360"/>
      <point x="36.0" y="360" type="curve"/>
      <point x="36.0" y="151"/>
      <point x="131.0" y="-5"/>
      <point x="323.0" y="-5" type="curve"/>
      <point x="519.0" y="-5"/>
      <point x="614.0" y="154"/>
      <point x="614.0" y="366" type="curve"/>
      <point x="614.0" y="574"/>
      <point x="524.0" y="732"/>
      <point x="332.0" y="732" type="curve"/>
      <point x="135.0" y="732"/>
      <point x="36.0" y="572"/>
      <point x="36.0" y="360" type="curve"/>
    </contour>
  </outline>
</glyph>
<glyph name="R" format="1">
  <advance width="558.0"/>
  <unicode hex="0052"/>
  <outline>
    <contour>
      <point x="217.0" y="354"/>
      <point x="361.0" y="354"/>
      <point x="213.0" y="354" type="curve"/>
      <point x="277.0" y="236"/>
      <point x="341.0" y="118"/>
      <point x="405.0" y="0" type="curve"/>
      <point x="553.0" y="0"/>
      <point x="409.0" y="0"/>
      <point x="557.0" y="0" type="curve"/>
      <point x="493.0" y="118"/>
      <point x="429.0" y="236"/>
      <point x="365.0" y="354" type="curve"/>
    </contour>
    <contour>
      <point x="207.0" y="0"/>
      <point x="64.0" y="0"/>
      <point x="207.0" y="0" type="curve"/>
      <point x="207.0" y="241"/>
      <point x="207.0" y="481"/>
      <point x="207.0" y="722" type="curve"/>
      <point x="64.0" y="722"/>
      <point x="207.0" y="722"/>
      <point x="64.0" y="722" type="curve"/>
      <point x="64.0" y="481"/>
      <point x="64.0" y="241"/>
      <point x="64.0" y="0" type="curve"/>
    </contour>
    <contour>
      <point x="137.0" y="297"/>
      <point x="137.0" y="408"/>
      <point x="137.0" y="297" type="curve"/>
      <point x="184.0" y="297"/>
      <point x="231.0" y="297"/>
      <point x="277.0" y="297" type="curve"/>
      <point x="410.0" y="297"/>
      <point x="492.0" y="377"/>
      <point x="492.0" y="519" type="curve"/>
      <point x="492.0" y="648"/>
      <point x="412.0" y="722"/>
      <point x="282.0" y="722" type="curve"/>
      <point x="234.0" y="722"/>
      <point x="186.0" y="722"/>
      <point x="137.0" y="722" type="curve"/>
      <point x="137.0" y="612"/>
      <point x="137.0" y="722"/>
      <point x="137.0" y="612" type="curve"/>
      <point x="177.0" y="612"/>
      <point x="217.0" y="612"/>
      <point x="256.0" y="612" type="curve"/>
      <point x="317.0" y="612"/>
      <point x="349.0" y="570"/>
      <point x="349.0" y="508" type="curve"/>
      <point x="349.0" y="450"/>
      <point x="327.0" y="408"/>
      <point x="272.0" y="408" type="curve"/>
      <point x="227.0" y="408"/>
      <point x="182.0" y="408"/>
      <point x="137.0" y="408" type="curve"/>
    </contour>
    <contour>
      <point x="237.0" y="780" type="move" name="top"/>
    </contour>
    <contour>
      <point x="370.0" y="-1" type="move" name="bottom"/>
    </contour>
  </outline>
</glyph>
<glyph name="S" format="1">
  <advance width="475.0"/>
  <unicode hex="0053"/>
  <outline>
    <contour>
      <point x="40.0" y="53"/>
      <point x="118.0" y="158"/>
      <point x="40.0" y="53" type="curve"/>
      <point x="97.0" y="11"/>
      <point x="150.0" y="-5"/>
      <point x="222.0" y="-5" type="curve"/>
      <point x="354.0" y="-5"/>
      <point x="454.0" y="66"/>
      <point x="454.0" y="194" type="curve"/>
      <point x="454.0" y="304"/>
      <point x="379.0" y="364"/>
      <point x="281.0" y="419" type="curve" smooth="yes"/>
      <point x="224.0" y="451"/>
      <point x="173.0" y="492"/>
      <point x="173.0" y="539" type="curve"/>
      <point x="170.0" y="578"/>
      <point x="196.0" y="612"/>
      <point x="234.0" y="612" type="curve"/>
      <point x="278.0" y="612"/>
      <point x="313.0" y="589"/>
      <point x="342.0" y="573" type="curve"/>
      <point x="407.0" y="661"/>
      <point x="342.0" y="573"/>
      <point x="407.0" y="661" type="curve"/>
      <point x="353.0" y="700"/>
      <point x="304.0" y="717"/>
      <point x="237.0" y="717" type="curve"/>
      <point x="116.0" y="717"/>
      <point x="30.0" y="649"/>
      <point x="30.0" y="534" type="curve"/>
      <point x="30.0" y="428"/>
      <point x="100.0" y="365"/>
      <point x="192.0" y="314" type="curve" smooth="yes"/>
      <point x="253.0" y="280"/>
      <point x="311.0" y="240"/>
      <point x="311.0" y="194" type="curve"/>
      <point x="311.0" y="156"/>
      <point x="278.0" y="111"/>
      <point x="229.0" y="111" type="curve"/>
      <point x="184.0" y="111"/>
      <point x="155.0" y="132"/>
      <point x="118.0" y="158" type="curve"/>
    </contour>
    <contour>
      <point x="236.0" y="780" type="move" name="top"/>
    </contour>
    <contour>
      <point x="284.0" y="7" type="move" name="bottom"/>
    </contour>
  </outline>
</glyph>
<glyph name="T" format="1">
  <advance width="489.0"/>
  <unicode hex="0054"/>
  <outline>
    <contour>
      <point x="316.0" y="0"/>
      <point x="173.0" y="0"/>
      <point x="316.0" y="0" type="curve"/>
      <point x="316.0" y="237"/>
      <point x="316.0" y="473"/>
      <point x="316.0" y="710" type="curve"/>
      <point x="173.0" y="710"/>
      <point x="316.0" y="710"/>
      <point x="173.0" y="710" type="curve"/>
      <point x="172.0" y="473"/>
      <point x="173.0" y="237"/>
      <point x="173.0" y="0" type="curve"/>
    </contour>
    <contour>
      <point x="12.0" y="600"/>
      <point x="12.0" y="727"/>
      <point x="12.0" y="605" type="curve"/>
      <point x="166.0" y="605"/>
      <point x="322.0" y="605"/>
      <point x="477.0" y="605" type="curve"/>
      <point x="477.0" y="727"/>
      <point x="477.0" y="600"/>
      <point x="477.0" y="722" type="curve"/>
      <point x="322.0" y="722"/>
      <point x="166.0" y="722"/>
      <point x="12.0" y="722" type="curve"/>
    </contour>
    <contour>
      <point x="244.0" y="780" type="move" name="top"/>
    </contour>
    <contour>
      <point x="308.0" y="1" type="move" name="bottom"/>
    </contour>
  </outline>
</glyph>
<glyph name="U" format="1">
  <advance width="622.0"/>
  <unicode hex="0055"/>
  <outline>
    <contour>
      <point x="58.0" y="722"/>
      <point x="188.0" y="722"/>
      <point x="58.0" y="722" type="curve"/>
      <point x="58.0" y="588"/>
      <point x="57.0" y="407"/>
      <point x="58.0" y="273" type="curve"/>
      <point x="58.0" y="94"/>
      <point x="134.0" y="-5"/>
      <point x="307.0" y="-5" type="curve"/>
      <point x="485.0" y="-5"/>
      <point x="564.0" y="99"/>
      <point x="564.0" y="285" type="curve"/>
      <point x="564.0" y="415"/>
      <point x="564.0" y="592"/>
      <point x="564.0" y="722" type="curve"/>
      <point x="434.0" y="722"/>
      <point x="564.0" y="722"/>
      <point x="434.0" y="722" type="curve"/>
      <point x="434.0" y="585"/>
      <point x="434.0" y="407"/>
      <point x="434.0" y="270" type="curve"/>
      <point x="434.0" y="179"/>
      <point x="400.0" y="117"/>
      <point x="317.0" y="117" type="curve"/>
      <point x="217.0" y="117"/>
      <point x="188.0" y="186"/>
      <point x="188.0" y="295" type="curve"/>
      <point x="188.0" y="422"/>
      <point x="188.0" y="596"/>
      <point x="188.0" y="722" type="curve"/>
    </contour>
    <contour>
      <point x="314.0" y="780" type="move" name="top"/>
    </contour>
    <contour>
      <point x="371.0" y="7" type="move" name="bottom"/>
    </contour>
  </outline>
</glyph>
<glyph name="V" format="1">
  <advance width="578.0"/>
  <unicode hex="0056"/>
  <outline>
    <contour>
      <point x="428.0" y="722"/>
      <point x="573.0" y="722"/>
      <point x="428.0" y="722" type="curve"/>
      <point x="362.0" y="480"/>
      <point x="298.0" y="242"/>
      <point x="235.0" y="0" type="curve"/>
      <point x="381.0" y="0"/>
      <point x="219.0" y="0"/>
      <point x="365.0" y="0" type="curve"/>
      <point x="434.0" y="241"/>
      <point x="503.0" y="481"/>
      <point x="573.0" y="722" type="curve"/>
    </contour>
    <contour>
      <point x="3.0" y="722"/>
      <point x="149.0" y="722"/>
      <point x="3.0" y="722" type="curve"/>
      <point x="73.0" y="481"/>
      <point x="144.0" y="241"/>
      <point x="214.0" y="0" type="curve"/>
      <point x="360.0" y="0"/>
      <point x="201.0" y="0"/>
      <point x="347.0" y="0" type="curve"/>
      <point x="282.0" y="242"/>
      <point x="217.0" y="482"/>
      <point x="149.0" y="722" type="curve"/>
    </contour>
  </outline>
</glyph>
<glyph name="W" format="1">
  <advance width="733.0"/>
  <unicode hex="0057"/>
  <outline>
    <contour>
      <point x="289.0" y="0"/>
      <point x="163.0" y="0"/>
      <point x="279.0" y="0" type="curve"/>
      <point x="330.0" y="241"/>
      <point x="380.0" y="481"/>
      <point x="430.0" y="722" type="curve"/>
      <point x="310.0" y="722"/>
      <point x="430.0" y="722"/>
      <point x="310.0" y="722" type="curve"/>
      <point x="264.0" y="482"/>
      <point x="220.0" y="243"/>
      <point x="173.0" y="0" type="curve"/>
    </contour>
    <contour>
      <point x="315.0" y="722"/>
      <point x="435.0" y="722"/>
      <point x="315.0" y="722" type="curve"/>
      <point x="360.0" y="481"/>
      <point x="405.0" y="241"/>
      <point x="451.0" y="0" type="curve"/>
      <point x="567.0" y="0"/>
      <point x="437.0" y="0"/>
      <point x="553.0" y="0" type="curve"/>
      <point x="512.0" y="245"/>
      <point x="475.0" y="481"/>
      <point x="435.0" y="722" type="curve"/>
    </contour>
    <contour>
      <point x="21.0" y="722"/>
      <point x="144.0" y="722"/>
      <point x="21.0" y="722" type="curve"/>
      <point x="67.0" y="481"/>
      <point x="113.0" y="241"/>
      <point x="158.0" y="0" type="curve"/>
      <point x="275.0" y="0"/>
      <point x="158.0" y="0"/>
      <point x="275.0" y="0" type="curve"/>
      <point x="231.0" y="241"/>
      <point x="187.0" y="481"/>
      <point x="144.0" y="722" type="curve"/>
    </contour>
    <contour>
      <point x="592.0" y="722"/>
      <point x="715.0" y="722"/>
      <point x="592.0" y="722" type="curve"/>
      <point x="547.0" y="481"/>
      <point x="501.0" y="241"/>
      <point x="455.0" y="0" type="curve"/>
      <point x="572.0" y="0"/>
      <point x="455.0" y="0"/>
      <point x="572.0" y="0" type="curve"/>
      <point x="619.0" y="241"/>
      <point x="667.0" y="481"/>
      <point x="715.0" y="722" type="curve"/>
    </contour>
  </outline>
</glyph>
<glyph name="X" format="1">
  <advance width="533.0"/>
  <unicode hex="0058"/>
  <outline>
    <contour>
      <point x="379.0" y="722"/>
      <point x="516.0" y="722"/>
      <point x="379.0" y="722" type="curve"/>
      <point x="254.0" y="481"/>
      <point x="129.0" y="241"/>
      <point x="4.0" y="0" type="curve"/>
      <point x="144.0" y="0"/>
      <point x="4.0" y="0"/>
      <point x="144.0" y="0" type="curve"/>
      <point x="268.0" y="241"/>
      <point x="392.0" y="481"/>
      <point x="516.0" y="722" type="curve"/>
    </contour>
    <contour>
      <point x="19.0" y="722"/>
      <point x="156.0" y="722"/>
      <point x="19.0" y="722" type="curve"/>
      <point x="142.0" y="481"/>
      <point x="265.0" y="241"/>
      <point x="388.0" y="0" type="curve"/>
      <point x="527.0" y="0"/>
      <point x="388.0" y="0"/>
      <point x="527.0" y="0" type="curve"/>
      <point x="403.0" y="241"/>
      <point x="280.0" y="481"/>
      <point x="156.0" y="722" type="curve"/>
    </contour>
  </outline>
</glyph>
<glyph name="Z" format="1">
  <advance width="568.0"/>
  <unicode hex="005A"/>
  <outline>
    <contour>
      <point x="49.0" y="612"/>
      <point x="49.0" y="722"/>
      <point x="49.0" y="612" type="curve"/>
      <point x="170.0" y="612"/>
      <point x="345.0" y="612"/>
      <point x="467.0" y="612" type="curve"/>
      <point x="455.0" y="622"/>
      <point x="436.0" y="620"/>
      <point x="425.0" y="631" type="curve"/>
      <point x="414.0" y="640"/>
      <point x="417.0" y="658"/>
      <point x="407.0" y="668" type="curve"/>
      <point x="400.0" y="658"/>
      <point x="384.0" y="668"/>
      <point x="378.0" y="658" type="curve"/>
      <point x="24.0" y="110" type="line"/>
      <point x="24.0" y="54"/>
      <point x="24.0" y="110"/>
      <point x="24.0" y="54" type="curve"/>
      <point x="24.0" y="0"/>
      <point x="24.0" y="54"/>
      <point x="24.0" y="0" type="curve"/>
      <point x="77.0" y="0"/>
      <point x="24.0" y="0"/>
      <point x="77.0" y="0" type="curve"/>
      <point x="511.0" y="0"/>
      <point x="397.0" y="0"/>
      <point x="542.0" y="0" type="curve"/>
      <point x="542.0" y="110"/>
      <point x="542.0" y="0"/>
      <point x="542.0" y="110" type="curve"/>
      <point x="397.0" y="110"/>
      <point x="221.0" y="110"/>
      <point x="77.0" y="110" type="curve"/>
      <point x="87.0" y="102"/>
      <point x="103.0" y="103"/>
      <point x="113.0" y="95" type="curve"/>
      <point x="124.0" y="84"/>
      <point x="123.0" y="65"/>
      <point x="134.0" y="54" type="curve"/>
      <point x="141.0" y="64"/>
      <point x="157.0" y="55"/>
      <point x="164.0" y="64" type="curve"/>
      <point x="524.0" y="612" type="line"/>
      <point x="524.0" y="668"/>
      <point x="524.0" y="612"/>
      <point x="524.0" y="668" type="curve"/>
      <point x="524.0" y="722"/>
      <point x="524.0" y="668"/>
      <point x="524.0" y="722" type="curve"/>
      <point x="467.0" y="722"/>
      <point x="524.0" y="722"/>
      <point x="467.0" y="722" type="curve"/>
      <point x="345.0" y="722"/>
      <point x="170.0" y="722"/>
      <point x="49.0" y="722" type="curve"/>
    </contour>
    <contour>
      <point x="287.0" y="780" type="move" name="top"/>
    </contour>
  </outline>
</glyph>
<glyph name="bracketleft" format="1">
  <advance width="276.0"/>
  <unicode hex="005B"/>
  <outline>
    <contour>
      <point x="236.0" y="769"/>
      <point x="236.0" y="648"/>
      <point x="236.0" y="769" type="curve"/>
      <point x="198.0" y="769"/>
      <point x="160.0" y="769"/>
      <point x="122.0" y="769" type="curve"/>
      <point x="106.0" y="769"/>
      <point x="70.0" y="769"/>
      <point x="55.0" y="769" type="curve"/>
      <point x="55.0" y="752"/>
      <point x="55.0" y="731"/>
      <point x="55.0" y="714" type="curve"/>
      <point x="55.0" y="456"/>
      <point x="55.0" y="199"/>
      <point x="55.0" y="-59" type="curve"/>
      <point x="55.0" y="-77"/>
      <point x="55.0" y="-89"/>
      <point x="55.0" y="-113" type="curve"/>
      <point x="70.0" y="-113"/>
      <point x="104.0" y="-113"/>
      <point x="121.0" y="-113" type="curve"/>
      <point x="159.0" y="-113"/>
      <point x="198.0" y="-113"/>
      <point x="236.0" y="-113" type="curve"/>
      <point x="236.0" y="9"/>
      <point x="236.0" y="-113"/>
      <point x="236.0" y="9" type="curve"/>
      <point x="198.0" y="9"/>
      <point x="159.0" y="9"/>
      <point x="121.0" y="9" type="curve"/>
      <point x="198.0" y="9"/>
      <point x="121.0" y="9"/>
      <point x="198.0" y="9" type="curve"/>
      <point x="198.0" y="-59"/>
      <point x="198.0" y="9"/>
      <point x="198.0" y="-59" type="curve"/>
      <point x="198.0" y="199"/>
      <point x="198.0" y="456"/>
      <point x="198.0" y="714" type="curve"/>
      <point x="198.0" y="648"/>
      <point x="198.0" y="714"/>
      <point x="198.0" y="648" type="curve"/>
      <point x="122.0" y="648"/>
      <point x="198.0" y="648"/>
      <point x="122.0" y="648" type="curve"/>
      <point x="160.0" y="648"/>
      <point x="198.0" y="648"/>
      <point x="236.0" y="648" type="curve"/>
    </contour>
  </outline>
</glyph>
<glyph name="bracketright" format="1">
  <advance width="276.0"/>
  <unicode hex="005D"/>
  <outline>
    <contour>
      <point x="41.0" y="648"/>
      <point x="41.0" y="769"/>
      <point x="41.0" y="648" type="curve"/>
      <point x="79.0" y="648"/>
      <point x="117.0" y="648"/>
      <point x="155.0" y="648" type="curve"/>
      <point x="143.0" y="660"/>
      <point x="123.0" y="661"/>
      <point x="111.0" y="673" type="curve"/>
      <point x="100.0" y="686"/>
      <point x="90.0" y="701"/>
      <point x="79.0" y="714" type="curve"/>
      <point x="79.0" y="456"/>
      <point x="78.0" y="199"/>
      <point x="79.0" y="-59" type="curve"/>
      <point x="90.0" y="-45"/>
      <point x="103.0" y="-33"/>
      <point x="115.0" y="-20" type="curve"/>
      <point x="126.0" y="-7"/>
      <point x="145.0" y="-4"/>
      <point x="156.0" y="9" type="curve"/>
      <point x="118.0" y="9"/>
      <point x="79.0" y="9"/>
      <point x="41.0" y="9" type="curve"/>
      <point x="40.0" y="-113"/>
      <point x="41.0" y="9"/>
      <point x="40.0" y="-113" type="curve"/>
      <point x="79.0" y="-113"/>
      <point x="118.0" y="-113"/>
      <point x="156.0" y="-113" type="curve"/>
      <point x="222.0" y="-113"/>
      <point x="156.0" y="-113"/>
      <point x="222.0" y="-113" type="curve"/>
      <point x="222.0" y="-59"/>
      <point x="222.0" y="-113"/>
      <point x="222.0" y="-59" type="curve"/>
      <point x="221.0" y="199"/>
      <point x="222.0" y="456"/>
      <point x="222.0" y="714" type="curve"/>
      <point x="222.0" y="769"/>
      <point x="222.0" y="714"/>
      <point x="222.0" y="769" type="curve"/>
      <point x="155.0" y="769"/>
      <point x="222.0" y="769"/>
      <point x="155.0" y="769" type="curve"/>
      <point x="117.0" y="769"/>
      <point x="79.0" y="769"/>
      <point x="41.0" y="769" type="curve"/>
    </contour>
  </outline>
</glyph>
<glyph name="underscore" format="1">
  <advance width="511.0"/>
  <unicode hex="005F"/>
  <outline>
    <contour>
      <point x="-0.25" y="-183"/>
      <point x="-0.25" y="-72"/>
      <point x="-0.25" y="-183" type="curve"/>
      <point x="169.75" y="-183"/>
      <point x="340.75" y="-183"/>
      <point x="510.75" y="-183" type="curve"/>
      <point x="510.75" y="-72"/>
      <point x="510.75" y="-183"/>
      <point x="510.75" y="-72" type="curve"/>
      <point x="340.75" y="-72"/>
      <point x="169.75" y="-72"/>
      <point x="-0.25" y="-72" type="curve"/>
    </contour>
  </outline>
</glyph>
<glyph name="grave" format="1">
  <advance width="380.0"/>
  <unicode hex="0060"/>
  <outline>
    <contour>
      <point x="265.0" y="591" type="line"/>
      <point x="181.0" y="757" type="line"/>
      <point x="6.0" y="757" type="line"/>
      <point x="130.0" y="591" type="line"/>
    </contour>
    <contour>
      <point x="197.0" y="590" type="move" name="_top"/>
    </contour>
  </outline>
</glyph>
<glyph name="b" format="1">
  <advance width="542.0"/>
  <unicode hex="0062"/>
  <outline>
    <contour>
      <point x="163.0" y="349"/>
      <point x="103.0" y="396"/>
      <point x="163.0" y="349" type="curve"/>
      <point x="186.0" y="379"/>
      <point x="226.0" y="423"/>
      <point x="281.0" y="423" type="curve"/>
      <point x="354.0" y="423"/>
      <point x="368.0" y="346"/>
      <point x="368.0" y="261" type="curve"/>
      <point x="369.0" y="180"/>
      <point x="352.0" y="110"/>
      <point x="283.0" y="110" type="curve"/>
      <point x="237.0" y="110"/>
      <point x="204.0" y="130"/>
      <point x="173.0" y="165" type="curve"/>
      <point x="101.0" y="117"/>
      <point x="173.0" y="165"/>
      <point x="101.0" y="117" type="curve"/>
      <point x="148.0" y="47"/>
      <point x="203.0" y="-5"/>
      <point x="298.0" y="-5" type="curve"/>
      <point x="434.0" y="-5"/>
      <point x="511.0" y="112"/>
      <point x="511.0" y="267" type="curve"/>
      <point x="511.0" y="421"/>
      <point x="436.0" y="538"/>
      <point x="301.0" y="538" type="curve"/>
      <point x="204.0" y="538"/>
      <point x="143.0" y="464"/>
      <point x="103.0" y="396" type="curve"/>
    </contour>
    <contour>
      <point x="196.0" y="0"/>
      <point x="53.0" y="0"/>
      <point x="196.0" y="0" type="curve"/>
      <point x="196.0" y="267"/>
      <point x="196.0" y="533"/>
      <point x="196.0" y="800" type="curve"/>
      <point x="53.0" y="800"/>
      <point x="196.0" y="800"/>
      <point x="53.0" y="800" type="curve"/>
      <point x="53.0" y="533"/>
      <point x="53.0" y="267"/>
      <point x="53.0" y="0" type="curve"/>
    </contour>
  </outline>
</glyph>
<glyph name="d" format="1">
  <advance width="549.0"/>
  <unicode hex="0064"/>
  <outline>
    <contour>
      <point x="425.0" y="451"/>
      <point x="376.0" y="368"/>
      <point x="425.0" y="451" type="curve"/>
      <point x="379.0" y="507"/>
      <point x="321.0" y="533"/>
      <point x="247.0" y="533" type="curve"/>
      <point x="100.0" y="533"/>
      <point x="31.0" y="413"/>
      <point x="31.0" y="262" type="curve"/>
      <point x="31.0" y="114"/>
      <point x="104.0" y="0"/>
      <point x="243.0" y="0" type="curve"/>
      <point x="327.0" y="0"/>
      <point x="387.0" y="38"/>
      <point x="425.0" y="112" type="curve"/>
      <point x="376.0" y="189"/>
      <point x="425.0" y="112"/>
      <point x="376.0" y="189" type="curve"/>
      <point x="352.0" y="144"/>
      <point x="323.0" y="110"/>
      <point x="272.0" y="110" type="curve"/>
      <point x="197.0" y="110"/>
      <point x="174.0" y="183"/>
      <point x="174.0" y="268" type="curve"/>
      <point x="174.0" y="352"/>
      <point x="202.0" y="423"/>
      <point x="277.0" y="423" type="curve"/>
      <point x="320.0" y="423"/>
      <point x="351.0" y="401"/>
      <point x="376.0" y="368" type="curve"/>
    </contour>
    <contour>
      <point x="496.0" y="0"/>
      <point x="347.0" y="0"/>
      <point x="496.0" y="0" type="curve"/>
      <point x="496.0" y="267"/>
      <point x="496.0" y="533"/>
      <point x="496.0" y="800" type="curve"/>
      <point x="347.0" y="800"/>
      <point x="496.0" y="800"/>
      <point x="347.0" y="800" type="curve"/>
      <point x="347.0" y="533"/>
      <point x="347.0" y="267"/>
      <point x="347.0" y="0" type="curve"/>
    </contour>
  </outline>
</glyph>
<glyph name="f" format="1">
  <advance width="360"/>
  <unicode hex="0066"/>
  <outline>
    <contour>
      <point x="22.75" y="423"/>
      <point x="22.75" y="533"/>
      <point x="22.75" y="423" type="curve"/>
      <point x="22.75" y="423"/>
      <point x="338.75" y="423"/>
      <point x="338.75" y="423" type="curve"/>
      <point x="338.75" y="533"/>
      <point x="338.75" y="423"/>
      <point x="338.75" y="533" type="curve"/>
      <point x="338.75" y="533"/>
      <point x="22.75" y="533"/>
      <point x="22.75" y="533" type="curve"/>
    </contour>
    <contour>
      <point x="232.75" y="0"/>
      <point x="89.75" y="0"/>
      <point x="232.75" y="0" type="curve"/>
      <point x="232.75" y="0"/>
      <point x="232.75" y="604"/>
      <point x="232.75" y="604" type="curve"/>
      <point x="232.75" y="653"/>
      <point x="229.75" y="699"/>
      <point x="273.75" y="699" type="curve"/>
      <point x="291.75" y="699"/>
      <point x="306.75" y="690"/>
      <point x="321.75" y="681" type="curve"/>
      <point x="379.75" y="769"/>
      <point x="321.75" y="681"/>
      <point x="379.75" y="769" type="curve"/>
      <point x="348.75" y="790"/>
      <point x="311.75" y="805"/>
      <point x="273.75" y="805" type="curve"/>
      <point x="156.75" y="805"/>
      <point x="88.75" y="723"/>
      <point x="89.75" y="604" type="curve"/>
      <point x="89.75" y="604"/>
      <point x="89.75" y="0"/>
      <point x="89.75" y="0" type="curve"/>
    </contour>
  </outline>
</glyph>
<glyph name="g" format="1">
  <advance width="494.0"/>
  <unicode hex="0067"/>
  <outline>
    <contour>
      <point x="350" y="426"/>
      <point x="272" y="514"/>
      <point x="350" y="426" type="curve"/>
      <point x="461" y="482" type="line"/>
      <point x="403" y="583" type="line"/>
      <point x="272" y="514" type="line"/>
    </contour>
    <contour>
      <point x="189" y="336"/>
      <point x="46" y="330"/>
      <point x="189" y="336" type="curve"/>
      <point x="189" y="384"/>
      <point x="206" y="427"/>
      <point x="249" y="427" type="curve"/>
      <point x="293" y="427"/>
      <point x="306" y="383"/>
      <point x="306" y="334" type="curve"/>
      <point x="306" y="290"/>
      <point x="292" y="250"/>
      <point x="249" y="250" type="curve"/>
      <point x="209" y="250"/>
      <point x="189" y="289"/>
      <point x="189" y="336" type="curve"/>
      <point x="46" y="330"/>
      <point x="189" y="336"/>
      <point x="46" y="330" type="curve"/>
      <point x="46" y="216"/>
      <point x="126" y="140"/>
      <point x="243" y="140" type="curve"/>
      <point x="364" y="140"/>
      <point x="449" y="218"/>
      <point x="449" y="339" type="curve"/>
      <point x="449" y="457"/>
      <point x="368" y="537"/>
      <point x="249" y="537" type="curve"/>
      <point x="126" y="537"/>
      <point x="46" y="453"/>
      <point x="46" y="330" type="curve"/>
    </contour>
    <contour>
      <point x="141" y="246"/>
      <point x="215" y="174"/>
      <point x="141" y="246" type="curve"/>
      <point x="87" y="213"/>
      <point x="49" y="174"/>
      <point x="49" y="112" type="curve"/>
      <point x="49" y="18"/>
      <point x="131" y="-24"/>
      <point x="232" y="-34" type="curve"/>
      <point x="296" y="-40"/>
      <point x="354" y="-56"/>
      <point x="354" y="-119" type="curve"/>
      <point x="354" y="-173"/>
      <point x="306" y="-195"/>
      <point x="248" y="-195" type="curve"/>
      <point x="194" y="-195"/>
      <point x="156" y="-160"/>
      <point x="156" y="-104" type="curve"/>
      <point x="156" y="-57"/>
      <point x="169" y="-15"/>
      <point x="208" y="3" type="curve"/>
      <point x="136" y="69"/>
      <point x="208" y="3"/>
      <point x="136" y="69" type="curve"/>
      <point x="61" y="34"/>
      <point x="13" y="-23"/>
      <point x="13" y="-109" type="curve"/>
      <point x="13" y="-235"/>
      <point x="111" y="-305"/>
      <point x="242" y="-305" type="curve"/>
      <point x="378" y="-305"/>
      <point x="486" y="-237"/>
      <point x="484" y="-108" type="curve"/>
      <point x="484" y="11"/>
      <point x="381" y="60"/>
      <point x="258" y="71" type="curve"/>
      <point x="222" y="74"/>
      <point x="192" y="89"/>
      <point x="192" y="123" type="curve"/>
      <point x="192" y="146"/>
      <point x="198" y="159"/>
      <point x="215" y="174" type="curve"/>
    </contour>
    <contour>
      <point x="247" y="610" type="move" name="top"/>
    </contour>
  </outline>
</glyph>
<glyph name="h" format="1">
  <advance width="524.0"/>
  <unicode hex="0068"/>
  <outline>
    <contour>
      <point x="164.0" y="301"/>
      <point x="128.0" y="356"/>
      <point x="164.0" y="301" type="curve"/>
      <point x="183.0" y="361"/>
      <point x="215.0" y="423"/>
      <point x="272.0" y="423" type="curve"/>
      <point x="331.0" y="423"/>
      <point x="332.0" y="371"/>
      <point x="332.0" y="308" type="curve"/>
      <point x="332.0" y="205"/>
      <point x="332.0" y="103"/>
      <point x="332.0" y="0" type="curve"/>
      <point x="475.0" y="0"/>
      <point x="332.0" y="0"/>
      <point x="475.0" y="0" type="curve"/>
      <point x="475.0" y="106"/>
      <point x="475.0" y="213"/>
      <point x="475.0" y="319" type="curve"/>
      <point x="475.0" y="444"/>
      <point x="439.0" y="533"/>
      <point x="314.0" y="533" type="curve"/>
      <point x="223.0" y="533"/>
      <point x="151.0" y="455"/>
      <point x="128.0" y="356" type="curve"/>
    </contour>
    <contour>
      <point x="196.0" y="0"/>
      <point x="53.0" y="0"/>
      <point x="196.0" y="0" type="curve"/>
      <point x="196.0" y="267"/>
      <point x="196.0" y="533"/>
      <point x="196.0" y="800" type="curve"/>
      <point x="53.0" y="800"/>
      <point x="196.0" y="800"/>
      <point x="53.0" y="800" type="curve"/>
      <point x="53.0" y="533"/>
      <point x="53.0" y="267"/>
      <point x="53.0" y="0" type="curve"/>
    </contour>
  </outline>
</glyph>
<glyph name="i" format="1">
  <advance width="240.0"/>
  <unicode hex="0069"/>
  <outline>
    <contour>
      <point x="196.0" y="0"/>
      <point x="46.0" y="0"/>
      <point x="196.0" y="0" type="curve"/>
      <point x="196.0" y="178"/>
      <point x="196.0" y="355"/>
      <point x="196.0" y="533" type="curve"/>
      <point x="46.0" y="533"/>
      <point x="196.0" y="533"/>
      <point x="46.0" y="533" type="curve"/>
      <point x="46.0" y="355"/>
      <point x="46.0" y="178"/>
      <point x="46.0" y="0" type="curve"/>
    </contour>
    <contour>
      <point x="191.0" y="678"/>
      <point x="43.0" y="678"/>
      <point x="191.0" y="678" type="curve"/>
      <point x="191.0" y="726"/>
      <point x="159.0" y="750"/>
      <point x="116.0" y="750" type="curve"/>
      <point x="72.0" y="750"/>
      <point x="43.0" y="724"/>
      <point x="43.0" y="678" type="curve"/>
      <point x="191.0" y="678"/>
      <point x="43.0" y="678"/>
      <point x="191.0" y="678" type="curve"/>
      <point x="191.0" y="629"/>
      <point x="160.0" y="607"/>
      <point x="116.0" y="607" type="curve"/>
      <point x="71.0" y="607"/>
      <point x="43.0" y="631"/>
      <point x="43.0" y="678" type="curve"/>
    </contour>
    <contour>
      <point x="116.0" y="611" type="move" name="top"/>
    </contour>
    <contour>
      <point x="185.0" y="4" type="move" name="bottom"/>
    </contour>
  </outline>
</glyph>
<glyph name="j" format="1">
  <advance width="236.0"/>
  <unicode hex="006A"/>
  <outline>
    <contour>
      <point x="-17.0" y="-304"/>
      <point x="3.0" y="-199"/>
      <point x="-17.0" y="-304" type="curve"/>
      <point x="-9.0" y="-305"/>
      <point x="1.0" y="-305"/>
      <point x="11.0" y="-305" type="curve"/>
      <point x="121.0" y="-305"/>
      <point x="196.0" y="-230"/>
      <point x="196.0" y="-120" type="curve"/>
      <point x="196.0" y="98"/>
      <point x="196.0" y="316"/>
      <point x="196.0" y="534" type="curve"/>
      <point x="53.0" y="534"/>
      <point x="196.0" y="534"/>
      <point x="53.0" y="534" type="curve"/>
      <point x="53.0" y="316"/>
      <point x="53.0" y="98"/>
      <point x="53.0" y="-120" type="curve"/>
      <point x="53.0" y="-160"/>
      <point x="52.0" y="-200"/>
      <point x="17.0" y="-200" type="curve"/>
      <point x="12.0" y="-200"/>
      <point x="10.0" y="-200"/>
      <point x="3.0" y="-199" type="curve"/>
    </contour>
    <contour>
      <point x="196.0" y="670"/>
      <point x="48.0" y="670"/>
      <point x="196.0" y="670" type="curve"/>
      <point x="196.0" y="718"/>
      <point x="164.0" y="742"/>
      <point x="121.0" y="742" type="curve"/>
      <point x="77.0" y="742"/>
      <point x="48.0" y="716"/>
      <point x="48.0" y="670" type="curve"/>
      <point x="196.0" y="670"/>
      <point x="48.0" y="670"/>
      <point x="196.0" y="670" type="curve"/>
      <point x="196.0" y="621"/>
      <point x="165.0" y="599"/>
      <point x="121.0" y="599" type="curve"/>
      <point x="76.0" y="599"/>
      <point x="48.0" y="623"/>
      <point x="48.0" y="670" type="curve"/>
    </contour>
  </outline>
</glyph>
<glyph name="k" format="1">
  <advance width="540.0"/>
  <unicode hex="006B"/>
  <outline>
    <contour>
      <point x="196.0" y="0"/>
      <point x="53.0" y="0"/>
      <point x="196.0" y="0" type="curve"/>
      <point x="196.0" y="0"/>
      <point x="196.0" y="800"/>
      <point x="196.0" y="800" type="curve"/>
      <point x="53.0" y="800"/>
      <point x="196.0" y="800"/>
      <point x="53.0" y="800" type="curve"/>
      <point x="53.0" y="533"/>
      <point x="53.0" y="267"/>
      <point x="53.0" y="0" type="curve"/>
    </contour>
    <contour>
      <point x="394.0" y="533"/>
      <point x="461.0" y="533"/>
      <point x="347.0" y="533" type="curve"/>
      <point x="174.0" y="275" type="line"/>
      <point x="309.0" y="275"/>
      <point x="193.0" y="275"/>
      <point x="328.0" y="275" type="curve"/>
      <point x="508.0" y="533" type="line"/>
    </contour>
    <contour>
      <point x="470.0" y="0"/>
      <point x="424.0" y="0"/>
      <point x="527.0" y="0" type="curve"/>
      <point x="328.0" y="275" type="line"/>
      <point x="193.0" y="275"/>
      <point x="309.0" y="275"/>
      <point x="174.0" y="275" type="curve"/>
      <point x="367.0" y="0" type="line"/>
    </contour>
    <contour>
      <point x="333.0" y="0" type="move" name="bottom"/>
    </contour>
  </outline>
</glyph>
<glyph name="l" format="1">
  <advance width="249.0"/>
  <unicode hex="006C"/>
  <outline>
    <contour>
      <point x="196.0" y="0"/>
      <point x="53.0" y="0"/>
      <point x="196.0" y="0" type="curve"/>
      <point x="196.0" y="267"/>
      <point x="196.0" y="533"/>
      <point x="196.0" y="800" type="curve"/>
      <point x="53.0" y="800"/>
      <point x="196.0" y="800"/>
      <point x="53.0" y="800" type="curve"/>
      <point x="53.0" y="533"/>
      <point x="53.0" y="267"/>
      <point x="53.0" y="0" type="curve"/>
    </contour>
    <contour>
      <point x="128.0" y="882" type="move" name="top"/>
    </contour>
    <contour>
      <point x="186.0" y="2" type="move" name="bottom"/>
    </contour>
  </outline>
</glyph>
<glyph name="m" format="1">
  <advance width="744.0"/>
  <unicode hex="006D"/>
  <outline>
    <contour>
      <point x="418.0" y="274"/>
      <point x="372.0" y="333"/>
      <point x="413.0" y="271" type="curve"/>
      <point x="431.0" y="343"/>
      <point x="445.0" y="423"/>
      <point x="503.0" y="423" type="curve"/>
      <point x="561.0" y="423"/>
      <point x="551.0" y="374"/>
      <point x="551.0" y="308" type="curve"/>
      <point x="551.0" y="205"/>
      <point x="551.0" y="103"/>
      <point x="551.0" y="0" type="curve"/>
      <point x="694.0" y="0"/>
      <point x="551.0" y="0"/>
      <point x="694.0" y="0" type="curve"/>
      <point x="694.0" y="106"/>
      <point x="694.0" y="213"/>
      <point x="694.0" y="319" type="curve"/>
      <point x="694.0" y="451"/>
      <point x="683.0" y="538"/>
      <point x="555.0" y="538" type="curve"/>
      <point x="461.0" y="538"/>
      <point x="404.0" y="453"/>
      <point x="377.0" y="336" type="curve"/>
    </contour>
    <contour>
      <point x="169.0" y="274"/>
      <point x="123.0" y="333"/>
      <point x="164.0" y="271" type="curve"/>
      <point x="180.0" y="343"/>
      <point x="195.0" y="423"/>
      <point x="254.0" y="423" type="curve"/>
      <point x="311.0" y="423"/>
      <point x="302.0" y="374"/>
      <point x="302.0" y="308" type="curve"/>
      <point x="302.0" y="205"/>
      <point x="302.0" y="103"/>
      <point x="302.0" y="0" type="curve"/>
      <point x="445.0" y="0"/>
      <point x="302.0" y="0"/>
      <point x="445.0" y="0" type="curve"/>
      <point x="445.0" y="106"/>
      <point x="445.0" y="213"/>
      <point x="445.0" y="319" type="curve"/>
      <point x="445.0" y="451"/>
      <point x="434.0" y="538"/>
      <point x="306.0" y="538" type="curve"/>
      <point x="211.0" y="538"/>
      <point x="156.0" y="454"/>
      <point x="128.0" y="336" type="curve"/>
    </contour>
    <contour>
      <point x="196.0" y="0"/>
      <point x="53.0" y="0"/>
      <point x="196.0" y="0" type="curve"/>
      <point x="196.0" y="178"/>
      <point x="196.0" y="355"/>
      <point x="196.0" y="533" type="curve"/>
      <point x="53.0" y="533"/>
      <point x="196.0" y="533"/>
      <point x="53.0" y="533" type="curve"/>
      <point x="53.0" y="355"/>
      <point x="53.0" y="178"/>
      <point x="53.0" y="0" type="curve"/>
    </contour>
  </outline>
</glyph>
<glyph name="o" format="1">
  <advance width="528.0"/>
  <unicode hex="006F"/>
  <outline>
    <contour>
      <point x="164.0" y="265" type="line"/>
      <point x="164.0" y="345"/>
      <point x="182.0" y="423"/>
      <point x="258.0" y="423" type="curve"/>
      <point x="334.0" y="423"/>
      <point x="354.0" y="347"/>
      <point x="354.0" y="265" type="curve"/>
      <point x="354.0" y="180"/>
      <point x="338.0" y="110"/>
      <point x="267.0" y="110" type="curve"/>
      <point x="182.0" y="111"/>
      <point x="164.0" y="179"/>
      <point x="164.0" y="265" type="curve"/>
      <point x="31.0" y="265" type="line"/>
      <point x="31.0" y="105"/>
      <point x="109.0" y="-5"/>
      <point x="261.0" y="-5" type="curve"/>
      <point x="415.0" y="-5"/>
      <point x="497.0" y="103"/>
      <point x="497.0" y="265" type="curve"/>
      <point x="497.0" y="427"/>
      <point x="418.0" y="538"/>
      <point x="265.0" y="538" type="curve"/>
      <point x="110.0" y="538"/>
      <point x="31.0" y="427"/>
      <point x="31.0" y="265" type="curve"/>
    </contour>
    <contour>
      <point x="263.0" y="610" type="move" name="top"/>
    </contour>
  </outline>
</glyph>
<glyph name="p" format="1">
  <advance width="546.0"/>
  <unicode hex="0070"/>
  <outline>
    <contour>
      <point x="163.0" y="295"/>
      <point x="131.0" y="387"/>
      <point x="166.0" y="296" type="curve"/>
      <point x="181.0" y="358"/>
      <point x="224.0" y="424"/>
      <point x="275.0" y="424" type="curve"/>
      <point x="362.0" y="424"/>
      <point x="371.0" y="346"/>
      <point x="371.0" y="261" type="curve"/>
      <point x="372.0" y="179"/>
      <point x="360.0" y="105"/>
      <point x="279.0" y="105" type="curve"/>
      <point x="233.0" y="105"/>
      <point x="200.0" y="126"/>
      <point x="170.0" y="162" type="curve"/>
      <point x="121.0" y="102"/>
      <point x="170.0" y="162"/>
      <point x="121.0" y="102" type="curve"/>
      <point x="172.0" y="33"/>
      <point x="228.0" y="-5"/>
      <point x="310.0" y="-5" type="curve"/>
      <point x="459.0" y="-5"/>
      <point x="514.0" y="119"/>
      <point x="514.0" y="267" type="curve"/>
      <point x="514.0" y="413"/>
      <point x="461.0" y="539"/>
      <point x="310.0" y="539" type="curve"/>
      <point x="227.0" y="539"/>
      <point x="163.0" y="464"/>
      <point x="128.0" y="386" type="curve"/>
    </contour>
    <contour>
      <point x="196.0" y="-300"/>
      <point x="53.0" y="-300"/>
      <point x="196.0" y="-300" type="curve"/>
      <point x="196.0" y="-22"/>
      <point x="196.0" y="255"/>
      <point x="196.0" y="533" type="curve"/>
      <point x="53.0" y="533"/>
      <point x="196.0" y="533"/>
      <point x="53.0" y="533" type="curve"/>
      <point x="53.0" y="255"/>
      <point x="53.0" y="-22"/>
      <point x="53.0" y="-300" type="curve"/>
    </contour>
  </outline>
</glyph>
<glyph name="q" format="1">
  <advance width="549.0"/>
  <unicode hex="0071"/>
  <outline>
    <contour>
      <point x="413.0" y="400"/>
      <point x="394.0" y="330"/>
      <point x="423.0" y="395" type="curve"/>
      <point x="386.0" y="480"/>
      <point x="319.0" y="538"/>
      <point x="237.0" y="538" type="curve"/>
      <point x="84.0" y="538"/>
      <point x="30.0" y="414"/>
      <point x="31.0" y="265" type="curve"/>
      <point x="31.0" y="115"/>
      <point x="91.0" y="-5"/>
      <point x="242.0" y="-5" type="curve"/>
      <point x="319.0" y="-5"/>
      <point x="381.0" y="54"/>
      <point x="421.0" y="124" type="curve"/>
      <point x="379.0" y="185"/>
      <point x="421.0" y="124"/>
      <point x="379.0" y="185" type="curve"/>
      <point x="353.0" y="140"/>
      <point x="315.0" y="105"/>
      <point x="266.0" y="105" type="curve"/>
      <point x="188.0" y="105"/>
      <point x="174.0" y="184"/>
      <point x="174.0" y="271" type="curve"/>
      <point x="174.0" y="351"/>
      <point x="191.0" y="424"/>
      <point x="264.0" y="424" type="curve"/>
      <point x="309.0" y="424"/>
      <point x="343.0" y="403"/>
      <point x="384.0" y="335" type="curve"/>
    </contour>
    <contour>
      <point x="496.0" y="-300"/>
      <point x="347.0" y="-300"/>
      <point x="496.0" y="-300" type="curve"/>
      <point x="496.0" y="-22"/>
      <point x="496.0" y="255"/>
      <point x="496.0" y="533" type="curve"/>
      <point x="347.0" y="533"/>
      <point x="496.0" y="533"/>
      <point x="347.0" y="533" type="curve"/>
      <point x="347.0" y="255"/>
      <point x="347.0" y="-22"/>
      <point x="347.0" y="-300" type="curve"/>
    </contour>
  </outline>
</glyph>
<glyph name="r" format="1">
  <advance width="332.0"/>
  <unicode hex="0072"/>
  <outline>
    <contour>
      <point x="196.0" y="0"/>
      <point x="53.0" y="0"/>
      <point x="196.0" y="0" type="curve"/>
      <point x="196.0" y="178"/>
      <point x="196.0" y="355"/>
      <point x="196.0" y="533" type="curve"/>
      <point x="53.0" y="533"/>
      <point x="196.0" y="533"/>
      <point x="53.0" y="533" type="curve"/>
      <point x="53.0" y="355"/>
      <point x="53.0" y="178"/>
      <point x="53.0" y="0" type="curve"/>
    </contour>
    <contour>
      <point x="163.0" y="282"/>
      <point x="118.0" y="338"/>
      <point x="166.0" y="284" type="curve"/>
      <point x="197.0" y="400"/>
      <point x="255.0" y="423"/>
      <point x="322.0" y="423" type="curve"/>
      <point x="322.0" y="538"/>
      <point x="322.0" y="423"/>
      <point x="322.0" y="538" type="curve"/>
      <point x="223.0" y="538"/>
      <point x="151.0" y="448"/>
      <point x="115.0" y="336" type="curve"/>
    </contour>
    <contour>
      <point x="190.0" y="2" type="move" name="bottom"/>
    </contour>
    <contour>
      <point x="136.0" y="610" type="move" name="top"/>
    </contour>
  </outline>
</glyph>
<glyph name="t" format="1">
  <advance width="344.125"/>
  <unicode hex="0074"/>
  <outline>
    <contour>
      <point x="30.25" y="421"/>
      <point x="30.25" y="532"/>
      <point x="30.25" y="421" type="curve"/>
      <point x="30.25" y="421"/>
      <point x="324.25" y="421"/>
      <point x="324.25" y="421" type="curve"/>
      <point x="324.25" y="532"/>
      <point x="324.25" y="421"/>
      <point x="324.25" y="532" type="curve"/>
      <point x="324.25" y="532"/>
      <point x="30.25" y="532"/>
      <point x="30.25" y="532" type="curve"/>
    </contour>
    <contour>
      <point x="280.25" y="125"/>
      <point x="338.25" y="31"/>
      <point x="280.25" y="125" type="curve"/>
      <point x="268.25" y="115"/>
      <point x="260.25" y="110"/>
      <point x="246.25" y="110" type="curve"/>
      <point x="215.25" y="110"/>
      <point x="217.25" y="140"/>
      <point x="217.25" y="175" type="curve"/>
      <point x="217.25" y="175"/>
      <point x="217.25" y="680"/>
      <point x="217.25" y="680" type="curve"/>
      <point x="74.25" y="590"/>
      <point x="217.25" y="680"/>
      <point x="74.25" y="590" type="curve"/>
      <point x="74.25" y="590"/>
      <point x="74.25" y="170"/>
      <point x="74.25" y="170" type="curve"/>
      <point x="74.25" y="60"/>
      <point x="124.25" y="-6"/>
      <point x="225.25" y="-6" type="curve"/>
      <point x="269.25" y="-6"/>
      <point x="299.25" y="8"/>
      <point x="338.25" y="31" type="curve"/>
    </contour>
    <contour>
      <point x="277.25" y="7" type="move" name="bottom"/>
    </contour>
  </outline>
</glyph>
<glyph name="v" format="1">
  <advance width="505.0"/>
  <unicode hex="0076"/>
  <outline>
    <contour>
      <point x="11.0" y="533"/>
      <point x="156.0" y="533"/>
      <point x="11.0" y="533" type="curve"/>
      <point x="63.0" y="355"/>
      <point x="115.0" y="178"/>
      <point x="167.0" y="0" type="curve"/>
      <point x="300.0" y="0"/>
      <point x="167.0" y="0"/>
      <point x="300.0" y="0" type="curve"/>
      <point x="249.0" y="177"/>
      <point x="207.0" y="356"/>
      <point x="156.0" y="533" type="curve"/>
    </contour>
    <contour>
      <point x="354.0" y="533"/>
      <point x="498.0" y="533"/>
      <point x="354.0" y="533" type="curve"/>
      <point x="354.0" y="533"/>
      <point x="200.0" y="0"/>
      <point x="200.0" y="0" type="curve"/>
      <point x="334.0" y="0"/>
      <point x="200.0" y="0"/>
      <point x="334.0" y="0" type="curve"/>
      <point x="389.0" y="178"/>
      <point x="443.0" y="355"/>
      <point x="498.0" y="533" type="curve"/>
    </contour>
  </outline>
</glyph>
<glyph name="w" format="1">
  <advance width="715.0"/>
  <unicode hex="0077"/>
  <outline>
    <contour>
      <point x="270.0" y="0"/>
      <point x="149.0" y="0"/>
      <point x="270.0" y="0" type="curve"/>
      <point x="321.0" y="178"/>
      <point x="372.0" y="355"/>
      <point x="422.0" y="533" type="curve"/>
      <point x="299.0" y="533"/>
      <point x="422.0" y="533"/>
      <point x="299.0" y="533" type="curve"/>
      <point x="249.0" y="355"/>
      <point x="199.0" y="178"/>
      <point x="149.0" y="0" type="curve"/>
    </contour>
    <contour>
      <point x="582.0" y="533"/>
      <point x="705.0" y="533"/>
      <point x="582.0" y="533" type="curve"/>
      <point x="535.0" y="355"/>
      <point x="488.0" y="178"/>
      <point x="442.0" y="0" type="curve"/>
      <point x="562.0" y="0"/>
      <point x="442.0" y="0"/>
      <point x="562.0" y="0" type="curve"/>
      <point x="610.0" y="178"/>
      <point x="658.0" y="355"/>
      <point x="705.0" y="533" type="curve"/>
    </contour>
    <contour>
      <point x="304.0" y="533"/>
      <point x="426.0" y="533"/>
      <point x="304.0" y="533" type="curve"/>
      <point x="349.0" y="355"/>
      <point x="395.0" y="178"/>
      <point x="441.0" y="0" type="curve"/>
      <point x="562.0" y="0"/>
      <point x="441.0" y="0"/>
      <point x="562.0" y="0" type="curve"/>
      <point x="517.0" y="178"/>
      <point x="471.0" y="355"/>
      <point x="426.0" y="533" type="curve"/>
    </contour>
    <contour>
      <point x="12.0" y="533"/>
      <point x="134.0" y="533"/>
      <point x="12.0" y="533" type="curve"/>
      <point x="57.0" y="355"/>
      <point x="103.0" y="178"/>
      <point x="149.0" y="0" type="curve"/>
      <point x="269.0" y="0"/>
      <point x="149.0" y="0"/>
      <point x="269.0" y="0" type="curve"/>
      <point x="224.0" y="178"/>
      <point x="179.0" y="355"/>
      <point x="134.0" y="533" type="curve"/>
    </contour>
  </outline>
</glyph>
<glyph name="x" format="1">
  <advance width="510.0"/>
  <unicode hex="0078"/>
  <outline>
    <contour>
      <point x="501.0" y="0"/>
      <point x="353.0" y="0"/>
      <point x="501.0" y="0" type="curve"/>
      <point x="153.0" y="533" type="line"/>
      <point x="5.0" y="533"/>
      <point x="153.0" y="533"/>
      <point x="5.0" y="533" type="curve"/>
      <point x="353.0" y="0" type="line"/>
    </contour>
    <contour>
      <point x="362.0" y="533"/>
      <point x="506.0" y="533"/>
      <point x="362.0" y="533" type="curve"/>
      <point x="9.0" y="0" type="line"/>
      <point x="155.0" y="0"/>
      <point x="9.0" y="0"/>
      <point x="155.0" y="0" type="curve"/>
      <point x="506.0" y="533" type="line"/>
    </contour>
  </outline>
</glyph>
<glyph name="y" format="1">
  <advance width="534.0"/>
  <unicode hex="0079"/>
  <outline>
    <contour>
      <point x="329.0" y="-24"/>
      <point x="197.0" y="-24"/>
      <point x="329.0" y="-24" type="curve"/>
      <point x="269.0" y="162"/>
      <point x="212.0" y="346"/>
      <point x="152.0" y="533" type="curve"/>
      <point x="6.0" y="533"/>
      <point x="152.0" y="533"/>
      <point x="6.0" y="533" type="curve"/>
      <point x="71.0" y="348"/>
      <point x="132.0" y="161"/>
      <point x="197.0" y="-24" type="curve"/>
    </contour>
    <contour>
      <point x="230.0" y="-300"/>
      <point x="84.0" y="-300"/>
      <point x="230.0" y="-300" type="curve"/>
      <point x="331.0" y="-22"/>
      <point x="433.0" y="255"/>
      <point x="534.0" y="533" type="curve"/>
      <point x="389.0" y="533"/>
      <point x="534.0" y="533"/>
      <point x="389.0" y="533" type="curve"/>
      <point x="287.0" y="255"/>
      <point x="185.0" y="-22"/>
      <point x="84.0" y="-300" type="curve"/>
    </contour>
    <contour>
      <point x="265.0" y="610" type="move" name="top"/>
    </contour>
  </outline>
</glyph>
<glyph name="braceleft" format="1">
  <advance width="251.75"/>
  <unicode hex="007B"/>
  <outline>
    <contour>
      <point x="208.5" y="2"/>
      <point x="208.5" y="-108"/>
      <point x="208.5" y="2" type="curve"/>
      <point x="179.5" y="2"/>
      <point x="186.5" y="34"/>
      <point x="186.5" y="66" type="curve"/>
      <point x="186.5" y="117"/>
      <point x="186.5" y="168"/>
      <point x="186.5" y="219" type="curve"/>
      <point x="186.5" y="323"/>
      <point x="133.5" y="399"/>
      <point x="35.5" y="399" type="curve"/>
      <point x="35.5" y="283"/>
      <point x="35.5" y="399"/>
      <point x="35.5" y="283" type="curve"/>
      <point x="58.5" y="283"/>
      <point x="56.5" y="257"/>
      <point x="56.5" y="230" type="curve"/>
      <point x="56.5" y="177"/>
      <point x="56.5" y="124"/>
      <point x="56.5" y="72" type="curve"/>
      <point x="56.5" y="-34"/>
      <point x="108.5" y="-108"/>
      <point x="208.5" y="-108" type="curve"/>
    </contour>
    <contour>
      <point x="208.5" y="790"/>
      <point x="208.5" y="679"/>
      <point x="208.5" y="790" type="curve"/>
      <point x="108.5" y="790"/>
      <point x="56.5" y="718"/>
      <point x="56.5" y="614" type="curve"/>
      <point x="56.5" y="559"/>
      <point x="56.5" y="504"/>
      <point x="56.5" y="449" type="curve"/>
      <point x="56.5" y="423"/>
      <point x="57.5" y="399"/>
      <point x="35.5" y="399" type="curve"/>
      <point x="35.5" y="283"/>
      <point x="35.5" y="399"/>
      <point x="35.5" y="283" type="curve"/>
      <point x="134.5" y="283"/>
      <point x="186.5" y="359"/>
      <point x="186.5" y="466" type="curve"/>
      <point x="186.5" y="515"/>
      <point x="186.5" y="564"/>
      <point x="186.5" y="614" type="curve"/>
      <point x="186.5" y="647"/>
      <point x="178.5" y="679"/>
      <point x="208.5" y="679" type="curve"/>
    </contour>
  </outline>
</glyph>
<glyph name="braceright" format="1">
  <advance width="251.75"/>
  <unicode hex="007D"/>
  <outline>
    <contour>
      <point x="41.5" y="-108"/>
      <point x="41.5" y="2"/>
      <point x="41.5" y="-108" type="curve"/>
      <point x="140.5" y="-108"/>
      <point x="193.5" y="-34"/>
      <point x="193.5" y="72" type="curve"/>
      <point x="193.5" y="124"/>
      <point x="193.5" y="177"/>
      <point x="193.5" y="230" type="curve"/>
      <point x="193.5" y="257"/>
      <point x="190.5" y="283"/>
      <point x="214.5" y="283" type="curve"/>
      <point x="214.5" y="399"/>
      <point x="214.5" y="283"/>
      <point x="214.5" y="399" type="curve"/>
      <point x="115.5" y="399"/>
      <point x="63.5" y="323"/>
      <point x="63.5" y="219" type="curve"/>
      <point x="63.5" y="168"/>
      <point x="63.5" y="117"/>
      <point x="63.5" y="66" type="curve"/>
      <point x="63.5" y="34"/>
      <point x="69.5" y="2"/>
      <point x="41.5" y="2" type="curve"/>
    </contour>
    <contour>
      <point x="41.5" y="679"/>
      <point x="41.5" y="790"/>
      <point x="41.5" y="679" type="curve"/>
      <point x="70.5" y="679"/>
      <point x="63.5" y="647"/>
      <point x="63.5" y="614" type="curve"/>
      <point x="63.5" y="564"/>
      <point x="63.5" y="515"/>
      <point x="63.5" y="466" type="curve"/>
      <point x="63.5" y="359"/>
      <point x="114.5" y="283"/>
      <point x="214.5" y="283" type="curve"/>
      <point x="214.5" y="399"/>
      <point x="214.5" y="283"/>
      <point x="214.5" y="399" type="curve"/>
      <point x="191.5" y="399"/>
      <point x="193.5" y="423"/>
      <point x="193.5" y="449" type="curve"/>
      <point x="193.5" y="504"/>
      <point x="193.5" y="559"/>
      <point x="193.5" y="614" type="curve"/>
      <point x="193.5" y="718"/>
      <point x="140.5" y="790"/>
      <point x="41.5" y="790" type="curve"/>
    </contour>
  </outline>
</glyph>
<glyph name="asciitilde" format="1">
  <advance width="563.0"/>
  <unicode hex="007E"/>
  <outline>
    <contour>
      <point x="479.0" y="358"/>
      <point x="454.0" y="366"/>
      <point x="410.0" y="380" type="curve"/>
      <point x="400.0" y="344"/>
      <point x="386.0" y="310"/>
      <point x="367.0" y="310" type="curve"/>
      <point x="349.0" y="310"/>
      <point x="340.0" y="317"/>
      <point x="328.0" y="329" type="curve"/>
      <point x="287.0" y="371"/>
      <point x="257.0" y="393"/>
      <point x="198.0" y="393" type="curve"/>
      <point x="104.0" y="393"/>
      <point x="61.0" y="337"/>
      <point x="39.0" y="242" type="curve"/>
      <point x="84.0" y="227"/>
      <point x="109.0" y="218"/>
      <point x="154.0" y="203" type="curve"/>
      <point x="162.0" y="241"/>
      <point x="175.0" y="275"/>
      <point x="196.0" y="275" type="curve"/>
      <point x="215.0" y="275"/>
      <point x="224.0" y="268"/>
      <point x="238.0" y="255" type="curve"/>
      <point x="280.0" y="213"/>
      <point x="310.0" y="193"/>
      <point x="369.0" y="192" type="curve"/>
      <point x="461.0" y="192"/>
      <point x="496.0" y="252"/>
      <point x="523.0" y="344" type="curve"/>
    </contour>
  </outline>
</glyph>
<glyph name="exclamdown" format="1">
  <advance width="251.588547771"/>
  <unicode hex="00A1"/>
  <outline>
    <contour>
      <point x="56.5184607453" y="301" type="line"/>
      <point x="44.5184607453" y="-192" type="line"/>
      <point x="207.518460745" y="-193" type="line"/>
      <point x="199.518460745" y="300" type="line"/>
    </contour>
    <contour>
      <point x="55.5184607453" y="468"/>
      <point x="203.518460745" y="467"/>
      <point x="55.5184607453" y="468" type="curve"/>
      <point x="55.5184607453" y="420"/>
      <point x="86.5184607453" y="396"/>
      <point x="129.518460745" y="395" type="curve"/>
      <point x="173.518460745" y="395"/>
      <point x="203.518460745" y="421"/>
      <point x="203.518460745" y="467" type="curve"/>
      <point x="55.5184607453" y="468"/>
      <point x="203.518460745" y="467"/>
      <point x="55.5184607453" y="468" type="curve"/>
      <point x="55.5184607453" y="517"/>
      <point x="86.5184607453" y="539"/>
      <point x="130.518460745" y="538" type="curve"/>
      <point x="175.518460745" y="538"/>
      <point x="203.518460745" y="514"/>
      <point x="203.518460745" y="467" type="curve"/>
    </contour>
  </outline>
</glyph>
<glyph name="cent" format="1">
  <advance width="534.0"/>
  <unicode hex="00A2"/>
  <outline>
    <contour>
      <point x="362.0" y="-53"/>
      <point x="219.0" y="-53"/>
      <point x="362.0" y="-53" type="curve"/>
      <point x="362.0" y="-13"/>
      <point x="362.0" y="27"/>
      <point x="362.0" y="67" type="curve"/>
      <point x="219.0" y="67"/>
      <point x="362.0" y="67"/>
      <point x="219.0" y="67" type="curve"/>
      <point x="219.0" y="27"/>
      <point x="219.0" y="-13"/>
      <point x="219.0" y="-53" type="curve"/>
    </contour>
    <contour>
      <point x="235.0" y="778"/>
      <point x="378.0" y="778"/>
      <point x="235.0" y="778" type="curve"/>
      <point x="235.0" y="742"/>
      <point x="235.0" y="706"/>
      <point x="235.0" y="670" type="curve"/>
      <point x="378.0" y="670"/>
      <point x="235.0" y="670"/>
      <point x="378.0" y="670" type="curve"/>
      <point x="378.0" y="706"/>
      <point x="378.0" y="742"/>
      <point x="378.0" y="778" type="curve"/>
    </contour>
    <contour>
      <point x="507.0" y="610"/>
      <point x="426.0" y="519"/>
      <point x="507.0" y="610" type="curve"/>
      <point x="445.0" y="667"/>
      <point x="392.0" y="687"/>
      <point x="315.0" y="687" type="curve"/>
      <point x="133.0" y="687"/>
      <point x="31.0" y="554"/>
      <point x="31.0" y="363" type="curve"/>
      <point x="31.0" y="180"/>
      <point x="114.0" y="45"/>
      <point x="284.0" y="45" type="curve"/>
      <point x="376.0" y="45"/>
      <point x="441.0" y="71"/>
      <point x="503.0" y="146" type="curve"/>
      <point x="417.0" y="228"/>
      <point x="503.0" y="146"/>
      <point x="417.0" y="228" type="curve"/>
      <point x="379.0" y="191"/>
      <point x="350.0" y="161"/>
      <point x="297.0" y="161" type="curve"/>
      <point x="204.0" y="161"/>
      <point x="174.0" y="256"/>
      <point x="174.0" y="369" type="curve"/>
      <point x="174.0" y="480"/>
      <point x="214.0" y="571"/>
      <point x="302.0" y="571" type="curve"/>
      <point x="353.0" y="571"/>
      <point x="387.0" y="553"/>
      <point x="426.0" y="519" type="curve"/>
    </contour>
  </outline>
</glyph>
<glyph name="sterling" format="1">
  <advance width="406.5"/>
  <unicode hex="00A3"/>
  <outline>
    <contour>
      <point x="350.5" y="111"/>
      <point x="350.5" y="0"/>
      <point x="350.5" y="111" type="curve"/>
      <point x="250.5" y="111"/>
      <point x="140.5" y="111"/>
      <point x="40.5" y="111" type="curve"/>
      <point x="40.5" y="0"/>
      <point x="40.5" y="111"/>
      <point x="40.5" y="0" type="curve"/>
      <point x="140.5" y="0"/>
      <point x="249.5" y="0"/>
      <point x="350.5" y="0" type="curve"/>
    </contour>
    <contour>
      <point x="307.5" y="430"/>
      <point x="307.5" y="320"/>
      <point x="307.5" y="430" type="curve"/>
      <point x="226.5" y="430"/>
      <point x="135.5" y="430"/>
      <point x="55.5" y="430" type="curve"/>
      <point x="55.5" y="320"/>
      <point x="55.5" y="430"/>
      <point x="55.5" y="320" type="curve"/>
      <point x="135.5" y="320"/>
      <point x="226.5" y="320"/>
      <point x="307.5" y="320" type="curve"/>
    </contour>
    <contour>
      <point x="381.5" y="660"/>
      <point x="309.5" y="579"/>
      <point x="381.5" y="660" type="curve"/>
      <point x="341.5" y="707"/>
      <point x="304.5" y="720"/>
      <point x="252.5" y="720" type="curve"/>
      <point x="93.5" y="720"/>
      <point x="57.5" y="557"/>
      <point x="91.5" y="362" type="curve"/>
      <point x="113.5" y="234"/>
      <point x="110.5" y="111"/>
      <point x="40.5" y="111" type="curve"/>
      <point x="40.5" y="0"/>
      <point x="40.5" y="111"/>
      <point x="40.5" y="0" type="curve"/>
      <point x="214.5" y="0"/>
      <point x="252.5" y="177"/>
      <point x="217.5" y="386" type="curve"/>
      <point x="197.5" y="502"/>
      <point x="189.5" y="615"/>
      <point x="245.5" y="615" type="curve"/>
      <point x="273.5" y="615"/>
      <point x="288.5" y="598"/>
      <point x="309.5" y="579" type="curve"/>
    </contour>
  </outline>
</glyph>
<glyph name="currency" format="1">
  <advance width="583.0"/>
  <unicode hex="00A4"/>
  <outline>
    <contour>
      <point x="253.0" y="317"/>
      <point x="102.0" y="317"/>
      <point x="245.0" y="317" type="curve"/>
      <point x="245.0" y="359"/>
      <point x="251.0" y="400"/>
      <point x="288.0" y="400" type="curve"/>
      <point x="328.0" y="400"/>
      <point x="335.0" y="364"/>
      <point x="335.0" y="318" type="curve"/>
      <point x="335.0" y="274"/>
      <point x="329.0" y="228"/>
      <point x="291.0" y="228" type="curve"/>
      <point x="250.0" y="228"/>
      <point x="245.0" y="270"/>
      <point x="245.0" y="317" type="curve"/>
      <point x="102.0" y="317"/>
      <point x="253.0" y="317"/>
      <point x="110.0" y="317" type="curve"/>
      <point x="110.0" y="198"/>
      <point x="177.0" y="118"/>
      <point x="292.0" y="118" type="curve"/>
      <point x="407.0" y="118"/>
      <point x="473.0" y="201"/>
      <point x="473.0" y="320" type="curve"/>
      <point x="473.0" y="433"/>
      <point x="410.0" y="510"/>
      <point x="300.0" y="510" type="curve"/>
      <point x="183.0" y="510"/>
      <point x="110.0" y="434"/>
      <point x="110.0" y="317" type="curve"/>
    </contour>
    <contour>
      <point x="381.0" y="337" type="line"/>
      <point x="542.0" y="484" type="line"/>
      <point x="441.0" y="585" type="line"/>
      <point x="294.0" y="424" type="line"/>
    </contour>
    <contour>
      <point x="300.0" y="213" type="line"/>
      <point x="447.0" y="52" type="line"/>
      <point x="548.0" y="153" type="line"/>
      <point x="387.0" y="300" type="line"/>
    </contour>
    <contour>
      <point x="197.0" y="299" type="line"/>
      <point x="36.0" y="152" type="line"/>
      <point x="137.0" y="51" type="line"/>
      <point x="284.0" y="212" type="line"/>
    </contour>
    <contour>
      <point x="292.0" y="425" type="line"/>
      <point x="145.0" y="586" type="line"/>
      <point x="44.0" y="485" type="line"/>
      <point x="205.0" y="338" type="line"/>
    </contour>
  </outline>
</glyph>
<glyph name="yen" format="1">
  <advance width="549.0"/>
  <unicode hex="00A5"/>
  <outline>
    <contour>
      <point x="438.0" y="420"/>
      <point x="438.0" y="298"/>
      <point x="438.0" y="420" type="curve"/>
      <point x="385.0" y="420"/>
      <point x="332.0" y="420"/>
      <point x="280.0" y="420" type="curve"/>
      <point x="280.0" y="298"/>
      <point x="280.0" y="420"/>
      <point x="280.0" y="298" type="curve"/>
      <point x="332.0" y="298"/>
      <point x="385.0" y="298"/>
      <point x="438.0" y="298" type="curve"/>
    </contour>
    <contour>
      <point x="258.0" y="420"/>
      <point x="258.0" y="298"/>
      <point x="258.0" y="420" type="curve"/>
      <point x="206.0" y="420"/>
      <point x="154.0" y="420"/>
      <point x="103.0" y="420" type="curve"/>
      <point x="103.0" y="298"/>
      <point x="103.0" y="420"/>
      <point x="103.0" y="298" type="curve"/>
      <point x="154.0" y="298"/>
      <point x="206.0" y="298"/>
      <point x="258.0" y="298" type="curve"/>
    </contour>
    <contour>
      <point x="438.0" y="276"/>
      <point x="438.0" y="155"/>
      <point x="438.0" y="276" type="curve"/>
      <point x="326.0" y="276"/>
      <point x="214.0" y="276"/>
      <point x="103.0" y="276" type="curve"/>
      <point x="103.0" y="155"/>
      <point x="103.0" y="276"/>
      <point x="103.0" y="155" type="curve"/>
      <point x="214.0" y="155"/>
      <point x="326.0" y="155"/>
      <point x="438.0" y="155" type="curve"/>
    </contour>
    <contour>
      <point x="22.0" y="722"/>
      <point x="167.0" y="722"/>
      <point x="22.0" y="722" type="curve"/>
      <point x="81.0" y="594"/>
      <point x="136.0" y="469"/>
      <point x="193.0" y="337" type="curve"/>
      <point x="338.0" y="337"/>
      <point x="171.0" y="337"/>
      <point x="316.0" y="337" type="curve"/>
      <point x="267.0" y="470"/>
      <point x="220.0" y="591"/>
      <point x="167.0" y="722" type="curve"/>
    </contour>
    <contour>
      <point x="385.0" y="722"/>
      <point x="530.0" y="722"/>
      <point x="385.0" y="722" type="curve"/>
      <point x="326.0" y="589"/>
      <point x="276.0" y="469"/>
      <point x="216.0" y="337" type="curve"/>
      <point x="361.0" y="337"/>
      <point x="204.0" y="337"/>
      <point x="349.0" y="337" type="curve"/>
      <point x="410.0" y="468"/>
      <point x="468.0" y="594"/>
      <point x="530.0" y="722" type="curve"/>
    </contour>
    <contour>
      <point x="349.0" y="0"/>
      <point x="193.0" y="0"/>
      <point x="349.0" y="0" type="curve"/>
      <point x="349.0" y="115"/>
      <point x="349.0" y="222"/>
      <point x="349.0" y="337" type="curve"/>
      <point x="193.0" y="337"/>
      <point x="349.0" y="337"/>
      <point x="193.0" y="337" type="curve"/>
      <point x="193.0" y="222"/>
      <point x="193.0" y="115"/>
      <point x="193.0" y="0" type="curve"/>
    </contour>
  </outline>
</glyph>
<glyph name="section" format="1">
  <advance width="449.0"/>
  <unicode hex="00A7"/>
  <outline>
    <contour>
      <point x="365.0" y="698"/>
      <point x="298.0" y="610"/>
      <point x="365.0" y="698" type="curve"/>
      <point x="318.0" y="733"/>
      <point x="283.0" y="748"/>
      <point x="230.0" y="748" type="curve"/>
      <point x="125.0" y="748"/>
      <point x="57.0" y="690"/>
      <point x="57.0" y="594" type="curve"/>
      <point x="57.0" y="510"/>
      <point x="102.0" y="458"/>
      <point x="181.0" y="426" type="curve"/>
      <point x="226.0" y="407"/>
      <point x="277.0" y="400"/>
      <point x="277.0" y="361" type="curve"/>
      <point x="277.0" y="318"/>
      <point x="252.0" y="291"/>
      <point x="209.0" y="282" type="curve"/>
      <point x="294.0" y="193"/>
      <point x="209.0" y="282"/>
      <point x="294.0" y="193" type="curve"/>
      <point x="377.0" y="216"/>
      <point x="420.0" y="275"/>
      <point x="420.0" y="361" type="curve"/>
      <point x="419.0" y="456"/>
      <point x="345.0" y="496"/>
      <point x="252.0" y="531" type="curve"/>
      <point x="221.0" y="543"/>
      <point x="191.0" y="561"/>
      <point x="191.0" y="594" type="curve"/>
      <point x="191.0" y="616"/>
      <point x="205.0" y="638"/>
      <point x="231.0" y="638" type="curve"/>
      <point x="263.0" y="638"/>
      <point x="275.0" y="627"/>
      <point x="298.0" y="610" type="curve"/>
    </contour>
    <contour>
      <point x="157.0" y="528"/>
      <point x="228.0" y="445"/>
      <point x="157.0" y="528" type="curve"/>
      <point x="78.0" y="499"/>
      <point x="31.0" y="449"/>
      <point x="31.0" y="366" type="curve"/>
      <point x="31.0" y="275"/>
      <point x="91.0" y="227"/>
      <point x="179.0" y="194" type="curve"/>
      <point x="217.0" y="179"/>
      <point x="260.0" y="172"/>
      <point x="260.0" y="133" type="curve"/>
      <point x="260.0" y="107"/>
      <point x="246.0" y="84"/>
      <point x="224.0" y="84" type="curve"/>
      <point x="189.0" y="84"/>
      <point x="172.0" y="99"/>
      <point x="145.0" y="121" type="curve"/>
      <point x="67.0" y="43"/>
      <point x="145.0" y="121"/>
      <point x="67.0" y="43" type="curve"/>
      <point x="115.0" y="-8"/>
      <point x="159.0" y="-26"/>
      <point x="222.0" y="-26" type="curve"/>
      <point x="326.0" y="-26"/>
      <point x="398.0" y="31"/>
      <point x="398.0" y="133" type="curve"/>
      <point x="397.0" y="217"/>
      <point x="350.0" y="269"/>
      <point x="270.0" y="299" type="curve"/>
      <point x="224.0" y="317"/>
      <point x="174.0" y="325"/>
      <point x="174.0" y="366" type="curve"/>
      <point x="174.0" y="405"/>
      <point x="192.0" y="432"/>
      <point x="228.0" y="445" type="curve"/>
    </contour>
  </outline>
</glyph>
<glyph name="dieresis" format="1">
  <advance width="376.65"/>
  <unicode hex="00A8"/>
  <outline>
    <contour>
      <point x="165.7" y="670"/>
      <point x="17.7" y="670"/>
      <point x="165.7" y="670" type="curve"/>
      <point x="165.7" y="718"/>
      <point x="133.7" y="742"/>
      <point x="90.7" y="742" type="curve"/>
      <point x="46.7" y="742"/>
      <point x="17.7" y="716"/>
      <point x="17.7" y="670" type="curve"/>
      <point x="165.7" y="670"/>
      <point x="17.7" y="670"/>
      <point x="165.7" y="670" type="curve"/>
      <point x="165.7" y="621"/>
      <point x="134.7" y="599"/>
      <point x="90.7" y="599" type="curve"/>
      <point x="45.7" y="599"/>
      <point x="17.7" y="623"/>
      <point x="17.7" y="670" type="curve"/>
    </contour>
    <contour>
      <point x="365.7" y="670"/>
      <point x="217.7" y="670"/>
      <point x="365.7" y="670" type="curve"/>
      <point x="365.7" y="718"/>
      <point x="333.7" y="742"/>
      <point x="290.7" y="742" type="curve"/>
      <point x="246.7" y="742"/>
      <point x="217.7" y="716"/>
      <point x="217.7" y="670" type="curve"/>
      <point x="365.7" y="670"/>
      <point x="217.7" y="670"/>
      <point x="365.7" y="670" type="curve"/>
      <point x="365.7" y="621"/>
      <point x="334.7" y="599"/>
      <point x="290.7" y="599" type="curve"/>
      <point x="245.7" y="599"/>
      <point x="217.7" y="623"/>
      <point x="217.7" y="670" type="curve"/>
    </contour>
    <contour>
      <point x="190.7" y="605" type="move" name="_top"/>
    </contour>
  </outline>
</glyph>
<glyph name="copyright" format="1">
  <advance width="640.0"/>
  <unicode hex="00A9"/>
  <outline>
    <contour>
      <point x="149.0" y="324"/>
      <point x="31.0" y="324"/>
      <point x="146.0" y="324" type="curve"/>
      <point x="146.0" y="452"/>
      <point x="205.0" y="556"/>
      <point x="321.0" y="556" type="curve"/>
      <point x="435.0" y="556"/>
      <point x="492.0" y="450"/>
      <point x="492.0" y="322" type="curve"/>
      <point x="492.0" y="199"/>
      <point x="438.0" y="94"/>
      <point x="328.0" y="94" type="curve"/>
      <point x="212.0" y="94"/>
      <point x="146.0" y="197"/>
      <point x="146.0" y="324" type="curve"/>
      <point x="31.0" y="324"/>
      <point x="149.0" y="324"/>
      <point x="34.0" y="324" type="curve"/>
      <point x="34.0" y="142"/>
      <point x="146.0" y="6"/>
      <point x="323.0" y="6" type="curve"/>
      <point x="496.0" y="6"/>
      <point x="602.0" y="144"/>
      <point x="602.0" y="326" type="curve"/>
      <point x="602.0" y="508"/>
      <point x="494.0" y="645"/>
      <point x="321.0" y="645" type="curve"/>
      <point x="145.0" y="645"/>
      <point x="34.0" y="508"/>
      <point x="34.0" y="324" type="curve"/>
    </contour>
    <contour>
      <point x="463.0" y="438"/>
      <point x="364.0" y="396"/>
      <point x="455.0" y="435" type="curve"/>
      <point x="420.0" y="493"/>
      <point x="378.0" y="513"/>
      <point x="328.0" y="513" type="curve"/>
      <point x="218.0" y="513"/>
      <point x="164.0" y="436"/>
      <point x="164.0" y="323" type="curve"/>
      <point x="164.0" y="214"/>
      <point x="211.0" y="138"/>
      <point x="314.0" y="138" type="curve"/>
      <point x="370.0" y="138"/>
      <point x="410.0" y="148"/>
      <point x="449.0" y="206" type="curve"/>
      <point x="378.0" y="257"/>
      <point x="449.0" y="206"/>
      <point x="378.0" y="257" type="curve"/>
      <point x="359.0" y="239"/>
      <point x="345.0" y="227"/>
      <point x="319.0" y="227" type="curve"/>
      <point x="274.0" y="227"/>
      <point x="269.0" y="274"/>
      <point x="269.0" y="327" type="curve"/>
      <point x="269.0" y="380"/>
      <point x="277.0" y="425"/>
      <point x="323.0" y="425" type="curve"/>
      <point x="343.0" y="425"/>
      <point x="359.0" y="418"/>
      <point x="372.0" y="399" type="curve"/>
    </contour>
  </outline>
</glyph>
<glyph name="ordfeminine" format="1">
  <advance width="340.0"/>
  <unicode hex="00AA"/>
  <outline>
    <contour>
      <point x="292.0" y="424"/>
      <point x="200.0" y="424"/>
      <point x="292.0" y="424" type="curve"/>
      <point x="292.0" y="503"/>
      <point x="292.0" y="583"/>
      <point x="292.0" y="662" type="curve"/>
      <point x="292.0" y="738"/>
      <point x="241.0" y="770"/>
      <point x="167.0" y="770" type="curve"/>
      <point x="114.0" y="770"/>
      <point x="76.0" y="749"/>
      <point x="49.0" y="721" type="curve"/>
      <point x="83.0" y="661"/>
      <point x="49.0" y="721"/>
      <point x="83.0" y="661" type="curve"/>
      <point x="100.0" y="678"/>
      <point x="121.0" y="696"/>
      <point x="155.0" y="696" type="curve"/>
      <point x="184.0" y="696"/>
      <point x="200.0" y="680"/>
      <point x="200.0" y="651" type="curve"/>
      <point x="200.0" y="575"/>
      <point x="200.0" y="499"/>
      <point x="200.0" y="424" type="curve"/>
    </contour>
    <contour>
      <point x="244.0" y="649"/>
      <point x="248.0" y="589"/>
      <point x="244.0" y="649" type="curve"/>
      <point x="207.0" y="644"/>
      <point x="184.0" y="642"/>
      <point x="147.0" y="636" type="curve"/>
      <point x="77.0" y="626"/>
      <point x="31.0" y="597"/>
      <point x="31.0" y="530" type="curve"/>
      <point x="31.0" y="461"/>
      <point x="68.0" y="421"/>
      <point x="136.0" y="421" type="curve"/>
      <point x="203.0" y="421"/>
      <point x="229.0" y="477"/>
      <point x="269.0" y="523" type="curve"/>
      <point x="223.0" y="562"/>
      <point x="269.0" y="523"/>
      <point x="223.0" y="562" type="curve"/>
      <point x="207.0" y="524"/>
      <point x="194.0" y="492"/>
      <point x="158.0" y="492" type="curve"/>
      <point x="130.0" y="492"/>
      <point x="120.0" y="507"/>
      <point x="120.0" y="534" type="curve"/>
      <point x="120.0" y="554"/>
      <point x="134.0" y="570"/>
      <point x="150.0" y="573" type="curve"/>
      <point x="191.0" y="579"/>
      <point x="207.0" y="582"/>
      <point x="248.0" y="589" type="curve"/>
    </contour>
  </outline>
</glyph>
<glyph name="guillemotleft" format="1">
  <advance width="428.25"/>
  <unicode hex="00AB"/>
  <outline>
    <contour>
      <point x="192.25" y="479"/>
      <point x="192.25" y="368"/>
      <point x="192.25" y="489" type="curve"/>
      <point x="150.25" y="454"/>
      <point x="77.25" y="393"/>
      <point x="34.25" y="358" type="curve"/>
      <point x="34.25" y="236"/>
      <point x="34.25" y="338"/>
      <point x="34.25" y="216" type="curve"/>
      <point x="77.25" y="251"/>
      <point x="150.25" y="323"/>
      <point x="192.25" y="358" type="curve"/>
    </contour>
    <contour>
      <point x="192.25" y="209"/>
      <point x="192.25" y="98"/>
      <point x="192.25" y="219" type="curve"/>
      <point x="150.25" y="254"/>
      <point x="77.25" y="323"/>
      <point x="34.25" y="358" type="curve"/>
      <point x="34.25" y="236"/>
      <point x="34.25" y="338"/>
      <point x="34.25" y="216" type="curve"/>
      <point x="77.25" y="181"/>
      <point x="150.25" y="122"/>
      <point x="192.25" y="88" type="curve"/>
    </contour>
    <contour>
      <point x="374.25" y="479"/>
      <point x="374.25" y="368"/>
      <point x="374.25" y="489" type="curve"/>
      <point x="332.25" y="454"/>
      <point x="259.25" y="393"/>
      <point x="216.25" y="358" type="curve"/>
      <point x="216.25" y="236"/>
      <point x="216.25" y="338"/>
      <point x="216.25" y="216" type="curve"/>
      <point x="259.25" y="251"/>
      <point x="332.25" y="323"/>
      <point x="374.25" y="358" type="curve"/>
    </contour>
    <contour>
      <point x="374.25" y="209"/>
      <point x="374.25" y="98"/>
      <point x="374.25" y="219" type="curve"/>
      <point x="332.25" y="254"/>
      <point x="259.25" y="323"/>
      <point x="216.25" y="358" type="curve"/>
      <point x="216.25" y="236"/>
      <point x="216.25" y="338"/>
      <point x="216.25" y="216" type="curve"/>
      <point x="259.25" y="181"/>
      <point x="332.25" y="122"/>
      <point x="374.25" y="88" type="curve"/>
    </contour>
  </outline>
</glyph>
<glyph name="logicalnot" format="1">
  <advance width="488.0"/>
  <unicode hex="00AC"/>
  <outline>
    <contour>
      <point x="52.0" y="255"/>
      <point x="52.0" y="376"/>
      <point x="52.0" y="255" type="curve"/>
      <point x="52.0" y="255"/>
      <point x="433.0" y="255"/>
      <point x="433.0" y="255" type="curve"/>
      <point x="433.0" y="376"/>
      <point x="433.0" y="255"/>
      <point x="433.0" y="376" type="curve"/>
      <point x="433.0" y="376"/>
      <point x="52.0" y="376"/>
      <point x="52.0" y="376" type="curve"/>
    </contour>
    <contour>
      <point x="434.0" y="138"/>
      <point x="290.0" y="138"/>
      <point x="433.0" y="138" type="curve"/>
      <point x="433.0" y="138"/>
      <point x="433.0" y="376"/>
      <point x="433.0" y="376" type="curve"/>
      <point x="290.0" y="376"/>
      <point x="434.0" y="376"/>
      <point x="291.0" y="376" type="curve"/>
      <point x="291.0" y="376"/>
      <point x="291.0" y="138"/>
      <point x="291.0" y="138" type="curve"/>
    </contour>
  </outline>
</glyph>
<glyph name="registered" format="1">
  <advance width="664.0"/>
  <unicode hex="00AE"/>
  <outline>
    <contour>
      <point x="73.0" y="322"/>
      <point x="98.0" y="322"/>
      <point x="133.0" y="322" type="curve"/>
      <point x="133.0" y="464"/>
      <point x="202.0" y="564"/>
      <point x="335.0" y="564" type="curve"/>
      <point x="467.0" y="564"/>
      <point x="532.0" y="462"/>
      <point x="532.0" y="320" type="curve"/>
      <point x="532.0" y="182"/>
      <point x="470.0" y="82"/>
      <point x="342.0" y="82" type="curve"/>
      <point x="207.0" y="82"/>
      <point x="133.0" y="180"/>
      <point x="133.0" y="322" type="curve"/>
      <point x="98.0" y="322"/>
      <point x="73.0" y="322"/>
      <point x="38.0" y="322" type="curve"/>
      <point x="38.0" y="130"/>
      <point x="149.0" y="4"/>
      <point x="337.0" y="4" type="curve"/>
      <point x="522.0" y="4"/>
      <point x="626.0" y="133"/>
      <point x="626.0" y="324" type="curve"/>
      <point x="626.0" y="515"/>
      <point x="520.0" y="643"/>
      <point x="335.0" y="643" type="curve"/>
      <point x="147.0" y="643"/>
      <point x="38.0" y="515"/>
      <point x="38.0" y="322" type="curve"/>
    </contour>
    <contour>
      <point x="269.0" y="313"/>
      <point x="428.0" y="321"/>
      <point x="302.0" y="321" type="curve"/>
      <point x="378.0" y="141" type="line"/>
      <point x="433.0" y="141"/>
      <point x="418.0" y="141"/>
      <point x="472.0" y="141" type="curve"/>
      <point x="395.0" y="313" type="line"/>
    </contour>
    <contour>
      <point x="289.0" y="141"/>
      <point x="242.0" y="141"/>
      <point x="322.0" y="141" type="curve"/>
      <point x="322.0" y="234"/>
      <point x="322.0" y="414"/>
      <point x="322.0" y="507" type="curve"/>
      <point x="256.0" y="507"/>
      <point x="293.0" y="509"/>
      <point x="220.0" y="509" type="curve"/>
      <point x="220.0" y="416"/>
      <point x="220.0" y="234"/>
      <point x="220.0" y="141" type="curve"/>
    </contour>
    <contour>
      <point x="279.0" y="269"/>
      <point x="279.0" y="357"/>
      <point x="279.0" y="269" type="curve"/>
      <point x="292.0" y="269"/>
      <point x="306.0" y="269"/>
      <point x="319.0" y="269" type="curve"/>
      <point x="404.0" y="269"/>
      <point x="460.0" y="307"/>
      <point x="460.0" y="392" type="curve"/>
      <point x="460.0" y="464"/>
      <point x="413.0" y="509"/>
      <point x="341.0" y="509" type="curve"/>
      <point x="339.0" y="509"/>
      <point x="223.0" y="509"/>
      <point x="221.0" y="509" type="curve"/>
      <point x="221.0" y="460"/>
      <point x="334.0" y="509"/>
      <point x="220.0" y="420" type="curve"/>
      <point x="253.0" y="420"/>
      <point x="287.0" y="420"/>
      <point x="320.0" y="420" type="curve"/>
      <point x="343.0" y="420"/>
      <point x="360.0" y="410"/>
      <point x="360.0" y="388" type="curve"/>
      <point x="360.0" y="370"/>
      <point x="352.0" y="357"/>
      <point x="335.0" y="357" type="curve"/>
      <point x="316.0" y="357"/>
      <point x="297.0" y="357"/>
      <point x="279.0" y="357" type="curve"/>
    </contour>
  </outline>
</glyph>
<glyph name="macron" format="1">
  <advance width="286.25"/>
  <unicode hex="00AF"/>
  <outline>
    <contour>
      <point x="192.25" y="685"/>
      <point x="192.25" y="575"/>
      <point x="192.25" y="685" type="curve"/>
      <point x="136.25" y="685"/>
      <point x="79.25" y="685"/>
      <point x="23.25" y="685" type="curve"/>
      <point x="23.25" y="575"/>
      <point x="23.25" y="685"/>
      <point x="23.25" y="575" type="curve"/>
      <point x="79.25" y="575"/>
      <point x="136.25" y="575"/>
      <point x="192.25" y="575" type="curve"/>
    </contour>
    <contour>
      <point x="108.25" y="575" type="move" name="_top"/>
    </contour>
  </outline>
</glyph>
<glyph name="degree" format="1">
  <advance width="388.0"/>
  <unicode hex="00B0"/>
  <outline>
    <contour>
      <point x="360.0" y="625" type="curve"/>
      <point x="360.0" y="728"/>
      <point x="295.0" y="792"/>
      <point x="192.0" y="792" type="curve"/>
      <point x="91.0" y="792"/>
      <point x="29.0" y="727"/>
      <point x="29.0" y="625" type="curve"/>
      <point x="72.0" y="625"/>
      <point x="101.0" y="625"/>
      <point x="144.0" y="625" type="curve"/>
      <point x="144.0" y="663"/>
      <point x="158.0" y="692"/>
      <point x="192.0" y="692" type="curve"/>
      <point x="226.0" y="692"/>
      <point x="240.0" y="663"/>
      <point x="240.0" y="625" type="curve"/>
      <point x="240.0" y="587"/>
      <point x="228.0" y="558"/>
      <point x="194.0" y="558" type="curve"/>
      <point x="159.0" y="558"/>
      <point x="144.0" y="587"/>
      <point x="144.0" y="625" type="curve"/>
      <point x="101.0" y="625"/>
      <point x="72.0" y="625"/>
      <point x="29.0" y="625" type="curve"/>
      <point x="29.0" y="522"/>
      <point x="92.0" y="457"/>
      <point x="194.0" y="457" type="curve"/>
      <point x="297.0" y="457"/>
      <point x="360.0" y="522"/>
    </contour>
    <contour>
      <point x="245.0" y="830" type="move" name="_top"/>
    </contour>
    <contour>
      <point x="235.0" y="391" type="move" name="_bottom"/>
    </contour>
  </outline>
</glyph>
<glyph name="plusminus" format="1">
  <advance width="609.0"/>
  <unicode hex="00B1"/>
  <outline>
    <contour>
      <point x="44.0" y="57" type="line"/>
      <point x="565.0" y="57" type="line"/>
      <point x="565.0" y="178" type="line"/>
      <point x="44.0" y="178" type="line"/>
    </contour>
    <contour>
      <point x="44.0" y="255"/>
      <point x="44.0" y="376"/>
      <point x="44.0" y="255" type="curve"/>
      <point x="44.0" y="255"/>
      <point x="565.0" y="255"/>
      <point x="565.0" y="255" type="curve"/>
      <point x="565.0" y="376"/>
      <point x="565.0" y="255"/>
      <point x="565.0" y="376" type="curve"/>
      <point x="565.0" y="376"/>
      <point x="44.0" y="376"/>
      <point x="44.0" y="376" type="curve"/>
    </contour>
    <contour>
      <point x="381.0" y="58"/>
      <point x="228.0" y="58"/>
      <point x="371.0" y="58" type="curve"/>
      <point x="371.0" y="58"/>
      <point x="371.0" y="578"/>
      <point x="371.0" y="578" type="curve"/>
      <point x="228.0" y="578"/>
      <point x="381.0" y="578"/>
      <point x="238.0" y="578" type="curve"/>
      <point x="238.0" y="578"/>
      <point x="238.0" y="58"/>
      <point x="238.0" y="58" type="curve"/>
    </contour>
  </outline>
</glyph>
<glyph name="paragraph" format="1">
  <advance width="702.0"/>
  <unicode hex="00B6"/>
  <outline>
    <contour>
      <point x="368.0" y="612"/>
      <point x="368.0" y="722"/>
      <point x="368.0" y="612" type="curve"/>
      <point x="505.0" y="612"/>
      <point x="368.0" y="612"/>
      <point x="505.0" y="612" type="curve"/>
      <point x="505.0" y="722"/>
      <point x="505.0" y="612"/>
      <point x="505.0" y="722" type="curve"/>
      <point x="459.0" y="722"/>
      <point x="413.0" y="722"/>
      <point x="368.0" y="722" type="curve"/>
    </contour>
    <contour>
      <point x="344.0" y="389"/>
      <point x="388.0" y="301"/>
      <point x="344.0" y="389" type="curve"/>
      <point x="310.0" y="369"/>
      <point x="284.0" y="357"/>
      <point x="244.0" y="357" type="curve"/>
      <point x="188.0" y="357"/>
      <point x="168.0" y="409"/>
      <point x="168.0" y="474" type="curve"/>
      <point x="168.0" y="552"/>
      <point x="207.0" y="612"/>
      <point x="280.0" y="612" type="curve"/>
      <point x="309.0" y="612"/>
      <point x="337.0" y="612"/>
      <point x="365.0" y="612" type="curve"/>
      <point x="365.0" y="722"/>
      <point x="365.0" y="612"/>
      <point x="365.0" y="722" type="curve"/>
      <point x="331.0" y="722"/>
      <point x="296.0" y="722"/>
      <point x="261.0" y="722" type="curve"/>
      <point x="117.0" y="722"/>
      <point x="25.0" y="624"/>
      <point x="25.0" y="479" type="curve"/>
      <point x="25.0" y="339"/>
      <point x="116.0" y="254"/>
      <point x="257.0" y="252" type="curve"/>
      <point x="307.0" y="252"/>
      <point x="347.0" y="273"/>
      <point x="389.0" y="298" type="curve"/>
    </contour>
    <contour>
      <point x="440.0" y="0"/>
      <point x="297.0" y="0"/>
      <point x="440.0" y="0" type="curve"/>
      <point x="440.0" y="241"/>
      <point x="440.0" y="481"/>
      <point x="440.0" y="722" type="curve"/>
      <point x="297.0" y="722"/>
      <point x="440.0" y="722"/>
      <point x="297.0" y="722" type="curve"/>
      <point x="297.0" y="481"/>
      <point x="297.0" y="241"/>
      <point x="297.0" y="0" type="curve"/>
    </contour>
    <contour>
      <point x="644.0" y="0"/>
      <point x="501.0" y="0"/>
      <point x="644.0" y="0" type="curve"/>
      <point x="644.0" y="241"/>
      <point x="644.0" y="481"/>
      <point x="644.0" y="722" type="curve"/>
      <point x="501.0" y="722"/>
      <point x="644.0" y="722"/>
      <point x="501.0" y="722" type="curve"/>
      <point x="501.0" y="481"/>
      <point x="501.0" y="241"/>
      <point x="501.0" y="0" type="curve"/>
    </contour>
  </outline>
</glyph>
<glyph name="periodcentered" format="1">
  <advance width="219.65"/>
  <unicode hex="00B7"/>
  <outline>
    <contour>
      <point x="183.7" y="440"/>
      <point x="35.7" y="440"/>
      <point x="183.7" y="440" type="curve"/>
      <point x="183.7" y="488"/>
      <point x="151.7" y="512"/>
      <point x="108.7" y="512" type="curve"/>
      <point x="64.7" y="512"/>
      <point x="35.7" y="486"/>
      <point x="35.7" y="440" type="curve"/>
      <point x="183.7" y="440"/>
      <point x="35.7" y="440"/>
      <point x="183.7" y="440" type="curve"/>
      <point x="183.7" y="391"/>
      <point x="152.7" y="369"/>
      <point x="108.7" y="369" type="curve"/>
      <point x="63.7" y="369"/>
      <point x="35.7" y="393"/>
      <point x="35.7" y="440" type="curve"/>
    </contour>
  </outline>
</glyph>
<glyph name="cedilla" format="1">
  <advance width="286.0"/>
  <unicode hex="00B8"/>
  <outline>
    <contour>
      <point x="97.0" y="166"/>
      <point x="207.0" y="89"/>
      <point x="97.0" y="166" type="curve"/>
      <point x="87.0" y="145"/>
      <point x="47.0" y="49"/>
      <point x="37.0" y="27" type="curve"/>
      <point x="135.0" y="-61"/>
      <point x="37.0" y="27"/>
      <point x="135.0" y="-61" type="curve"/>
      <point x="147.0" y="-35"/>
      <point x="195.0" y="63"/>
      <point x="207.0" y="89" type="curve"/>
    </contour>
    <contour>
      <point x="135.0" y="-61"/>
      <point x="37.0" y="27"/>
      <point x="135.0" y="-61" type="curve"/>
      <point x="140.0" y="-57"/>
      <point x="144.0" y="-53"/>
      <point x="150.0" y="-53" type="curve"/>
      <point x="157.0" y="-53"/>
      <point x="162.0" y="-56"/>
      <point x="162.0" y="-65" type="curve"/>
      <point x="162.0" y="-78"/>
      <point x="149.0" y="-82"/>
      <point x="134.0" y="-82" type="curve"/>
      <point x="116.0" y="-82"/>
      <point x="101.0" y="-78"/>
      <point x="85.0" y="-68" type="curve"/>
      <point x="31.0" y="-148"/>
      <point x="85.0" y="-68"/>
      <point x="31.0" y="-148" type="curve"/>
      <point x="61.0" y="-168"/>
      <point x="90.0" y="-176"/>
      <point x="127.0" y="-176" type="curve"/>
      <point x="198.0" y="-176"/>
      <point x="247.0" y="-137"/>
      <point x="247.0" y="-63" type="curve"/>
      <point x="247.0" y="7"/>
      <point x="203.0" y="51"/>
      <point x="134.0" y="51" type="curve"/>
      <point x="97.0" y="51"/>
      <point x="70.0" y="46"/>
      <point x="37.0" y="27" type="curve"/>
    </contour>
    <contour>
      <point x="199.0" y="89" type="move" name="_bottom"/>
    </contour>
  </outline>
</glyph>
<glyph name="ordmasculine" format="1">
  <advance width="355.0"/>
  <unicode hex="00BA"/>
  <outline>
    <contour>
      <point x="114.0" y="593" type="line"/>
      <point x="114.0" y="644"/>
      <point x="125.0" y="694"/>
      <point x="174.0" y="694" type="curve"/>
      <point x="222.0" y="694"/>
      <point x="235.0" y="646"/>
      <point x="235.0" y="593" type="curve"/>
      <point x="235.0" y="539"/>
      <point x="225.0" y="494"/>
      <point x="180.0" y="494" type="curve"/>
      <point x="125.0" y="494"/>
      <point x="114.0" y="538"/>
      <point x="114.0" y="593" type="curve"/>
      <point x="29.0" y="593" type="line"/>
      <point x="29.0" y="490"/>
      <point x="79.0" y="420"/>
      <point x="176.0" y="420" type="curve"/>
      <point x="274.0" y="420"/>
      <point x="327.0" y="489"/>
      <point x="327.0" y="593" type="curve"/>
      <point x="327.0" y="697"/>
      <point x="276.0" y="768"/>
      <point x="178.0" y="768" type="curve"/>
      <point x="79.0" y="768"/>
      <point x="29.0" y="697"/>
      <point x="29.0" y="593" type="curve"/>
    </contour>
  </outline>
</glyph>
<glyph name="guillemotright" format="1">
  <advance width="424.5"/>
  <unicode hex="00BB"/>
  <outline>
    <contour>
      <point x="233.5" y="479"/>
      <point x="233.5" y="368"/>
      <point x="233.5" y="489" type="curve"/>
      <point x="275.5" y="454"/>
      <point x="348.5" y="393"/>
      <point x="391.5" y="358" type="curve"/>
      <point x="391.5" y="236"/>
      <point x="391.5" y="338"/>
      <point x="391.5" y="216" type="curve"/>
      <point x="348.5" y="251"/>
      <point x="275.5" y="323"/>
      <point x="233.5" y="358" type="curve"/>
    </contour>
    <contour>
      <point x="233.5" y="209"/>
      <point x="233.5" y="98"/>
      <point x="233.5" y="219" type="curve"/>
      <point x="275.5" y="254"/>
      <point x="348.5" y="323"/>
      <point x="391.5" y="358" type="curve"/>
      <point x="391.5" y="236"/>
      <point x="391.5" y="338"/>
      <point x="391.5" y="216" type="curve"/>
      <point x="348.5" y="181"/>
      <point x="275.5" y="122"/>
      <point x="233.5" y="88" type="curve"/>
    </contour>
    <contour>
      <point x="51.5" y="479"/>
      <point x="51.5" y="368"/>
      <point x="51.5" y="489" type="curve"/>
      <point x="93.5" y="454"/>
      <point x="166.5" y="393"/>
      <point x="209.5" y="358" type="curve"/>
      <point x="209.5" y="236"/>
      <point x="209.5" y="338"/>
      <point x="209.5" y="216" type="curve"/>
      <point x="166.5" y="251"/>
      <point x="93.5" y="323"/>
      <point x="51.5" y="358" type="curve"/>
    </contour>
    <contour>
      <point x="51.5" y="209"/>
      <point x="51.5" y="98"/>
      <point x="51.5" y="219" type="curve"/>
      <point x="93.5" y="254"/>
      <point x="166.5" y="323"/>
      <point x="209.5" y="358" type="curve"/>
      <point x="209.5" y="236"/>
      <point x="209.5" y="338"/>
      <point x="209.5" y="216" type="curve"/>
      <point x="166.5" y="181"/>
      <point x="93.5" y="122"/>
      <point x="51.5" y="88" type="curve"/>
    </contour>
  </outline>
</glyph>
<glyph name="questiondown" format="1">
  <advance width="473.0"/>
  <unicode hex="00BF"/>
  <outline>
    <contour>
      <point x="302.0" y="365"/>
      <point x="172.0" y="365"/>
      <point x="302.0" y="365" type="curve"/>
      <point x="302.0" y="402"/>
      <point x="302.0" y="487"/>
      <point x="302.0" y="524" type="curve"/>
      <point x="172.0" y="524"/>
      <point x="302.0" y="524"/>
      <point x="172.0" y="524" type="curve"/>
      <point x="172.0" y="487"/>
      <point x="172.0" y="402"/>
      <point x="172.0" y="365" type="curve"/>
    </contour>
    <contour>
      <point x="362.0" y="164" type="line"/>
      <point x="330.0" y="130"/>
      <point x="302.0" y="111"/>
      <point x="258.0" y="111" type="curve"/>
      <point x="194.0" y="111"/>
      <point x="161.0" y="160"/>
      <point x="161.0" y="227" type="curve"/>
      <point x="161.0" y="309"/>
      <point x="208.0" y="365"/>
      <point x="288.0" y="365" type="curve"/>
      <point x="288.0" y="404"/>
      <point x="289.0" y="432"/>
      <point x="289.0" y="471" type="curve"/>
      <point x="129.0" y="471"/>
      <point x="25.0" y="378"/>
      <point x="25.0" y="227" type="curve"/>
      <point x="25.0" y="81"/>
      <point x="116.0" y="-7"/>
      <point x="252.0" y="-7" type="curve"/>
      <point x="331.0" y="-7"/>
      <point x="392.0" y="18"/>
      <point x="437.0" y="73" type="curve"/>
    </contour>
    <contour>
      <point x="162.0" y="683"/>
      <point x="310.0" y="683"/>
      <point x="162.0" y="683" type="curve"/>
      <point x="162.0" y="635"/>
      <point x="194.0" y="611"/>
      <point x="237.0" y="611" type="curve"/>
      <point x="281.0" y="611"/>
      <point x="310.0" y="637"/>
      <point x="310.0" y="683" type="curve"/>
      <point x="162.0" y="683"/>
      <point x="310.0" y="683"/>
      <point x="162.0" y="683" type="curve"/>
      <point x="162.0" y="732"/>
      <point x="193.0" y="754"/>
      <point x="237.0" y="754" type="curve"/>
      <point x="282.0" y="754"/>
      <point x="310.0" y="730"/>
      <point x="310.0" y="683" type="curve"/>
    </contour>
  </outline>
</glyph>
<glyph name="Agrave" format="1">
  <advance width="582.0"/>
  <unicode hex="00C0"/>
  <outline>
    <contour>
      <point x="403.0" y="294"/>
      <point x="449.0" y="177"/>
      <point x="403.0" y="294" type="curve"/>
      <point x="331.0" y="294"/>
      <point x="258.0" y="294"/>
      <point x="186.0" y="294" type="curve"/>
      <point x="127.0" y="177"/>
      <point x="186.0" y="294"/>
      <point x="127.0" y="177" type="curve"/>
      <point x="234.0" y="177"/>
      <point x="342.0" y="177"/>
      <point x="449.0" y="177" type="curve"/>
    </contour>
    <contour>
      <point x="574.0" y="0"/>
      <point x="425.0" y="0"/>
      <point x="574.0" y="0" type="curve"/>
      <point x="506.0" y="241"/>
      <point x="431.0" y="481"/>
      <point x="363.0" y="722" type="curve"/>
      <point x="233.0" y="722"/>
      <point x="363.0" y="722"/>
      <point x="233.0" y="722" type="curve"/>
      <point x="299.0" y="482"/>
      <point x="358.0" y="240"/>
      <point x="425.0" y="0" type="curve"/>
    </contour>
    <contour>
      <point x="150.0" y="0"/>
      <point x="-6.0" y="0"/>
      <point x="150.0" y="0" type="curve"/>
      <point x="224.0" y="240"/>
      <point x="287.0" y="482"/>
      <point x="362.0" y="722" type="curve"/>
      <point x="232.0" y="722"/>
      <point x="362.0" y="722"/>
      <point x="232.0" y="722" type="curve"/>
      <point x="156.0" y="480"/>
      <point x="69.0" y="242"/>
      <point x="-6.0" y="0" type="curve"/>
    </contour>
    <contour>
      <point x="362.0" y="781" type="line"/>
      <point x="278.0" y="947" type="line"/>
      <point x="103.0" y="947" type="line"/>
      <point x="227.0" y="781" type="line"/>
    </contour>
  </outline>
</glyph>
<glyph name="Atilde" format="1">
  <advance width="582.0"/>
  <unicode hex="00C3"/>
  <outline>
    <contour>
      <point x="403.0" y="294"/>
      <point x="449.0" y="177"/>
      <point x="403.0" y="294" type="curve"/>
      <point x="331.0" y="294"/>
      <point x="258.0" y="294"/>
      <point x="186.0" y="294" type="curve"/>
      <point x="127.0" y="177"/>
      <point x="186.0" y="294"/>
      <point x="127.0" y="177" type="curve"/>
      <point x="234.0" y="177"/>
      <point x="342.0" y="177"/>
      <point x="449.0" y="177" type="curve"/>
    </contour>
    <contour>
      <point x="574.0" y="0"/>
      <point x="425.0" y="0"/>
      <point x="574.0" y="0" type="curve"/>
      <point x="506.0" y="241"/>
      <point x="431.0" y="481"/>
      <point x="363.0" y="722" type="curve"/>
      <point x="233.0" y="722"/>
      <point x="363.0" y="722"/>
      <point x="233.0" y="722" type="curve"/>
      <point x="299.0" y="482"/>
      <point x="358.0" y="240"/>
      <point x="425.0" y="0" type="curve"/>
    </contour>
    <contour>
      <point x="150.0" y="0"/>
      <point x="-6.0" y="0"/>
      <point x="150.0" y="0" type="curve"/>
      <point x="224.0" y="240"/>
      <point x="287.0" y="482"/>
      <point x="362.0" y="722" type="curve"/>
      <point x="232.0" y="722"/>
      <point x="362.0" y="722"/>
      <point x="232.0" y="722" type="curve"/>
      <point x="156.0" y="480"/>
      <point x="69.0" y="242"/>
      <point x="-6.0" y="0" type="curve"/>
    </contour>
    <contour>
      <point x="390.0" y="972"/>
      <point x="503.0" y="912"/>
      <point x="390.0" y="972" type="curve"/>
      <point x="373.0" y="937"/>
      <point x="360.0" y="931"/>
      <point x="346.0" y="931" type="curve"/>
      <point x="321.0" y="931"/>
      <point x="309.0" y="937"/>
      <point x="291.0" y="951" type="curve" smooth="yes"/>
      <point x="265.0" y="971"/>
      <point x="252.0" y="979"/>
      <point x="223.0" y="979" type="curve"/>
      <point x="154.0" y="979"/>
      <point x="118.0" y="910"/>
      <point x="97.0" y="846" type="curve"/>
      <point x="202.0" y="785"/>
      <point x="97.0" y="847"/>
      <point x="202.0" y="785" type="curve"/>
      <point x="222.0" y="825"/>
      <point x="238.0" y="831"/>
      <point x="256.0" y="831" type="curve"/>
      <point x="276.0" y="831"/>
      <point x="286.0" y="825"/>
      <point x="300.0" y="813" type="curve" smooth="yes"/>
      <point x="330.0" y="789"/>
      <point x="346.0" y="778"/>
      <point x="381.0" y="778" type="curve"/>
      <point x="450.0" y="778"/>
      <point x="476.0" y="843"/>
      <point x="503.0" y="913" type="curve"/>
    </contour>
  </outline>
</glyph>
<glyph name="Adieresis" format="1">
  <advance width="582.0"/>
  <unicode hex="00C4"/>
  <outline>
    <contour>
      <point x="403.0" y="294"/>
      <point x="449.0" y="177"/>
      <point x="403.0" y="294" type="curve"/>
      <point x="331.0" y="294"/>
      <point x="258.0" y="294"/>
      <point x="186.0" y="294" type="curve"/>
      <point x="127.0" y="177"/>
      <point x="186.0" y="294"/>
      <point x="127.0" y="177" type="curve"/>
      <point x="234.0" y="177"/>
      <point x="342.0" y="177"/>
      <point x="449.0" y="177" type="curve"/>
    </contour>
    <contour>
      <point x="574.0" y="0"/>
      <point x="425.0" y="0"/>
      <point x="574.0" y="0" type="curve"/>
      <point x="506.0" y="241"/>
      <point x="431.0" y="481"/>
      <point x="363.0" y="722" type="curve"/>
      <point x="233.0" y="722"/>
      <point x="363.0" y="722"/>
      <point x="233.0" y="722" type="curve"/>
      <point x="299.0" y="482"/>
      <point x="358.0" y="240"/>
      <point x="425.0" y="0" type="curve"/>
    </contour>
    <contour>
      <point x="150.0" y="0"/>
      <point x="-6.0" y="0"/>
      <point x="150.0" y="0" type="curve"/>
      <point x="224.0" y="240"/>
      <point x="287.0" y="482"/>
      <point x="362.0" y="722" type="curve"/>
      <point x="232.0" y="722"/>
      <point x="362.0" y="722"/>
      <point x="232.0" y="722" type="curve"/>
      <point x="156.0" y="480"/>
      <point x="69.0" y="242"/>
      <point x="-6.0" y="0" type="curve"/>
    </contour>
    <contour>
      <point x="269.0" y="845"/>
      <point x="121.0" y="845"/>
      <point x="269.0" y="845" type="curve"/>
      <point x="269.0" y="893"/>
      <point x="237.0" y="917"/>
      <point x="194.0" y="917" type="curve"/>
      <point x="150.0" y="917"/>
      <point x="121.0" y="891"/>
      <point x="121.0" y="845" type="curve"/>
      <point x="269.0" y="845"/>
      <point x="121.0" y="845"/>
      <point x="269.0" y="845" type="curve"/>
      <point x="269.0" y="796"/>
      <point x="238.0" y="774"/>
      <point x="194.0" y="774" type="curve"/>
      <point x="149.0" y="774"/>
      <point x="121.0" y="798"/>
      <point x="121.0" y="845" type="curve"/>
    </contour>
    <contour>
      <point x="469.0" y="845"/>
      <point x="321.0" y="845"/>
      <point x="469.0" y="845" type="curve"/>
      <point x="469.0" y="893"/>
      <point x="437.0" y="917"/>
      <point x="394.0" y="917" type="curve"/>
      <point x="350.0" y="917"/>
      <point x="321.0" y="891"/>
      <point x="321.0" y="845" type="curve"/>
      <point x="469.0" y="845"/>
      <point x="321.0" y="845"/>
      <point x="469.0" y="845" type="curve"/>
      <point x="469.0" y="796"/>
      <point x="438.0" y="774"/>
      <point x="394.0" y="774" type="curve"/>
      <point x="349.0" y="774"/>
      <point x="321.0" y="798"/>
      <point x="321.0" y="845" type="curve"/>
    </contour>
  </outline>
</glyph>
<glyph name="Aring" format="1">
  <advance width="582.0"/>
  <unicode hex="00C5"/>
  <outline>
    <contour>
      <point x="403.0" y="294"/>
      <point x="449.0" y="177"/>
      <point x="403.0" y="294" type="curve"/>
      <point x="331.0" y="294"/>
      <point x="258.0" y="294"/>
      <point x="186.0" y="294" type="curve"/>
      <point x="127.0" y="177"/>
      <point x="186.0" y="294"/>
      <point x="127.0" y="177" type="curve"/>
      <point x="234.0" y="177"/>
      <point x="342.0" y="177"/>
      <point x="449.0" y="177" type="curve"/>
    </contour>
    <contour>
      <point x="574.0" y="0"/>
      <point x="425.0" y="0"/>
      <point x="574.0" y="0" type="curve"/>
      <point x="506.0" y="241"/>
      <point x="431.0" y="481"/>
      <point x="363.0" y="722" type="curve"/>
      <point x="233.0" y="722"/>
      <point x="363.0" y="722"/>
      <point x="233.0" y="722" type="curve"/>
      <point x="299.0" y="482"/>
      <point x="358.0" y="240"/>
      <point x="425.0" y="0" type="curve"/>
    </contour>
    <contour>
      <point x="150.0" y="0"/>
      <point x="-6.0" y="0"/>
      <point x="150.0" y="0" type="curve"/>
      <point x="224.0" y="240"/>
      <point x="287.0" y="482"/>
      <point x="362.0" y="722" type="curve"/>
      <point x="232.0" y="722"/>
      <point x="362.0" y="722"/>
      <point x="232.0" y="722" type="curve"/>
      <point x="156.0" y="480"/>
      <point x="69.0" y="242"/>
      <point x="-6.0" y="0" type="curve"/>
    </contour>
    <contour>
      <point x="137.0" y="926"/>
      <point x="274.0" y="926"/>
      <point x="148.0" y="926" type="curve"/>
      <point x="148.0" y="836"/>
      <point x="204.0" y="778"/>
      <point x="293.0" y="778" type="curve"/>
      <point x="383.0" y="778"/>
      <point x="439.0" y="835"/>
      <point x="439.0" y="926" type="curve"/>
      <point x="439.0" y="1016"/>
      <point x="382.0" y="1073"/>
      <point x="291.0" y="1073" type="curve"/>
      <point x="202.0" y="1073"/>
      <point x="148.0" y="1015"/>
      <point x="148.0" y="926" type="curve"/>
      <point x="274.0" y="926"/>
      <point x="137.0" y="926"/>
      <point x="263.0" y="926" type="curve"/>
      <point x="263.0" y="948"/>
      <point x="263.0" y="973"/>
      <point x="291.0" y="973" type="curve"/>
      <point x="317.0" y="973"/>
      <point x="319.0" y="949"/>
      <point x="319.0" y="926" type="curve"/>
      <point x="319.0" y="903"/>
      <point x="319.0" y="879"/>
      <point x="293.0" y="879" type="curve"/>
      <point x="266.0" y="879"/>
      <point x="263.0" y="903"/>
      <point x="263.0" y="926" type="curve"/>
    </contour>
  </outline>
</glyph>
<glyph name="AE" format="1">
  <advance width="795.0"/>
  <unicode hex="00C6"/>
  <outline>
    <contour>
      <point x="394.0" y="277"/>
      <point x="440.0" y="160"/>
      <point x="394.0" y="277" type="curve"/>
      <point x="322.0" y="277"/>
      <point x="249.0" y="277"/>
      <point x="177.0" y="277" type="curve"/>
      <point x="118.0" y="160"/>
      <point x="177.0" y="277"/>
      <point x="118.0" y="160" type="curve"/>
      <point x="225.0" y="160"/>
      <point x="333.0" y="160"/>
      <point x="440.0" y="160" type="curve"/>
    </contour>
    <contour>
      <point x="141.0" y="0"/>
      <point x="-15.0" y="0"/>
      <point x="141.0" y="0" type="curve"/>
      <point x="509.0" y="722" type="line"/>
      <point x="379.0" y="722"/>
      <point x="509.0" y="722"/>
      <point x="379.0" y="722" type="curve"/>
      <point x="-15.0" y="0" type="line"/>
    </contour>
    <contour>
      <point x="454.0" y="317"/>
      <point x="454.0" y="428"/>
      <point x="454.0" y="317" type="curve"/>
      <point x="535.0" y="317"/>
      <point x="618.0" y="317"/>
      <point x="700.0" y="317" type="curve"/>
      <point x="700.0" y="428"/>
      <point x="700.0" y="317"/>
      <point x="700.0" y="428" type="curve"/>
      <point x="618.0" y="428"/>
      <point x="535.0" y="428"/>
      <point x="454.0" y="428" type="curve"/>
    </contour>
    <contour>
      <point x="442.0" y="612"/>
      <point x="442.0" y="722"/>
      <point x="442.0" y="612" type="curve"/>
      <point x="544.0" y="612"/>
      <point x="645.0" y="612"/>
      <point x="747.0" y="612" type="curve"/>
      <point x="747.0" y="722"/>
      <point x="747.0" y="612"/>
      <point x="747.0" y="722" type="curve"/>
      <point x="645.0" y="722"/>
      <point x="544.0" y="722"/>
      <point x="442.0" y="722" type="curve"/>
    </contour>
    <contour>
      <point x="522.0" y="0"/>
      <point x="379.0" y="0"/>
      <point x="522.0" y="0" type="curve"/>
      <point x="522.0" y="0"/>
      <point x="522.0" y="722"/>
      <point x="522.0" y="722" type="curve"/>
      <point x="379.0" y="722"/>
      <point x="522.0" y="722"/>
      <point x="379.0" y="722" type="curve"/>
      <point x="379.0" y="481"/>
      <point x="379.0" y="241"/>
      <point x="379.0" y="0" type="curve"/>
    </contour>
    <contour>
      <point x="442.0" y="0"/>
      <point x="442.0" y="110"/>
      <point x="442.0" y="0" type="curve"/>
      <point x="552.0" y="0"/>
      <point x="662.0" y="0"/>
      <point x="772.0" y="0" type="curve"/>
      <point x="772.0" y="110"/>
      <point x="772.0" y="0"/>
      <point x="772.0" y="110" type="curve"/>
      <point x="662.0" y="110"/>
      <point x="552.0" y="110"/>
      <point x="442.0" y="110" type="curve"/>
    </contour>
  </outline>
</glyph>
<glyph name="Ccedilla" format="1">
  <advance width="561.0"/>
  <unicode hex="00C7"/>
  <outline>
    <contour>
      <point x="543.0" y="654"/>
      <point x="465.0" y="566"/>
      <point x="543.0" y="654" type="curve"/>
      <point x="485.0" y="697"/>
      <point x="415.0" y="727"/>
      <point x="335.0" y="727" type="curve"/>
      <point x="132.0" y="727"/>
      <point x="36.0" y="571"/>
      <point x="36.0" y="345" type="curve"/>
      <point x="36.0" y="138"/>
      <point x="129.0" y="-5"/>
      <point x="321.0" y="-5" type="curve"/>
      <point x="424.0" y="-5"/>
      <point x="494.0" y="29"/>
      <point x="555.0" y="99" type="curve"/>
      <point x="472.0" y="181"/>
      <point x="555.0" y="99"/>
      <point x="472.0" y="181" type="curve"/>
      <point x="428.0" y="138"/>
      <point x="390.0" y="110"/>
      <point x="328.0" y="110" type="curve"/>
      <point x="211.0" y="110"/>
      <point x="179.0" y="216"/>
      <point x="179.0" y="350" type="curve"/>
      <point x="179.0" y="496"/>
      <point x="208.0" y="612"/>
      <point x="330.0" y="612" type="curve"/>
      <point x="382.0" y="612"/>
      <point x="428.0" y="594"/>
      <point x="465.0" y="566" type="curve"/>
    </contour>
    <contour>
      <point x="262.0" y="82"/>
      <point x="372.0" y="5"/>
      <point x="262.0" y="82" type="curve"/>
      <point x="252.0" y="61"/>
      <point x="212.0" y="-35"/>
      <point x="202.0" y="-57" type="curve"/>
      <point x="300.0" y="-145"/>
      <point x="202.0" y="-57"/>
      <point x="300.0" y="-145" type="curve"/>
      <point x="312.0" y="-119"/>
      <point x="360.0" y="-21"/>
      <point x="372.0" y="5" type="curve"/>
    </contour>
    <contour>
      <point x="300.0" y="-145"/>
      <point x="202.0" y="-57"/>
      <point x="300.0" y="-145" type="curve"/>
      <point x="305.0" y="-141"/>
      <point x="309.0" y="-137"/>
      <point x="315.0" y="-137" type="curve"/>
      <point x="322.0" y="-137"/>
      <point x="327.0" y="-140"/>
      <point x="327.0" y="-149" type="curve"/>
      <point x="327.0" y="-162"/>
      <point x="314.0" y="-166"/>
      <point x="299.0" y="-166" type="curve"/>
      <point x="281.0" y="-166"/>
      <point x="266.0" y="-162"/>
      <point x="250.0" y="-152" type="curve"/>
      <point x="196.0" y="-232"/>
      <point x="250.0" y="-152"/>
      <point x="196.0" y="-232" type="curve"/>
      <point x="226.0" y="-252"/>
      <point x="255.0" y="-260"/>
      <point x="292.0" y="-260" type="curve"/>
      <point x="363.0" y="-260"/>
      <point x="412.0" y="-221"/>
      <point x="412.0" y="-147" type="curve"/>
      <point x="412.0" y="-77"/>
      <point x="368.0" y="-33"/>
      <point x="299.0" y="-33" type="curve"/>
      <point x="262.0" y="-33"/>
      <point x="235.0" y="-38"/>
      <point x="202.0" y="-57" type="curve"/>
    </contour>
  </outline>
</glyph>
<glyph name="Egrave" format="1">
  <advance width="497.0"/>
  <unicode hex="00C8"/>
  <outline>
    <contour>
      <point x="156.0" y="317"/>
      <point x="156.0" y="428"/>
      <point x="156.0" y="317" type="curve"/>
      <point x="237.0" y="317"/>
      <point x="320.0" y="317"/>
      <point x="402.0" y="317" type="curve"/>
      <point x="402.0" y="428"/>
      <point x="402.0" y="317"/>
      <point x="402.0" y="428" type="curve"/>
      <point x="320.0" y="428"/>
      <point x="237.0" y="428"/>
      <point x="156.0" y="428" type="curve"/>
    </contour>
    <contour>
      <point x="144.0" y="612"/>
      <point x="144.0" y="722"/>
      <point x="144.0" y="612" type="curve"/>
      <point x="246.0" y="612"/>
      <point x="347.0" y="612"/>
      <point x="449.0" y="612" type="curve"/>
      <point x="449.0" y="722"/>
      <point x="449.0" y="612"/>
      <point x="449.0" y="722" type="curve"/>
      <point x="347.0" y="722"/>
      <point x="246.0" y="722"/>
      <point x="144.0" y="722" type="curve"/>
    </contour>
    <contour>
      <point x="224.0" y="0"/>
      <point x="81.0" y="0"/>
      <point x="224.0" y="0" type="curve"/>
      <point x="224.0" y="0"/>
      <point x="224.0" y="722"/>
      <point x="224.0" y="722" type="curve"/>
      <point x="81.0" y="722"/>
      <point x="224.0" y="722"/>
      <point x="81.0" y="722" type="curve"/>
      <point x="81.0" y="481"/>
      <point x="81.0" y="241"/>
      <point x="81.0" y="0" type="curve"/>
    </contour>
    <contour>
      <point x="144.0" y="0"/>
      <point x="144.0" y="110"/>
      <point x="144.0" y="0" type="curve"/>
      <point x="254.0" y="0"/>
      <point x="364.0" y="0"/>
      <point x="474.0" y="0" type="curve"/>
      <point x="474.0" y="110"/>
      <point x="474.0" y="0"/>
      <point x="474.0" y="110" type="curve"/>
      <point x="364.0" y="110"/>
      <point x="254.0" y="110"/>
      <point x="144.0" y="110" type="curve"/>
    </contour>
    <contour>
      <point x="323.0" y="781" type="line"/>
      <point x="239.0" y="947" type="line"/>
      <point x="64.0" y="947" type="line"/>
      <point x="188.0" y="781" type="line"/>
    </contour>
  </outline>
</glyph>
<glyph name="Eacute" format="1">
  <advance width="480.0"/>
  <unicode hex="00C9"/>
  <outline>
    <contour>
      <point x="139.0" y="317"/>
      <point x="139.0" y="428"/>
      <point x="139.0" y="317" type="curve"/>
      <point x="220.0" y="317"/>
      <point x="303.0" y="317"/>
      <point x="385.0" y="317" type="curve"/>
      <point x="385.0" y="428"/>
      <point x="385.0" y="317"/>
      <point x="385.0" y="428" type="curve"/>
      <point x="303.0" y="428"/>
      <point x="220.0" y="428"/>
      <point x="139.0" y="428" type="curve"/>
    </contour>
    <contour>
      <point x="127.0" y="612"/>
      <point x="127.0" y="722"/>
      <point x="127.0" y="612" type="curve"/>
      <point x="229.0" y="612"/>
      <point x="330.0" y="612"/>
      <point x="432.0" y="612" type="curve"/>
      <point x="432.0" y="722"/>
      <point x="432.0" y="612"/>
      <point x="432.0" y="722" type="curve"/>
      <point x="330.0" y="722"/>
      <point x="229.0" y="722"/>
      <point x="127.0" y="722" type="curve"/>
    </contour>
    <contour>
      <point x="207.0" y="0"/>
      <point x="64.0" y="0"/>
      <point x="207.0" y="0" type="curve"/>
      <point x="207.0" y="0"/>
      <point x="207.0" y="722"/>
      <point x="207.0" y="722" type="curve"/>
      <point x="64.0" y="722"/>
      <point x="207.0" y="722"/>
      <point x="64.0" y="722" type="curve"/>
      <point x="64.0" y="481"/>
      <point x="64.0" y="241"/>
      <point x="64.0" y="0" type="curve"/>
    </contour>
    <contour>
      <point x="127.0" y="0"/>
      <point x="127.0" y="110"/>
      <point x="127.0" y="0" type="curve"/>
      <point x="237.0" y="0"/>
      <point x="347.0" y="0"/>
      <point x="457.0" y="0" type="curve"/>
      <point x="457.0" y="110"/>
      <point x="457.0" y="0"/>
      <point x="457.0" y="110" type="curve"/>
      <point x="347.0" y="110"/>
      <point x="237.0" y="110"/>
      <point x="127.0" y="110" type="curve"/>
    </contour>
    <contour>
      <point x="302.0" y="779" type="line"/>
      <point x="426.0" y="945" type="line"/>
      <point x="251.0" y="945" type="line"/>
      <point x="167.0" y="779" type="line"/>
    </contour>
  </outline>
</glyph>
<glyph name="Ecircumflex" format="1">
  <advance width="452.0"/>
  <unicode hex="00CA"/>
  <outline>
    <contour>
      <point x="125.0" y="317"/>
      <point x="125.0" y="428"/>
      <point x="125.0" y="317" type="curve"/>
      <point x="206.0" y="317"/>
      <point x="289.0" y="317"/>
      <point x="371.0" y="317" type="curve"/>
      <point x="371.0" y="428"/>
      <point x="371.0" y="317"/>
      <point x="371.0" y="428" type="curve"/>
      <point x="289.0" y="428"/>
      <point x="206.0" y="428"/>
      <point x="125.0" y="428" type="curve"/>
    </contour>
    <contour>
      <point x="113.0" y="612"/>
      <point x="113.0" y="722"/>
      <point x="113.0" y="612" type="curve"/>
      <point x="215.0" y="612"/>
      <point x="316.0" y="612"/>
      <point x="418.0" y="612" type="curve"/>
      <point x="418.0" y="722"/>
      <point x="418.0" y="612"/>
      <point x="418.0" y="722" type="curve"/>
      <point x="316.0" y="722"/>
      <point x="215.0" y="722"/>
      <point x="113.0" y="722" type="curve"/>
    </contour>
    <contour>
      <point x="193.0" y="0"/>
      <point x="50.0" y="0"/>
      <point x="193.0" y="0" type="curve"/>
      <point x="193.0" y="0"/>
      <point x="193.0" y="722"/>
      <point x="193.0" y="722" type="curve"/>
      <point x="50.0" y="722"/>
      <point x="193.0" y="722"/>
      <point x="50.0" y="722" type="curve"/>
      <point x="50.0" y="481"/>
      <point x="50.0" y="241"/>
      <point x="50.0" y="0" type="curve"/>
    </contour>
    <contour>
      <point x="113.0" y="0"/>
      <point x="113.0" y="110"/>
      <point x="113.0" y="0" type="curve"/>
      <point x="223.0" y="0"/>
      <point x="333.0" y="0"/>
      <point x="443.0" y="0" type="curve"/>
      <point x="443.0" y="110"/>
      <point x="443.0" y="0"/>
      <point x="443.0" y="110" type="curve"/>
      <point x="333.0" y="110"/>
      <point x="223.0" y="110"/>
      <point x="113.0" y="110" type="curve"/>
    </contour>
    <contour>
      <point x="160.0" y="780" type="line"/>
      <point x="284.0" y="946" type="line"/>
      <point x="109.0" y="946" type="line"/>
      <point x="25.0" y="780" type="line"/>
    </contour>
    <contour>
      <point x="423.0" y="780" type="line"/>
      <point x="339.0" y="946" type="line"/>
      <point x="164.0" y="946" type="line"/>
      <point x="288.0" y="780" type="line"/>
    </contour>
  </outline>
</glyph>
<glyph name="Edieresis" format="1">
  <advance width="477.7"/>
  <unicode hex="00CB"/>
  <outline>
    <contour>
      <point x="136.7" y="317"/>
      <point x="136.7" y="428"/>
      <point x="136.7" y="317" type="curve"/>
      <point x="217.7" y="317"/>
      <point x="300.7" y="317"/>
      <point x="382.7" y="317" type="curve"/>
      <point x="382.7" y="428"/>
      <point x="382.7" y="317"/>
      <point x="382.7" y="428" type="curve"/>
      <point x="300.7" y="428"/>
      <point x="217.7" y="428"/>
      <point x="136.7" y="428" type="curve"/>
    </contour>
    <contour>
      <point x="124.7" y="612"/>
      <point x="124.7" y="722"/>
      <point x="124.7" y="612" type="curve"/>
      <point x="226.7" y="612"/>
      <point x="327.7" y="612"/>
      <point x="429.7" y="612" type="curve"/>
      <point x="429.7" y="722"/>
      <point x="429.7" y="612"/>
      <point x="429.7" y="722" type="curve"/>
      <point x="327.7" y="722"/>
      <point x="226.7" y="722"/>
      <point x="124.7" y="722" type="curve"/>
    </contour>
    <contour>
      <point x="204.7" y="0"/>
      <point x="61.7" y="0"/>
      <point x="204.7" y="0" type="curve"/>
      <point x="204.7" y="0"/>
      <point x="204.7" y="722"/>
      <point x="204.7" y="722" type="curve"/>
      <point x="61.7" y="722"/>
      <point x="204.7" y="722"/>
      <point x="61.7" y="722" type="curve"/>
      <point x="61.7" y="481"/>
      <point x="61.7" y="241"/>
      <point x="61.7" y="0" type="curve"/>
    </contour>
    <contour>
      <point x="124.7" y="0"/>
      <point x="124.7" y="110"/>
      <point x="124.7" y="0" type="curve"/>
      <point x="234.7" y="0"/>
      <point x="344.7" y="0"/>
      <point x="454.7" y="0" type="curve"/>
      <point x="454.7" y="110"/>
      <point x="454.7" y="0"/>
      <point x="454.7" y="110" type="curve"/>
      <point x="344.7" y="110"/>
      <point x="234.7" y="110"/>
      <point x="124.7" y="110" type="curve"/>
    </contour>
    <contour>
      <point x="210.7" y="845"/>
      <point x="62.7" y="845"/>
      <point x="210.7" y="845" type="curve"/>
      <point x="210.7" y="893"/>
      <point x="178.7" y="917"/>
      <point x="135.7" y="917" type="curve"/>
      <point x="91.7" y="917"/>
      <point x="62.7" y="891"/>
      <point x="62.7" y="845" type="curve"/>
      <point x="210.7" y="845"/>
      <point x="62.7" y="845"/>
      <point x="210.7" y="845" type="curve"/>
      <point x="210.7" y="796"/>
      <point x="179.7" y="774"/>
      <point x="135.7" y="774" type="curve"/>
      <point x="90.7" y="774"/>
      <point x="62.7" y="798"/>
      <point x="62.7" y="845" type="curve"/>
    </contour>
    <contour>
      <point x="410.7" y="845"/>
      <point x="262.7" y="845"/>
      <point x="410.7" y="845" type="curve"/>
      <point x="410.7" y="893"/>
      <point x="378.7" y="917"/>
      <point x="335.7" y="917" type="curve"/>
      <point x="291.7" y="917"/>
      <point x="262.7" y="891"/>
      <point x="262.7" y="845" type="curve"/>
      <point x="410.7" y="845"/>
      <point x="262.7" y="845"/>
      <point x="410.7" y="845" type="curve"/>
      <point x="410.7" y="796"/>
      <point x="379.7" y="774"/>
      <point x="335.7" y="774" type="curve"/>
      <point x="290.7" y="774"/>
      <point x="262.7" y="798"/>
      <point x="262.7" y="845" type="curve"/>
    </contour>
  </outline>
</glyph>
<glyph name="Icircumflex" format="1">
  <advance width="320"/>
  <unicode hex="00CE"/>
  <outline>
    <contour>
      <point x="233" y="0"/>
      <point x="90" y="0"/>
      <point x="233" y="0" type="curve"/>
      <point x="233" y="241"/>
      <point x="233" y="481"/>
      <point x="233" y="722" type="curve"/>
      <point x="90" y="722"/>
      <point x="233" y="722"/>
      <point x="90" y="722" type="curve"/>
      <point x="90" y="481"/>
      <point x="90" y="241"/>
      <point x="90" y="0" type="curve"/>
    </contour>
    <contour>
      <point x="100" y="780" type="line"/>
      <point x="224" y="946" type="line"/>
      <point x="49" y="946" type="line"/>
      <point x="-35" y="780" type="line"/>
    </contour>
    <contour>
      <point x="363" y="780" type="line"/>
      <point x="279" y="946" type="line"/>
      <point x="104" y="946" type="line"/>
      <point x="228" y="780" type="line"/>
    </contour>
  </outline>
</glyph>
<glyph name="Idieresis" format="1">
  <advance width="284"/>
  <unicode hex="00CF"/>
  <outline>
    <contour>
      <point x="216" y="0"/>
      <point x="73" y="0"/>
      <point x="216" y="0" type="curve"/>
      <point x="216" y="241"/>
      <point x="216" y="481"/>
      <point x="216" y="722" type="curve"/>
      <point x="73" y="722"/>
      <point x="216" y="722"/>
      <point x="73" y="722" type="curve"/>
      <point x="73" y="481"/>
      <point x="73" y="241"/>
      <point x="73" y="0" type="curve"/>
    </contour>
    <contour>
      <point x="122" y="845"/>
      <point x="-26" y="845"/>
      <point x="122" y="845" type="curve"/>
      <point x="122" y="893"/>
      <point x="90" y="917"/>
      <point x="47" y="917" type="curve"/>
      <point x="3" y="917"/>
      <point x="-26" y="891"/>
      <point x="-26" y="845" type="curve"/>
      <point x="122" y="845"/>
      <point x="-26" y="845"/>
      <point x="122" y="845" type="curve"/>
      <point x="122" y="796"/>
      <point x="91" y="774"/>
      <point x="47" y="774" type="curve"/>
      <point x="2" y="774"/>
      <point x="-26" y="798"/>
      <point x="-26" y="845" type="curve"/>
    </contour>
    <contour>
      <point x="322" y="845"/>
      <point x="174" y="845"/>
      <point x="322" y="845" type="curve"/>
      <point x="322" y="893"/>
      <point x="290" y="917"/>
      <point x="247" y="917" type="curve"/>
      <point x="203" y="917"/>
      <point x="174" y="891"/>
      <point x="174" y="845" type="curve"/>
      <point x="322" y="845"/>
      <point x="174" y="845"/>
      <point x="322" y="845" type="curve"/>
      <point x="322" y="796"/>
      <point x="291" y="774"/>
      <point x="247" y="774" type="curve"/>
      <point x="202" y="774"/>
      <point x="174" y="798"/>
      <point x="174" y="845" type="curve"/>
    </contour>
  </outline>
</glyph>
<glyph name="Eth" format="1">
  <advance width="623.397495657"/>
  <unicode hex="00D0"/>
  <outline>
    <contour>
      <point x="65.3974956572" y="722"/>
      <point x="208.397495657" y="722"/>
      <point x="65.3974956572" y="722" type="curve"/>
      <point x="65.3974956572" y="481"/>
      <point x="65.3974956572" y="241"/>
      <point x="65.3974956572" y="0" type="curve"/>
      <point x="208.397495657" y="0"/>
      <point x="65.3974956572" y="0"/>
      <point x="208.397495657" y="0" type="curve"/>
      <point x="208.397495657" y="241"/>
      <point x="208.397495657" y="481"/>
      <point x="208.397495657" y="722" type="curve"/>
    </contour>
    <contour>
      <point x="138.397495657" y="0"/>
      <point x="138.397495657" y="110"/>
      <point x="138.397495657" y="0" type="curve"/>
      <point x="186.397495657" y="0"/>
      <point x="234.397495657" y="0"/>
      <point x="283.397495657" y="0" type="curve"/>
      <point x="492.397495657" y="0"/>
      <point x="587.397495657" y="134"/>
      <point x="587.397495657" y="354" type="curve"/>
      <point x="587.397495657" y="581"/>
      <point x="495.397495657" y="722"/>
      <point x="281.397495657" y="722" type="curve"/>
      <point x="234.397495657" y="722"/>
      <point x="186.397495657" y="722"/>
      <point x="138.397495657" y="722" type="curve"/>
      <point x="138.397495657" y="612"/>
      <point x="138.397495657" y="722"/>
      <point x="138.397495657" y="612" type="curve"/>
      <point x="184.397495657" y="612"/>
      <point x="229.397495657" y="612"/>
      <point x="275.397495657" y="612" type="curve"/>
      <point x="411.397495657" y="612"/>
      <point x="444.397495657" y="504"/>
      <point x="444.397495657" y="352" type="curve"/>
      <point x="444.397495657" y="212"/>
      <point x="417.397495657" y="110"/>
      <point x="296.397495657" y="110" type="curve"/>
      <point x="243.397495657" y="110"/>
      <point x="191.397495657" y="110"/>
      <point x="138.397495657" y="110" type="curve"/>
    </contour>
    <contour>
      <point x="26.3974956572" y="292"/>
      <point x="26.3974956572" y="413"/>
      <point x="26.3974956572" y="292" type="curve"/>
      <point x="121.397495657" y="292"/>
      <point x="216.397495657" y="292"/>
      <point x="311.397495657" y="292" type="curve"/>
      <point x="311.397495657" y="413"/>
      <point x="311.397495657" y="292"/>
      <point x="311.397495657" y="413" type="curve"/>
      <point x="216.397495657" y="413"/>
      <point x="121.397495657" y="413"/>
      <point x="26.3974956572" y="413" type="curve"/>
    </contour>
  </outline>
</glyph>
<glyph name="Ntilde" format="1">
  <advance width="676.0"/>
  <unicode hex="00D1"/>
  <outline>
    <contour>
      <point x="613.0" y="0"/>
      <point x="465.0" y="0"/>
      <point x="613.0" y="0" type="curve"/>
      <point x="479.0" y="241"/>
      <point x="345.0" y="481"/>
      <point x="212.0" y="722" type="curve"/>
      <point x="64.0" y="722"/>
      <point x="212.0" y="722"/>
      <point x="64.0" y="722" type="curve"/>
      <point x="197.0" y="481"/>
      <point x="331.0" y="241"/>
      <point x="465.0" y="0" type="curve"/>
    </contour>
    <contour>
      <point x="469.0" y="722"/>
      <point x="612.0" y="722"/>
      <point x="469.0" y="722" type="curve"/>
      <point x="469.0" y="481"/>
      <point x="469.0" y="241"/>
      <point x="469.0" y="0" type="curve"/>
      <point x="612.0" y="0"/>
      <point x="469.0" y="0"/>
      <point x="612.0" y="0" type="curve"/>
      <point x="612.0" y="241"/>
      <point x="612.0" y="481"/>
      <point x="612.0" y="722" type="curve"/>
    </contour>
    <contour>
      <point x="207.0" y="0"/>
      <point x="64.0" y="0"/>
      <point x="207.0" y="0" type="curve"/>
      <point x="207.0" y="241"/>
      <point x="207.0" y="481"/>
      <point x="207.0" y="722" type="curve"/>
      <point x="64.0" y="722"/>
      <point x="207.0" y="722"/>
      <point x="64.0" y="722" type="curve"/>
      <point x="64.0" y="481"/>
      <point x="64.0" y="241"/>
      <point x="64.0" y="0" type="curve"/>
    </contour>
    <contour>
      <point x="434.0" y="972"/>
      <point x="547.0" y="912"/>
      <point x="434.0" y="972" type="curve"/>
      <point x="417.0" y="937"/>
      <point x="404.0" y="931"/>
      <point x="390.0" y="931" type="curve"/>
      <point x="365.0" y="931"/>
      <point x="353.0" y="937"/>
      <point x="335.0" y="951" type="curve" smooth="yes"/>
      <point x="309.0" y="971"/>
      <point x="296.0" y="979"/>
      <point x="267.0" y="979" type="curve"/>
      <point x="198.0" y="979"/>
      <point x="162.0" y="910"/>
      <point x="141.0" y="846" type="curve"/>
      <point x="246.0" y="785"/>
      <point x="141.0" y="847"/>
      <point x="246.0" y="785" type="curve"/>
      <point x="266.0" y="825"/>
      <point x="282.0" y="831"/>
      <point x="300.0" y="831" type="curve"/>
      <point x="320.0" y="831"/>
      <point x="330.0" y="825"/>
      <point x="344.0" y="813" type="curve" smooth="yes"/>
      <point x="374.0" y="789"/>
      <point x="390.0" y="778"/>
      <point x="425.0" y="778" type="curve"/>
      <point x="494.0" y="778"/>
      <point x="520.0" y="843"/>
      <point x="547.0" y="913" type="curve"/>
    </contour>
  </outline>
</glyph>
<glyph name="Ocircumflex" format="1">
  <advance width="647.5"/>
  <unicode hex="00D4"/>
  <outline>
    <contour>
      <point x="178.75" y="360"/>
      <point x="35.75" y="360"/>
      <point x="178.75" y="360" type="curve"/>
      <point x="178.75" y="495"/>
      <point x="200.75" y="612"/>
      <point x="320.75" y="612" type="curve"/>
      <point x="435.75" y="612"/>
      <point x="468.75" y="498"/>
      <point x="468.75" y="363" type="curve"/>
      <point x="468.75" y="227"/>
      <point x="444.75" y="111"/>
      <point x="325.75" y="111" type="curve"/>
      <point x="208.75" y="111"/>
      <point x="178.75" y="224"/>
      <point x="178.75" y="360" type="curve"/>
      <point x="35.75" y="360"/>
      <point x="178.75" y="360"/>
      <point x="35.75" y="360" type="curve"/>
      <point x="35.75" y="151"/>
      <point x="128.75" y="-5"/>
      <point x="320.75" y="-5" type="curve"/>
      <point x="515.75" y="-5"/>
      <point x="611.75" y="152"/>
      <point x="611.75" y="363" type="curve"/>
      <point x="611.75" y="570"/>
      <point x="519.75" y="727"/>
      <point x="326.75" y="727" type="curve"/>
      <point x="132.75" y="727"/>
      <point x="35.75" y="570"/>
      <point x="35.75" y="360" type="curve"/>
    </contour>
    <contour>
      <point x="260.75" y="780" type="line"/>
      <point x="384.75" y="946" type="line"/>
      <point x="209.75" y="946" type="line"/>
      <point x="125.75" y="780" type="line"/>
    </contour>
    <contour>
      <point x="523.75" y="780" type="line"/>
      <point x="439.75" y="946" type="line"/>
      <point x="264.75" y="946" type="line"/>
      <point x="388.75" y="780" type="line"/>
    </contour>
  </outline>
</glyph>
<glyph name="Otilde" format="1">
  <advance width="647.5"/>
  <unicode hex="00D5"/>
  <outline>
    <contour>
      <point x="178.75" y="360"/>
      <point x="35.75" y="360"/>
      <point x="178.75" y="360" type="curve"/>
      <point x="178.75" y="495"/>
      <point x="200.75" y="612"/>
      <point x="320.75" y="612" type="curve"/>
      <point x="435.75" y="612"/>
      <point x="468.75" y="498"/>
      <point x="468.75" y="363" type="curve"/>
      <point x="468.75" y="227"/>
      <point x="444.75" y="111"/>
      <point x="325.75" y="111" type="curve"/>
      <point x="208.75" y="111"/>
      <point x="178.75" y="224"/>
      <point x="178.75" y="360" type="curve"/>
      <point x="35.75" y="360"/>
      <point x="178.75" y="360"/>
      <point x="35.75" y="360" type="curve"/>
      <point x="35.75" y="151"/>
      <point x="128.75" y="-5"/>
      <point x="320.75" y="-5" type="curve"/>
      <point x="515.75" y="-5"/>
      <point x="611.75" y="152"/>
      <point x="611.75" y="363" type="curve"/>
      <point x="611.75" y="570"/>
      <point x="519.75" y="727"/>
      <point x="326.75" y="727" type="curve"/>
      <point x="132.75" y="727"/>
      <point x="35.75" y="570"/>
      <point x="35.75" y="360" type="curve"/>
    </contour>
    <contour>
      <point x="420.75" y="972"/>
      <point x="533.75" y="912"/>
      <point x="420.75" y="972" type="curve"/>
      <point x="403.75" y="937"/>
      <point x="390.75" y="931"/>
      <point x="376.75" y="931" type="curve"/>
      <point x="351.75" y="931"/>
      <point x="339.75" y="937"/>
      <point x="321.75" y="951" type="curve" smooth="yes"/>
      <point x="295.75" y="971"/>
      <point x="282.75" y="979"/>
      <point x="253.75" y="979" type="curve"/>
      <point x="184.75" y="979"/>
      <point x="148.75" y="910"/>
      <point x="127.75" y="846" type="curve"/>
      <point x="232.75" y="785"/>
      <point x="127.75" y="847"/>
      <point x="232.75" y="785" type="curve"/>
      <point x="252.75" y="825"/>
      <point x="268.75" y="831"/>
      <point x="286.75" y="831" type="curve"/>
      <point x="306.75" y="831"/>
      <point x="316.75" y="825"/>
      <point x="330.75" y="813" type="curve" smooth="yes"/>
      <point x="360.75" y="789"/>
      <point x="376.75" y="778"/>
      <point x="411.75" y="778" type="curve"/>
      <point x="480.75" y="778"/>
      <point x="506.75" y="843"/>
      <point x="533.75" y="913" type="curve"/>
    </contour>
  </outline>
</glyph>
<glyph name="Odieresis" format="1">
  <advance width="647.5"/>
  <unicode hex="00D6"/>
  <outline>
    <contour>
      <point x="178.75" y="360"/>
      <point x="35.75" y="360"/>
      <point x="178.75" y="360" type="curve"/>
      <point x="178.75" y="495"/>
      <point x="200.75" y="612"/>
      <point x="320.75" y="612" type="curve"/>
      <point x="435.75" y="612"/>
      <point x="468.75" y="498"/>
      <point x="468.75" y="363" type="curve"/>
      <point x="468.75" y="227"/>
      <point x="444.75" y="111"/>
      <point x="325.75" y="111" type="curve"/>
      <point x="208.75" y="111"/>
      <point x="178.75" y="224"/>
      <point x="178.75" y="360" type="curve"/>
      <point x="35.75" y="360"/>
      <point x="178.75" y="360"/>
      <point x="35.75" y="360" type="curve"/>
      <point x="35.75" y="151"/>
      <point x="128.75" y="-5"/>
      <point x="320.75" y="-5" type="curve"/>
      <point x="515.75" y="-5"/>
      <point x="611.75" y="152"/>
      <point x="611.75" y="363" type="curve"/>
      <point x="611.75" y="570"/>
      <point x="519.75" y="727"/>
      <point x="326.75" y="727" type="curve"/>
      <point x="132.75" y="727"/>
      <point x="35.75" y="570"/>
      <point x="35.75" y="360" type="curve"/>
    </contour>
    <contour>
      <point x="299.75" y="845"/>
      <point x="151.75" y="845"/>
      <point x="299.75" y="845" type="curve"/>
      <point x="299.75" y="893"/>
      <point x="267.75" y="917"/>
      <point x="224.75" y="917" type="curve"/>
      <point x="180.75" y="917"/>
      <point x="151.75" y="891"/>
      <point x="151.75" y="845" type="curve"/>
      <point x="299.75" y="845"/>
      <point x="151.75" y="845"/>
      <point x="299.75" y="845" type="curve"/>
      <point x="299.75" y="796"/>
      <point x="268.75" y="774"/>
      <point x="224.75" y="774" type="curve"/>
      <point x="179.75" y="774"/>
      <point x="151.75" y="798"/>
      <point x="151.75" y="845" type="curve"/>
    </contour>
    <contour>
      <point x="499.75" y="845"/>
      <point x="351.75" y="845"/>
      <point x="499.75" y="845" type="curve"/>
      <point x="499.75" y="893"/>
      <point x="467.75" y="917"/>
      <point x="424.75" y="917" type="curve"/>
      <point x="380.75" y="917"/>
      <point x="351.75" y="891"/>
      <point x="351.75" y="845" type="curve"/>
      <point x="499.75" y="845"/>
      <point x="351.75" y="845"/>
      <point x="499.75" y="845" type="curve"/>
      <point x="499.75" y="796"/>
      <point x="468.75" y="774"/>
      <point x="424.75" y="774" type="curve"/>
      <point x="379.75" y="774"/>
      <point x="351.75" y="798"/>
      <point x="351.75" y="845" type="curve"/>
    </contour>
  </outline>
</glyph>
<glyph name="multiply" format="1">
  <advance width="592.0"/>
  <unicode hex="00D7"/>
  <outline>
    <contour>
      <point x="118.0" y="42" type="line"/>
      <point x="555.0" y="499" type="line"/>
      <point x="474.0" y="580" type="line"/>
      <point x="37.0" y="123" type="line"/>
    </contour>
    <contour>
      <point x="555.0" y="120" type="line"/>
      <point x="118.0" y="577" type="line"/>
      <point x="37.0" y="496" type="line"/>
      <point x="474.0" y="39" type="line"/>
    </contour>
  </outline>
</glyph>
<glyph name="Ugrave" format="1">
  <advance width="622.0"/>
  <unicode hex="00D9"/>
  <outline>
    <contour>
      <point x="58.0" y="722"/>
      <point x="188.0" y="722"/>
      <point x="58.0" y="722" type="curve"/>
      <point x="58.0" y="588"/>
      <point x="57.0" y="407"/>
      <point x="58.0" y="273" type="curve"/>
      <point x="58.0" y="94"/>
      <point x="134.0" y="-5"/>
      <point x="307.0" y="-5" type="curve"/>
      <point x="485.0" y="-5"/>
      <point x="564.0" y="99"/>
      <point x="564.0" y="285" type="curve"/>
      <point x="564.0" y="415"/>
      <point x="564.0" y="592"/>
      <point x="564.0" y="722" type="curve"/>
      <point x="434.0" y="722"/>
      <point x="564.0" y="722"/>
      <point x="434.0" y="722" type="curve"/>
      <point x="434.0" y="585"/>
      <point x="434.0" y="407"/>
      <point x="434.0" y="270" type="curve"/>
      <point x="434.0" y="179"/>
      <point x="400.0" y="117"/>
      <point x="317.0" y="117" type="curve"/>
      <point x="217.0" y="117"/>
      <point x="188.0" y="186"/>
      <point x="188.0" y="295" type="curve"/>
      <point x="188.0" y="422"/>
      <point x="188.0" y="596"/>
      <point x="188.0" y="722" type="curve"/>
    </contour>
    <contour>
      <point x="382.0" y="781" type="line"/>
      <point x="298.0" y="947" type="line"/>
      <point x="123.0" y="947" type="line"/>
      <point x="247.0" y="781" type="line"/>
    </contour>
  </outline>
</glyph>
<glyph name="Udieresis" format="1">
  <advance width="622.0"/>
  <unicode hex="00DC"/>
  <outline>
    <contour>
      <point x="58.0" y="722"/>
      <point x="188.0" y="722"/>
      <point x="58.0" y="722" type="curve"/>
      <point x="58.0" y="588"/>
      <point x="57.0" y="407"/>
      <point x="58.0" y="273" type="curve"/>
      <point x="58.0" y="94"/>
      <point x="134.0" y="-5"/>
      <point x="307.0" y="-5" type="curve"/>
      <point x="485.0" y="-5"/>
      <point x="564.0" y="99"/>
      <point x="564.0" y="285" type="curve"/>
      <point x="564.0" y="415"/>
      <point x="564.0" y="592"/>
      <point x="564.0" y="722" type="curve"/>
      <point x="434.0" y="722"/>
      <point x="564.0" y="722"/>
      <point x="434.0" y="722" type="curve"/>
      <point x="434.0" y="585"/>
      <point x="434.0" y="407"/>
      <point x="434.0" y="270" type="curve"/>
      <point x="434.0" y="179"/>
      <point x="400.0" y="117"/>
      <point x="317.0" y="117" type="curve"/>
      <point x="217.0" y="117"/>
      <point x="188.0" y="186"/>
      <point x="188.0" y="295" type="curve"/>
      <point x="188.0" y="422"/>
      <point x="188.0" y="596"/>
      <point x="188.0" y="722" type="curve"/>
    </contour>
    <contour>
      <point x="289.0" y="845"/>
      <point x="141.0" y="845"/>
      <point x="289.0" y="845" type="curve"/>
      <point x="289.0" y="893"/>
      <point x="257.0" y="917"/>
      <point x="214.0" y="917" type="curve"/>
      <point x="170.0" y="917"/>
      <point x="141.0" y="891"/>
      <point x="141.0" y="845" type="curve"/>
      <point x="289.0" y="845"/>
      <point x="141.0" y="845"/>
      <point x="289.0" y="845" type="curve"/>
      <point x="289.0" y="796"/>
      <point x="258.0" y="774"/>
      <point x="214.0" y="774" type="curve"/>
      <point x="169.0" y="774"/>
      <point x="141.0" y="798"/>
      <point x="141.0" y="845" type="curve"/>
    </contour>
    <contour>
      <point x="489.0" y="845"/>
      <point x="341.0" y="845"/>
      <point x="489.0" y="845" type="curve"/>
      <point x="489.0" y="893"/>
      <point x="457.0" y="917"/>
      <point x="414.0" y="917" type="curve"/>
      <point x="370.0" y="917"/>
      <point x="341.0" y="891"/>
      <point x="341.0" y="845" type="curve"/>
      <point x="489.0" y="845"/>
      <point x="341.0" y="845"/>
      <point x="489.0" y="845" type="curve"/>
      <point x="489.0" y="796"/>
      <point x="458.0" y="774"/>
      <point x="414.0" y="774" type="curve"/>
      <point x="369.0" y="774"/>
      <point x="341.0" y="798"/>
      <point x="341.0" y="845" type="curve"/>
    </contour>
  </outline>
</glyph>
